<?xml version="1.0" encoding="UTF-8"?>
<svg xmlns="http://www.w3.org/2000/svg" viewBox="0 0 239.49 134.77">
  <defs>
    <style>.cls-1{fill:#f2692b;}.cls-2{fill:#fff8f0;}.cls-3{fill:#b84425;}.cls-4{fill:#8cc44a;}.cls-5{fill:#add583;}.cls-6{fill:#ddeeca;}.cls-7{fill:#d0e7b8;}.cls-8{fill:#462e3b;}.cls-9,.cls-10{fill:#462d3b;}.cls-11{stroke-width:1.16px;}.cls-11,.cls-12,.cls-13,.cls-14,.cls-15,.cls-16,.cls-17{stroke-linecap:round;}.cls-11,.cls-12,.cls-13,.cls-17{stroke-linejoin:round;}.cls-11,.cls-12,.cls-14,.cls-16,.cls-17{fill:none;}.cls-11,.cls-16,.cls-17{stroke:#b9dc94;}.cls-12{stroke:#462e3b;stroke-width:10.26px;}.cls-10{mix-blend-mode:multiply;}.cls-13{stroke-width:2px;}.cls-13,.cls-14,.cls-15{stroke:#8cc44a;}.cls-13,.cls-15{fill:#e6f1d9;}.cls-14,.cls-15,.cls-16{stroke-miterlimit:10;}.cls-16{stroke-width:1.15px;}.cls-18{isolation:isolate;}.cls-17{stroke-width:1.11px;}</style>
  </defs>
  <g class="cls-18">
    <g id="Layer_2">
      <g id="_15._Calendar_event_customizations">
        <g>
          <path class="cls-4" d="M14.8,82.83c-3.61,0-6.53,2.93-6.53,6.53s3.43,7.11,5.32,8.76c.14,.12,.27,.24,.41,.35,.11,.1,.23,.19,.34,.28,.26,.2,.62,.21,.89,.03h.01s.1-.09,.16-.14c.08-.07,.17-.14,.26-.21,.12-.11,.26-.22,.39-.34,1.89-1.67,5.28-5.14,5.28-8.73s-2.92-6.53-6.53-6.53Zm0,9.54c-1.67,0-3.02-1.35-3.02-3.02s1.35-3.02,3.02-3.02,3.02,1.35,3.02,3.02-1.35,3.02-3.02,3.02Z"/>
          <g>
            <circle class="cls-16" cx="14.8" cy="35.2" r="6.01"/>
            <polyline class="cls-16" points="14.8 32.16 14.8 35.2 18.35 36.93"/>
          </g>
          <rect class="cls-7" x="30.04" y="32.85" width="56.68" height="5.45" rx="2.72" ry="2.72"/>
          <g>
            <circle class="cls-11" cx="14.8" cy="58.87" r="3.18"/>
            <path class="cls-11" d="M8.79,68.06c0-3.46,2.93-6.24,6.45-5.99,3.16,.23,5.56,2.95,5.56,6.12h0c0,.59-.48,1.07-1.07,1.07-3.29-.45-6.59-.45-9.88,0-.59,0-1.07-.48-1.07-1.07v-.12Z"/>
          </g>
          <rect class="cls-7" x="30.04" y="60.38" width="134.53" height="5.45" rx="2.72" ry="2.72"/>
          <rect class="cls-5" x="30.04" y="88.89" width="81.35" height="5.45" rx="2.72" ry="2.72"/>
          <g>
            <line class="cls-17" x1="9.36" y1="115" x2="21.38" y2="115"/>
            <line class="cls-17" x1="9.36" y1="119.38" x2="21.38" y2="119.38"/>
            <line class="cls-17" x1="9.36" y1="123.76" x2="17.07" y2="123.76"/>
          </g>
          <rect class="cls-7" x="30.04" y="116.66" width="105.52" height="5.45" rx="2.72" ry="2.72"/>
          <g>
            <line class="cls-14" x1=".5" y1="19.89" x2="238.99" y2="19.89"/>
            <circle class="cls-15" cx="213.67" cy="19.89" r="13.52"/>
            <polyline class="cls-13" points="208.15 20.66 212.02 24.53 220.09 16.46"/>
          </g>
          <ellipse class="cls-6" cx="196.73" cy="132.63" rx="41.94" ry="2.14"/>
          <g>
            <path class="cls-12" d="M150.21,83.01c-1.18,1.59-3.43,4.43-5.29,5.83-1.31,.99-4.35,2-6.39,1.45-1.04-.28-1.8-1.08-2.47-1.87-1.67-1.96-3.34-3.93-5.01-5.89-1.39-1.64-2.9-3.35-5.02-4s-4.13-.43-5.18,1.6"/>
            <path class="cls-3" d="M169.16,109.95c.26-4.88,3.22-8.35,7.51-8.61,.89-.19,1.51,.04,1.5-.64-.01-1.33-3.12-1.4-5.79-.24-3.77,1.63-4.89,5.13-5.27,9.5-.42,4.92,2.63,9.58,2.69,13.73,.8-.18,1.57-.41,2.25-.71-.08-2.68-3.09-8.45-2.9-13.02Z"/>
            <path class="cls-9" d="M169.81,123.68c-2.42,.54-5.11,.58-6.54,.73-5.12,.53-7.36,3.29-6.79,8.53,6.93,.5,11.59,.45,18.52,.02,.09-4.25-1.17-6.72-2.94-9.98-.69,.3-1.45,.53-2.25,.71Z"/>
            <path class="cls-2" d="M218.2,41.81c-5.67,4.3-9.39,9.1-11.03,16.81,.98,1.1,2.14,1.98,3.68,1.6,1.42-.35,2.03,.43,2.83,1.34,2.74,3.15,7.21,2.99,9.75-.37,.78-1.03,1.09-2.16,2.88-1.57,3.47,1.15,6.21-.47,8.62-2.82-2.6-6.09-6.66-11.24-11.77-15.19-1.61-1.24-3.32-1.03-4.96,.21Z"/>
            <path class="cls-1" d="M144.9,65.09c.34-.45-.64,2.42-.8,6.41-.08,1.92-.22,5.15-.82,8.6-.23,1.28-.54,2.22-1.32,4.11,.67,.12,1.17,.11,1.77,.51-.32,.57-.68,.52-1,1.09,.65,0,2.63,.94,2.87,1.58s-.4,3.47-.4,3.47l1.77,3.28s3.01-2.22,3.02-3.79c.03-4.83,.69-18.22-.78-22.88,0,0-4.3-2.39-4.3-2.39Z"/>
            <path class="cls-3" d="M149.98,90.36c0,1.57-3.03,3.79-3.03,3.79l-1.1-2.04c1.69-2.56,.32-8.39,1.02-17.19,0,0,1.63,2.97,3.26,4.18,.04,4.39-.13,8.83-.15,11.27Z"/>
            <path class="cls-1" d="M144.97,65.14l-.07-.05c.06-.08,.08-.06,.07,.05Z"/>
            <path class="cls-1" d="M196.75,132.02c-1.09,.03-2.17,.07-3.27,.1-3.04,.17-8.31,.38-12.81,.56-2.09,.12-4.09,.19-5.66,.26,.09-4.24-1.18-6.71-2.96-9.97-.07-2.69-3.08-8.45-2.89-13.02,.26-4.89,3.22-8.36,7.51-8.62,.89-.19,1.51,.05,1.51-.63-.02-1.33-3.11-1.4-5.78-.26-3.78,1.64-4.91,5.13-5.27,9.51-.43,4.91,2.62,9.58,2.69,13.72-2.43,.55-5.11,.58-6.53,.74-5.13,.53-7.37,3.28-6.79,8.53-.02-.17-2.69,.02-2.91-.01-1.43-.21-2.53-.79-3.12-2.22s-.69-3.99-.51-5.51c1.67-14.05-.39-26.28-2.39-39.5-1.54-10.18-1.76-22.78,10.28-26.88,3.93-1.34,8.75-1.62,12.81-.72,4.7,.79,2.85-3.34,6.56-.31,3.37,2.75,10.21,14.57,11.97,18.51,4.52,10.14,7.39,20.63,7.45,31.6,.02,.29,.02,.6,.02,.89v.82c0,1.33-.02,2.67-.05,4l-.05,.05c-.14,2.99-.39,6.52-.92,9.03,0,0,.24,.22,.86,.22l.27,9.12Z"/>
            <path class="cls-3" d="M165.9,88.9c.05,.95,.05,1.9,.04,2.85-.03,2.77,.31,6.67-2.23,8.57-1.32,.98-1.69-.05-1.99-1.27s-.44-2.57-.55-3.86c-.04-.54-.08-1.08-.1-1.62l4.83-4.66Z"/>
            <path class="cls-3" d="M166.98,74.08c3.98-3.34,10.2-10.18,13.94-11.84l-1.54-2.12c-4.73,1.52-10.44,8.75-12.4,13.95Z"/>
            <path class="cls-1" d="M235.54,99.34c-5.57,16.42-16.65,25.6-31.99,31.03-2.2,.78-3.01,1.17-6.8,1.64l-.43-9.09c.41-.11,.98-.37,1.7-.94,.97-.81,1.84-1.69,2.62-2.62,4.6-5.6,5.8-13.28,5.43-20.28-.5-9.67-1.98-16-1.54-25.78,.28-6.44,1.67-11.2,2.65-14.66,.98,1.1,2.15,1.96,3.68,1.59,1.43-.36,2.04,.42,2.83,1.34,2.74,3.15,7.21,2.99,9.76-.37,.77-1.04,1.09-2.16,2.87-1.57,3.47,1.15,6.21-.47,8.63-2.81,0,0,1.29,2.75,1.77,4.2,4.23,12.91,3.21,25.46-1.18,38.31Z"/>
            <g>
              <path class="cls-2" d="M190.38,50.46c-.53,1.57-2.54,2.8-4.03,3.72-1.52,.94-3.87,2.96-6.44,5.44-3.84,3.73-8.15,8.54-10.85,12.43-3.14,3.92-7.36,4.75-11.25,1.53-2.98-2.44-6.61-4.73-10.24-6.7-7.1-3.85-14.25-6.53-16.64-6.8,1.8-3.59,4.58-6.44,8.19-7.82,6.36-2.45,13.64-1.93,17.78,6.57,1.52,3.13,2.36,7.35,2.82,10.76-.42,1.03-.25,1.96,.84,2.75,1.58,1.16,3.16,.72,4.52,.06,1.26-.62,2.13-2.27,1.05-3.82-.03-.01-.05-.03-.07-.05-.69-4.79-.87-7.96-.46-12.07,.8-7.71,8.58-12.03,15.63-10.3,3.36,.82,6.42,2.01,9.15,4.28Z"/>
              <path class="cls-1" d="M139.11,52.26c6.36-2.45,13.64-1.92,17.77,6.58,1.52,3.13,2.37,7.35,2.82,10.77,0,0,0,0,0,0,.07-.17,.15-.35,.25-.53,1.12-.96,4.07-1.8,6.08-.52-.69-4.79-.87-7.96-.45-12.09,.8-7.7,8.58-12.03,15.64-10.3,3.36,.82,6.42,2.02,9.15,4.28,.48-.82,.09-1.79-.58-2.95-3.93-6.85-6.96-12.43-10.35-16.34-.16-.19-.33-.36-.49-.54-.99,.16-2.36-.59-2.67-1.65-.92-1.59-5.02-4.04-7.74-4.56,0,.01,0,.03-.01,.04-.79,.16-2.16-.05-2.74-1.28,0,0,0-.01,0-.02-3.21-.48-6.86-.37-11.2,.25-4.94,.71-8.74,2.23-11.68,4.06,.05,.08,.11,.15,.16,.23-.14,1.35-1.36,2-2.15,2.12-.02-.04-.06-.08-.09-.13-2.42,1.26-5.76,5.07-6.11,6.94,.06,1.12-.98,2.29-1.98,2.46-.03-.03-.05-.06-.08-.08-.07,.06-.13,.11-.19,.13-3.25,7.38-2.13,12.96-3.16,19.45-.17,1.09,.63,1.43,1.56,1.51,1.8-3.59,4.58-6.44,8.2-7.83Z"/>
              <path class="cls-2" d="M176.88,22.25c-.46-1.66-.81-4.2-2.73-4.11-2.84,.13-5.36,5.25-5.59,6.27,2.71,.52,6.81,2.98,7.74,4.56,.98-2.13,1.16-4.63,.59-6.72Z"/>
              <path class="cls-9" d="M159.96,69.08c-.1,.18-.18,.36-.25,.53-.42,1.03-.26,1.95,.84,2.75,1.59,1.15,3.17,.72,4.52,.06,1.27-.62,2.14-2.27,1.05-3.82-.02-.01-.05-.02-.07-.04-2.01-1.28-4.96-.44-6.08,.52Z"/>
              <path class="cls-9" d="M168.55,24.45s0-.03,.01-.04c.23-1.02,2.75-6.13,5.59-6.27,1.92-.09,2.28,2.45,2.73,4.11,.58,2.09,.39,4.6-.59,6.72,.32,1.07,1.68,1.82,2.67,1.65,0,0,0,0,.01,0,1.92-3.86,1.37-11.46-1.9-14.5-1.29-1.21-2.95-1.51-4.6-.74-2.34,1.09-5.8,3.58-6.67,7.77,0,0,0,.01,0,.02,.58,1.23,1.95,1.43,2.74,1.28Z"/>
              <path class="cls-2" d="M132.72,25.32c-.35-.02-.62,.01-.84,.1-.27,.25-.47,.59-.61,1-.08,.64,0,1.6,.2,3.04,.29,2.15,1.64,5.5,3.28,7.18,.35-1.87,3.68-5.68,6.11-6.94-1.06-1.61-5.34-4.24-8.13-4.38Z"/>
              <path class="cls-9" d="M134.75,36.63c-1.63-1.68-2.98-5.02-3.28-7.18-.2-1.44-.28-2.4-.2-3.04,.07-.55,.26-.86,.61-1,.22-.09,.49-.12,.84-.1,2.8,.14,7.07,2.77,8.13,4.38,.03,.04,.06,.09,.09,.13,.79-.12,2.02-.77,2.15-2.12-.05-.08-.11-.15-.16-.23-2.31-3.49-7.34-4.92-10.96-5.45-2.66-.39-2.84,.99-3.4,2.66-1.41,4.19,1.07,11.28,4.13,14.32,.03,.03,.05,.06,.08,.08,.99-.17,2.04-1.34,1.98-2.46Z"/>
              <path class="cls-9" d="M142.86,56.76c-.31-1.95,1.15-2.91,2.66-3.14,1.95-.3,2.94,.98,3.23,2.73,.23,1.39-.8,2.65-2.44,2.97-1.79,.01-3.15-.69-3.45-2.56Z"/>
              <path class="cls-9" d="M171.26,53.07c-.31-1.95,1.15-2.91,2.66-3.14,1.95-.3,2.94,.98,3.23,2.73,.23,1.39-.8,2.65-2.44,2.97-1.79,.01-3.15-.69-3.45-2.56Z"/>
            </g>
            <g>
              <path class="cls-4" d="M130.91,73.2l4.66,5.04-14.34,13.21c-.11,.1-.24,.16-.38,.17l-4.51,.39c-.43,.04-.77-.34-.7-.76l.73-4.46c.02-.15,.09-.28,.2-.38l14.34-13.21Z"/>
              <path class="cls-4" d="M138.32,75.67l-1.85,1.71-4.66-5.04,1.85-1.71c.64-.59,1.66-.54,2.27,.12l2.44,2.64c.61,.66,.59,1.68-.05,2.28Z"/>
            </g>
            <path class="cls-8" d="M127.76,73.94h0c-4.84-1.79-9.34-.28-11.47,3.84-1.3,2.52-.31,5.61,2.21,6.91,.9,.46,2.12-.14,3.35-1.1,2.47-1.93,4.24-4.63,5.23-7.61l.68-2.05Z"/>
          </g>
          <rect class="cls-7" x="8.49" width="98.97" height="13.78" rx="4.26" ry="4.26"/>
          <g>
            <path class="cls-8" d="M162.26,91.84l1.31,11.36-.12-.53c.43,1.77,.42,3.51,.26,4.85-.35,2.54-1.19,6.44-1.58,8.84,0,0-1.03,5.69-1.03,5.69-.36,1.96-.68,3.93-1.02,5.9-.46,2.66-3,4.45-5.66,3.99-2.59-.45-4.35-2.88-4.02-5.46,.5-3.81,1.76-13.4,2.24-17.08,.17-1.54,.48-2.69,.24-3.8-.04-.14-.07-.29-.1-.43l-2.04-11.22-.07-.38c-1.13-7.92,10.36-9.64,11.59-1.72h0Z"/>
            <path class="cls-10" d="M155.26,124.54s2.66,.82,4.98,2.35c0,0-.16,2.58-1.19,3.21-.82,.5-3.79-5.55-3.79-5.55Z"/>
            <path class="cls-8" d="M147.16,124.24c1.8-.71,4-.73,5.71-.44,.39,.07,.78,.15,1.16,.27,2.74,.82,4.86,2.99,5.37,5.72,.11,.59,.15,1.24-.03,1.84-.57,1.88-2.73,2.2-4.46,2.25-2.09,.05-4.24,.17-6.31,.02-1.73-.12-3.53-.61-4.37-2.14-1.02-1.84-.65-4.34,.79-6.03,.57-.67,1.31-1.14,2.15-1.47Z"/>
            <path class="cls-1" d="M147.05,83.39c.47,5.6,1.04,10.43,2.33,15.62-.03-.08,.26,.04,.3,.07,.2,.14,.18,.48,.25,.71,.16,.54,.29,.99,1,.43,.29-.23,.51-.56,.78-.82,.43-.44,1.16-.68,1.68-.73,.78-.07,1.42,.22,1.89,.68,.2,.2,.42,.44,.77,.36,.26-.06,.52-.29,.74-.52,.82-.84,1.77-1.5,2.82-1.48,1.1,.02,3.04,1.12,4.19,.87,.91-.2,1.34-.87,1.56-1.78,.96-3.8,.8-7.72,.41-11.56"/>
          </g>
        </g>
      </g>
    </g>
  </g>
</svg>
