<?xml version="1.0" encoding="UTF-8"?><svg xmlns="http://www.w3.org/2000/svg" viewBox="0 0 464 261"><g style="isolation:isolate;"><g id="y"><g><g style="opacity:.4;"><rect width="464" height="261" style="fill:#fff;"/></g><g style="opacity:.5;"><rect width="464" height="178.21" style="fill:#f57f17;"/></g><g style="opacity:.4;"><rect x="293.95" y="48.39" width="26.67" height="9.06" rx="1.13" ry="1.13" style="fill:#f57f17;"/><path d="M319.48,57.95h-24.4c-.9,0-1.63-.73-1.63-1.63v-6.79c0-.9,.73-1.63,1.63-1.63h24.4c.9,0,1.63,.73,1.63,1.63v6.79c0,.9-.73,1.63-1.63,1.63Zm-24.4-9.06c-.35,0-.63,.28-.63,.63v6.79c0,.35,.28,.63,.63,.63h24.4c.35,0,.63-.28,.63-.63v-6.79c0-.35-.28-.63-.63-.63h-24.4Z" style="fill:#d84315;"/></g><g style="opacity:.4;"><rect x="307.28" y="39.34" width="26.67" height="9.06" rx="1.13" ry="1.13" style="fill:#f57f17;"/><path d="M332.82,48.89h-24.4c-.9,0-1.63-.73-1.63-1.63v-6.79c0-.9,.73-1.63,1.63-1.63h24.4c.9,0,1.63,.73,1.63,1.63v6.79c0,.9-.73,1.63-1.63,1.63Zm-24.4-9.06c-.35,0-.63,.28-.63,.63v6.79c0,.35,.28,.63,.63,.63h24.4c.35,0,.63-.28,.63-.63v-6.79c0-.35-.28-.63-.63-.63h-24.4Z" style="fill:#d84315;"/></g><g style="opacity:.4;"><rect x="422.52" y="102.23" width="26.67" height="9.06" rx="1.13" ry="1.13" style="fill:#f57f17;"/><path d="M448.05,111.79h-24.4c-.9,0-1.63-.73-1.63-1.63v-6.79c0-.9,.73-1.63,1.63-1.63h24.4c.9,0,1.63,.73,1.63,1.63v6.79c0,.9-.73,1.63-1.63,1.63Zm-24.4-9.06c-.35,0-.63,.28-.63,.63v6.79c0,.35,.28,.63,.63,.63h24.4c.35,0,.63-.28,.63-.63v-6.79c0-.35-.28-.63-.63-.63h-24.4Z" style="fill:#d84315;"/></g><g style="opacity:.4;"><rect x="185.8" y="89.13" width="26.67" height="9.06" rx="1.13" ry="1.13" style="fill:#f57f17;"/><path d="M211.33,98.69h-24.4c-.9,0-1.63-.73-1.63-1.63v-6.79c0-.9,.73-1.63,1.63-1.63h24.4c.9,0,1.63,.73,1.63,1.63v6.79c0,.9-.73,1.63-1.63,1.63Zm-24.4-9.06c-.35,0-.63,.28-.63,.63v6.79c0,.35,.28,.63,.63,.63h24.4c.35,0,.63-.28,.63-.63v-6.79c0-.35-.28-.63-.63-.63h-24.4Z" style="fill:#d84315;"/></g><g style="opacity:.4;"><rect x="208.27" y="117.44" width="26.67" height="9.06" rx="1.13" ry="1.13" style="fill:#f57f17;"/><path d="M233.8,127h-24.4c-.9,0-1.63-.73-1.63-1.63v-6.79c0-.9,.73-1.63,1.63-1.63h24.4c.9,0,1.63,.73,1.63,1.63v6.79c0,.9-.73,1.63-1.63,1.63Zm-24.4-9.06c-.35,0-.63,.28-.63,.63v6.79c0,.35,.28,.63,.63,.63h24.4c.35,0,.63-.28,.63-.63v-6.79c0-.35-.28-.63-.63-.63h-24.4Z" style="fill:#d84315;"/></g><g style="opacity:.4;"><rect x="53.31" y="135.23" width="26.67" height="9.06" rx="1.13" ry="1.13" style="fill:#f57f17;"/><path d="M78.84,144.78h-24.4c-.9,0-1.63-.73-1.63-1.63v-6.79c0-.9,.73-1.63,1.63-1.63h24.4c.9,0,1.63,.73,1.63,1.63v6.79c0,.9-.73,1.63-1.63,1.63Zm-24.4-9.06c-.35,0-.63,.28-.63,.63v6.79c0,.35,.28,.63,.63,.63h24.4c.35,0,.63-.28,.63-.63v-6.79c0-.35-.28-.63-.63-.63h-24.4Z" style="fill:#d84315;"/></g><g style="opacity:.8;"><rect y="178.21" width="464" height="82.79" style="fill:#462e3b;"/></g><g style="opacity:.6;"><g style="opacity:.6;"><rect x="456.37" y="177.69" width="2" height="83.84" transform="translate(-28.97 75.08) rotate(-9.1)" style="fill:#462e3b;"/></g><g style="opacity:.6;"><rect x="347.55" y="218.61" width="83.42" height="2" transform="translate(123.42 578.88) rotate(-82.93)" style="fill:#462e3b;"/></g><g style="opacity:.6;"><rect x="276.44" y="218.61" width="89.42" height="2" transform="translate(-3.54 433.94) rotate(-67.79)" style="fill:#462e3b;"/></g><g style="opacity:.6;"><rect x="202.69" y="218.61" width="100.71" height="2" transform="translate(-71.55 302.64) rotate(-55.3)" style="fill:#462e3b;"/></g><g style="opacity:.6;"><rect x="127.07" y="218.61" width="115.73" height="2" transform="translate(-101.38 198.35) rotate(-45.65)" style="fill:#462e3b;"/></g><g style="opacity:.6;"><rect x="50.21" y="218.61" width="133.24" height="2" transform="translate(-111.16 120.13) rotate(-38.42)" style="fill:#462e3b;"/></g><g style="opacity:.6;"><rect x="-12" y="214.04" width="135.56" height="2" transform="translate(-107.81 64.74) rotate(-32.88)" style="fill:#462e3b;"/></g><g style="opacity:.6;"><rect x="-4.73" y="192.81" width="65.06" height="2" transform="translate(-89.5 37.04) rotate(-28.64)" style="fill:#462e3b;"/></g></g><rect y="172.94" width="464" height="5.28" style="fill:#462e3b;"/><g><path d="M20.78,39.76c.43,1.34,1.54,2.22,2.8,2.22s2.32-.61,2.32-1.97c0-2.87-7.28-2.85-7.28-8.22,0-2.72,1.99-4.81,4.86-4.81s4.51,1.59,5.37,3.81l-2.85,1.76c-.43-1.46-1.18-2.42-2.52-2.42-.93,0-1.59,.58-1.59,1.56,0,3.13,7.28,2.5,7.28,8.32,0,3.13-2.32,5.12-5.59,5.12-2.72,0-4.71-1.41-5.6-3.48l2.8-1.89Z" style="fill:#462e3b;"/><rect x="32.1" y="27.23" width="3.28" height="17.64" style="fill:#462e3b;"/><path d="M49.95,44.88v-10.86c0-.5,.02-1.21,.02-1.21h-.05s-.3,.6-.55,1.01l-3.02,5.09h-.05l-2.97-5.04c-.23-.4-.61-1.11-.61-1.11h-.05s.02,.73,.02,1.26v10.86h-3.28V27.23h3.63l2.67,4.74c.23,.4,.58,1.11,.58,1.11h.05s.38-.71,.61-1.14l2.65-4.71h3.63v17.64h-3.28Z" style="fill:#462e3b;"/><path d="M57.26,44.88V27.23h4.89c4.01,0,5.67,3.23,5.67,6.3s-1.87,6.43-6.15,6.43h-1.13v4.92h-3.28Zm4.51-8.07c1.87,0,2.8-1.51,2.8-3.23s-.96-3.23-2.82-3.23h-1.21v6.45h1.24Z" style="fill:#462e3b;"/><polygon points="70.53 44.88 70.53 27.23 73.8 27.23 73.8 41.73 78.94 41.73 78.94 44.88 70.53 44.88" style="fill:#462e3b;"/><path d="M87.31,44.88h-3.3v-4.97l-4.26-12.68h3.68l1.76,6.33c.25,.93,.45,2.22,.45,2.22h.05c.02-.25,.2-1.29,.45-2.22l1.74-6.33h3.7l-4.28,12.83v4.81Z" style="fill:#462e3b;"/><path d="M101.64,39.76c.43,1.34,1.54,2.22,2.8,2.22s2.32-.61,2.32-1.97c0-2.87-7.28-2.85-7.28-8.22,0-2.72,1.99-4.81,4.86-4.81s4.51,1.59,5.37,3.81l-2.85,1.76c-.43-1.46-1.18-2.42-2.52-2.42-.93,0-1.59,.58-1.59,1.56,0,3.13,7.28,2.5,7.28,8.32,0,3.13-2.32,5.12-5.6,5.12-2.72,0-4.71-1.41-5.6-3.48l2.8-1.89Z" style="fill:#462e3b;"/><path d="M123.39,41.65c-.88,2.07-2.52,3.48-5.24,3.48-4.86,0-6.2-4.49-6.2-9.07s1.34-9.07,6.2-9.07c2.87,0,4.51,1.59,5.37,3.81l-2.85,1.76c-.43-1.46-1.18-2.42-2.52-2.42-2.24,0-2.92,2.75-2.92,5.92s.68,5.92,2.92,5.92c1.26,0,2.02-.88,2.44-2.22l2.8,1.89Z" style="fill:#462e3b;"/><polygon points="133.88 44.88 133.88 38.25 129.34 38.25 129.34 44.88 126.07 44.88 126.07 27.23 129.34 27.23 129.34 35.1 133.88 35.1 133.88 27.23 137.16 27.23 137.16 44.88 133.88 44.88" style="fill:#462e3b;"/><polygon points="141.19 44.88 141.19 27.23 150.57 27.23 150.57 30.38 144.47 30.38 144.47 34.9 149.61 34.9 149.61 38.05 144.47 38.05 144.47 41.73 150.57 41.73 150.57 44.88 141.19 44.88" style="fill:#462e3b;"/><path d="M154.38,44.88V27.23h4.56c4.86,0,6.45,4.24,6.45,8.82s-1.59,8.82-6.45,8.82h-4.56Zm4.56-3.15c2.24,0,3.18-2.5,3.18-5.67s-.93-5.67-3.18-5.67h-1.29v11.34h1.29Z" style="fill:#462e3b;"/><path d="M176.13,27.23h3.28v11.77c0,4.26-2.29,6.12-5.37,6.12s-5.47-1.87-5.47-6.15v-11.75h3.28v11.92c0,1.74,.63,2.82,2.14,2.82,1.59,0,2.14-1.13,2.14-2.85v-11.9Z" style="fill:#462e3b;"/><polygon points="183.45 44.88 183.45 27.23 186.72 27.23 186.72 41.73 191.86 41.73 191.86 44.88 183.45 44.88" style="fill:#462e3b;"/><polygon points="194.39 44.88 194.39 27.23 203.76 27.23 203.76 30.38 197.67 30.38 197.67 34.9 202.81 34.9 202.81 38.05 197.67 38.05 197.67 41.73 203.76 41.73 203.76 44.88 194.39 44.88" style="fill:#462e3b;"/><path d="M26.57,69.37l-.27-2.08h-3.45l-.21,2.08h-4.65l4.01-18.71h5.24l4.01,18.71h-4.68Zm-1.63-11.6c-.16-1.07-.29-2.59-.29-2.59h-.05s-.16,1.52-.32,2.59l-.75,5.61h2.17l-.75-5.61Z" style="fill:#462e3b;"/><path d="M35.33,69.37v-18.71h5.56c4.28,0,6.04,3.69,6.04,6.66,0,3.58-2,6.84-6.23,6.84h-.94v5.21h-4.44Zm5.27-9.2c1.39,0,1.92-1.36,1.92-2.78,0-1.52-.56-2.78-1.95-2.78h-.8v5.56h.83Z" style="fill:#462e3b;"/><path d="M51.21,69.37v-18.71h5.56c4.28,0,6.04,3.69,6.04,6.66,0,3.58-2.01,6.84-6.23,6.84h-.94v5.21h-4.44Zm5.27-9.2c1.39,0,1.92-1.36,1.92-2.78,0-1.52-.56-2.78-1.95-2.78h-.8v5.56h.83Z" style="fill:#462e3b;"/><path d="M66.28,60.01c0-4.97,1.15-9.73,6.34-9.73s6.34,4.76,6.34,9.73-1.12,9.73-6.34,9.73-6.34-4.76-6.34-9.73m8.23,0c0-3.42-.24-5.45-1.9-5.45s-1.9,2.03-1.9,5.45,.29,5.45,1.9,5.45,1.9-2.03,1.9-5.45" style="fill:#462e3b;"/><rect x="83.5" y="50.66" width="4.44" height="18.71" style="fill:#462e3b;"/><path d="M101.81,69.37l-3.21-7.16c-.61-1.36-1.15-3.07-1.15-3.07h-.05s.05,1.79,.05,3.31v6.92h-4.17v-18.71h4.54l2.91,6.42c.61,1.34,1.28,3.21,1.28,3.21h.05s-.05-1.92-.05-3.5v-6.12h4.2v18.71h-4.41Z" style="fill:#462e3b;"/><polygon points="113.51 69.37 113.51 54.93 110.76 54.93 110.76 50.66 120.73 50.66 120.73 54.93 117.98 54.93 117.98 69.37 113.51 69.37" style="fill:#462e3b;"/><path d="M135.94,69.37v-9.52c0-1.18,.08-2.25,.08-2.25h-.05s-.4,.8-1.12,1.79l-2.09,2.86h-.11l-2.09-2.86c-.72-.99-1.1-1.79-1.1-1.79h-.05s.03,1.1,.03,2.25v9.52h-4.17v-18.71h4.44l1.66,2.38c.8,1.15,1.31,2.06,1.31,2.06h.05s.56-.91,1.34-2.06l1.63-2.38h4.41v18.71h-4.17Z" style="fill:#462e3b;"/><polygon points="145.46 69.37 145.46 50.66 155.85 50.66 155.85 54.72 149.89 54.72 149.89 58.3 154.87 58.3 154.87 62.2 149.89 62.2 149.89 65.3 155.85 65.3 155.85 69.37 145.46 69.37" style="fill:#462e3b;"/><path d="M169.46,69.37l-3.21-7.16c-.61-1.36-1.15-3.07-1.15-3.07h-.05s.05,1.79,.05,3.31v6.92h-4.17v-18.71h4.54l2.91,6.42c.61,1.34,1.28,3.21,1.28,3.21h.05s-.05-1.92-.05-3.5v-6.12h4.2v18.71h-4.41Z" style="fill:#462e3b;"/><polygon points="181.17 69.37 181.17 54.93 178.41 54.93 178.41 50.66 188.38 50.66 188.38 54.93 185.63 54.93 185.63 69.37 181.17 69.37" style="fill:#462e3b;"/><path d="M195.65,63.62c.45,1.15,1.44,1.92,2.54,1.92,.91,0,1.39-.53,1.39-1.2,0-2.57-7.27-3.15-7.27-8.63,0-3.07,2.3-5.43,5.72-5.43,2.65,0,4.65,1.42,5.64,4.04l-3.53,2.09c-.29-1.23-1.15-2.19-2.19-2.19-.78,0-1.28,.54-1.28,1.23,0,2.65,7.35,2.73,7.35,8.69,0,3.5-2.57,5.61-5.99,5.61-3.02,0-4.97-1.66-6.09-3.88l3.72-2.25Z" style="fill:#462e3b;"/><rect x="18" y="16.02" width="186.1" height="5.25" style="fill:#462e3b;"/><rect x="18" y="75.24" width="186.1" height="5.25" style="fill:#462e3b;"/></g><polygon points="135.95 99.31 135.7 100.85 145.1 102.24 145.35 100.68 135.95 99.31" style="fill:#a1cf70;"/><polygon points="135.37 102.9 135.13 104.44 144.53 105.84 144.78 104.27 135.37 102.9" style="fill:#a1cf70;"/><g><g><path d="M298.68,235.18c-.18,.24-.39,.45-.64,.61-.56,.36-1.25,.47-1.91,.53-1.19,.12-2.39,.14-3.58,.07-.57-.03-1.15-.1-1.72-.16-.44-.05-.94-.12-1.28-.45-.19-.18-.3-.43-.39-.68-.23-.68-.36-1.52-.21-2.23,.15-.77,.66-1.42,1.06-2.1,.91-1.56,1.33-3.4,2.42-4.83,.5-.65,.67,.39,.91,.64,.71-.3,1.5-.55,2.15-.98,.61-.4,1.3-.57,2.03-.4,.26,.06,.51,.17,.69,.35,.2,.2,.3,.48,.38,.75,.34,1.17,.46,2.39,.58,3.6,.04,.42,.08,.85,.12,1.27,.08,.83,.16,1.68,.01,2.5-.09,.53-.3,1.06-.61,1.49Z" style="fill:#462e3b;"/><path d="M297.95,224.96c.1-.54,.32-1.09,.33-1.62,.01-.39-.09-.75-.15-1.13-.17-.91-.35-2.05-.3-3.13h-5.44c.55,2.52,.34,5.44-.84,8.03-.5,1.1-.97,2.5-.7,3.55,.19,.73,.81,1.21,1.51,1.41,.85,.25,1.72,.04,2.56-.2,.64-.18,1.26-.42,1.88-.67,.57-.23,.94-.4,1.23-.97,.36-.71,.3-1.49,.23-2.22-.1-1.02-.2-2.03-.29-3.05Z" style="fill:#f5b1a5;"/></g><path d="M297.92,221.06c-.27-6.21,1.76-11.73,2.76-17.8s1.25-12.47-.54-18.46c-.32-1.06-.75-2.18-1.67-2.79-.66-.45-1.49-.57-2.28-.64-2.36-.22-4.75-.1-7.07,.36-.36,.07-.75,.16-.99,.44-.22,.26-.27,.63-.3,.97-.87,9.66,1.81,19.88,3.58,29.35,.85,4.55,1.7,9.24,.72,13.77" style="fill:#f5b1a5;"/></g><path d="M301.31,191.05c-4.06,3.31-8.41,4.77-13.04,4.38l-.25-2.3,13.3-2.08Z" style="fill:#ee9082;"/><path d="M268.03,149.61c.14,.87,.14,1.8,.12,2.62-.05,1.52-.91,3.09-1.56,4.44-.3,.62-.6,1.25-.9,1.87-.46,.95-.92,1.92-1.16,2.94-.17,.72-.17,1.47-.18,2.2-.01,.69-.33,1.41-.58,2.05-.19,.49-.43,.99-.85,1.31-.48,.36-1.14,.4-1.72,.24s-1.08-.51-1.54-.9c-.81-.67-1.44-1.59-1.96-2.49-.88-1.53-.28-3.2,.17-4.77,.5-1.73,1.16-3.41,1.71-5.12,.03-.09,.06-.17,.08-.26,.5-1.6,.49-3.41,1.26-4.91,.54-1.06,1.39-1.71,2.44-2.24,1.56-.8,3.62-.01,4.29,1.57,.19,.45,.32,.95,.4,1.46Z" style="fill:#462e3b;"/><path d="M263.68,179.71c1.14,2.58,2.63,5.81,3.01,5.7,4.16-1.11,8.21-2.6,12.22-4.16-1.38-3.85-3.3-7.53-5.51-11.02-1.21-1.91-2.55-3.79-3.73-5.7-1.12-1.8-2.14-4.4-2.73-6.38-.47-1.58-.15-4.94-2.29-5.23-1.44-.19-2.62,.27-2.83,1.61-.26,1.71-.5,3.72-.56,5.44-.07,1.86-.23,3.71-.33,5.57-.2,3.74-.11,7.57,1.43,11.1,.12,.29,.66,1.57,1.32,3.07Z" style="fill:#f5b1a5;"/><path d="M280.33,191.89s3.85,.85,12.49,1.79l-3.88-40.81-9.83,8.35,1.23,30.66Z" style="fill:#58424e;"/><path d="M302.49,190.09c.47-6.36,.95-12.73,1.42-19.09,.14-1.93,.29-3.86,.43-5.79,.28-3.81,.57-7.63,.85-11.44,.42-5.64,1.19-11.61,.56-17.26-.53-4.77-1.23-9.95-3.47-14.29-.44-.85-.95-1.7-1.77-2.19-1.19-.71-2.69-.47-4.05-.21-3.1,.59-6.21,1.18-9.31,1.78-.27,2.6-.54,5.21-.81,7.81-.42,4.06-.84,8.13-.86,12.22-.04,6.64,.97,13.23,1.41,19.86,.63,9.54-1.25,19.78-2.33,30.42,6.4,2.65,13.06,2.62,17.92-1.8Z" style="fill:#58424e;"/><path d="M266.76,170.48c-1.38,.85-2.9,1.75-4.51,1.82-.68,.03-1.38-.09-2.04,.23-.06,4.3,2.25,8.02,4.86,12.18" style="fill:#462e3b;"/><path d="M280.33,191.89c-7.67-.72-11.55-2.58-15.68-7.69,.5-6.36,.72-9.05,1.22-15.41,.15-1.93,.31-3.86,.46-5.79,.3-3.81,.61-7.62,.91-11.44,.45-5.63,.6-11.66,2.08-17.14,1.25-4.63,2.74-9.64,5.61-13.59,.56-.77,1.2-1.54,2.08-1.89,1.28-.52,2.73-.06,4.04,.41,2.98,1.06,5.95,2.12,8.93,3.18-.13,2.61-.26,5.23-.4,7.84-.21,4.08-.41,8.16-1.02,12.2-1.58,16.56-4.3,33-8.24,49.31Z" style="fill:#58424e;"/><path d="M288.61,121.93c-.15,.87-.31,1.74-.46,2.61,2.45,2.02,5.19,2.3,8.36,2.09,3.17-.2,6.21-1.31,9.05-2.72-.27-.66-.54-1.32-.82-1.98h-16.14Z" style="fill:#462e3b;"/><path d="M273.43,121.93c-.02,.52-.11,1.03-.3,1.53-.66,1.67-1.86,4.64-1.86,4.64,3.09,.7,6.14,1.01,9.26,.46,3.12-.55,5.73-1.48,7.62-4.02-.38-.87-.76-1.74-1.14-2.61h-13.58Z" style="fill:#462e3b;"/><path d="M277.92,101.22l10.5,21.9,11.57-23.31-.6-18.55c-7.3,1.06-14.57,1.07-21.82,0l.36,19.95Z" style="fill:#fff;"/><path d="M288.41,123.12c2.19,2.29,4.88,2.9,8.05,3.08,3.17,.18,6.32-.56,9.31-1.62-.42-1.51-.84-3.02-1.26-4.54-.68-2.45-1.36-4.91-2.05-7.36-.3-1.08-.73-2.98-.83-4.09-.09-.95-.03-1.9,.04-2.84,.28-3.88,.89-6.92,1.54-10.76,.35-2.08,.54-4.19,.45-6.3-.07-1.56-.37-3.1-.75-4.61-.31-1.22-.52-2.57-1.97-2.81l-5.09,.38c1.24,13.45-3.21,27.47-7.44,41.48Z" style="fill:#f2692c;"/><path d="M288.41,123.12c-2.19,2.29-4.88,2.9-8.05,3.08-3.17,.18-6.32-.56-9.31-1.62,.42-1.51,.84-3.02,1.26-4.54,.68-2.45,1.36-4.91,2.05-7.36,.3-1.08,.73-2.98,.83-4.09,.09-.95,.03-1.9-.04-2.84-.28-3.88-.89-6.92-1.54-10.76-.35-2.08-.54-4.19-.45-6.3,.07-1.56,.37-3.1,.75-4.61,.31-1.22,.52-2.57,1.97-2.81l5.09,.38c-1.24,13.45,3.21,27.47,7.44,41.48Z" style="fill:#f2692c;"/><path d="M261.36,113.74c-1.26-.86-2.5-1.79-3.42-3.02,.11-.45,.24-.87,.35-1.21,.72-2.16,2.13-3.98,3.34-5.88,1.6-2.51,3.38-5.04,4.49-7.81,1.17-2.91,1.63-6.07,3.16-8.81,1.44-2.58,1.97-3.73,4.53-5.36,1.05-.66,4.95-.59,7.29,0l-1.76,11.28c-2.02,4.23-4.55,9.6-6.94,13.64-1.54,2.6-3.19,5.2-5.47,7.15-.73,.63-1.78,1.35-2.94,1.91-.91-.59-1.79-1.3-2.64-1.89Z" style="fill:#f2692c;"/><path d="M250.77,83.26c-1.29,.12-2.28,.28-2.98,1.37-.35,.54,.54,2.74,.65,3.01,.35,.86,.72,1.97,1.54,2.49,.51,.33,1.15,.37,1.76,.41" style="fill:#f3a699;"/><path d="M257.17,89.2c.22-.06,.45-.12,.68-.18,.11-.03,.23-.06,.34-.09,.1-.03,.21-.06,.3-.12,.1-.07,.15-.18,.21-.28,.35-.67,.69-1.33,1.04-1.99,.04-.07,.07-.15,.09-.23,.02-.1,0-.2-.02-.3-.15-.69-.42-1.37-.75-2.01-.12-.24-.26-.47-.39-.69-.67,1.89-1.39,3.66-1.14,4.94l-.35,.97Z" style="fill:#f3a699;"/><path d="M250.28,90.77c.65,2.29,1.2,2.83,1.68,4.76,.04,.14,.52-.21,.61-.11,.1,.11,.25,.15,.39,.17,1.82,.35,3.66,.51,5.51,.47-.71-1.35-1.3-2.47-1.09-4.22" style="fill:#f5b1a5;"/><path d="M267.78,109.53c.05-.88,.1-1.8-.25-2.61-.14-.33-.34-.63-.54-.92-1.38-2.04-2.68-4.29-4.32-6.14-.82-.92-1.63-1.85-2.42-2.8-.39-.48-.78-.96-1.17-1.44-.12-.15-.98-1.42-1.11-1.39,0,0-6.47,1.26-6.48,1.26-.25,.06,2.14,7.5,2.33,8.07,1.34,4.02,4.34,10.36,8.72,11.84,.71,.24,1.68,.51,2.26-.07,.03-.03,.06-.06,.08-.08,1.12-1.14,.87-1.23,1.69-2.81" style="fill:#f2692c;"/><path d="M315.6,113.74c1.26-.86,2.5-1.79,3.42-3.02-.11-.45-.24-.87-.35-1.21-.72-2.16-2.13-3.98-3.34-5.88-1.6-2.51-3.38-5.04-4.49-7.81-1.17-2.91-1.63-6.07-3.16-8.81-1.44-2.58-1.97-3.73-4.53-5.36-1.05-.66-4.95-.59-7.29,0l1.76,11.28c2.02,4.23,4.55,9.6,6.94,13.64,1.54,2.6,3.19,5.2,5.47,7.15,.73,.63,1.78,1.35,2.94,1.91,.91-.59,1.79-1.3,2.64-1.89Z" style="fill:#f2692c;"/><path d="M325.9,84.17c1.16,.11,2.05,.25,2.68,1.23,.31,.49-.49,2.46-.59,2.71-.31,.77-.65,1.77-1.38,2.24-.46,.29-1.03,.33-1.58,.37" style="fill:#f3a699;"/><path d="M320.13,89.52c-.2-.05-.4-.11-.61-.16-.1-.03-.2-.06-.31-.08-.09-.02-.19-.05-.27-.11-.09-.07-.14-.16-.19-.25-.31-.6-.62-1.2-.94-1.8-.03-.07-.07-.14-.08-.21-.02-.09,0-.18,.02-.27,.13-.62,.37-1.23,.67-1.81,.11-.22,.23-.43,.35-.62,.6,1.7,1.25,3.29,1.03,4.45l.31,.87Z" style="fill:#f3a699;"/><g><path d="M142.41,83.5c-.06,0-.12,0-.19-.01-.87-.1-1.56-.92-1.94-2.29-.33-1.21-.41-2.76-.22-4.36h0c.37-3.05,1.78-6.18,3.67-5.95,1.89,.23,2.52,3.6,2.16,6.65-.19,1.61-.64,3.09-1.25,4.19-.64,1.15-1.43,1.77-2.23,1.77Zm-1.25-6.53c-.18,1.47-.11,2.86,.19,3.94,.24,.87,.63,1.44,1,1.48,.38,.04,.89-.42,1.33-1.2,.54-.97,.94-2.31,1.11-3.78,.38-3.18-.45-5.33-1.19-5.42-.02,0-.03,0-.05,0-.75,0-2.02,1.88-2.39,4.99h0Z" style="fill:#80deea;"/><path d="M155.91,85.47c-.06,0-.12,0-.19-.01-1.89-.23-2.52-3.59-2.16-6.65h0c.37-3.05,1.77-6.18,3.67-5.95,1.89,.23,2.52,3.6,2.16,6.65-.19,1.61-.64,3.09-1.25,4.19-.64,1.15-1.43,1.77-2.23,1.77Zm-1.25-6.53h0c-.38,3.18,.45,5.33,1.19,5.42,.38,.04,.89-.42,1.33-1.2,.54-.97,.94-2.31,1.11-3.78,.38-3.18-.45-5.33-1.19-5.42-.02,0-.03,0-.05,0-.75,0-2.02,1.88-2.39,4.99Z" style="fill:#80deea;"/><path d="M169.4,86.73c-.06,0-.12,0-.19-.01-.87-.1-1.56-.92-1.94-2.29-.33-1.21-.41-2.76-.22-4.36h0c.19-1.61,.64-3.09,1.25-4.19,.69-1.24,1.55-1.87,2.42-1.76,1.89,.23,2.52,3.59,2.16,6.65-.19,1.61-.64,3.09-1.25,4.19-.64,1.15-1.43,1.77-2.24,1.77Zm1.14-11.52c-.37,0-.85,.45-1.27,1.21-.54,.97-.94,2.31-1.11,3.78h0c-.18,1.47-.11,2.86,.19,3.94,.24,.87,.63,1.44,1,1.48,.38,.04,.89-.42,1.33-1.2,.54-.97,.94-2.31,1.11-3.78,.38-3.18-.45-5.33-1.19-5.42-.02,0-.03,0-.05,0Z" style="fill:#80deea;"/><path d="M182.52,89c-.06,0-.13,0-.19-.01-.87-.1-1.56-.92-1.94-2.29-.33-1.21-.41-2.76-.22-4.36h0c.19-1.61,.64-3.09,1.25-4.19,.69-1.24,1.56-1.87,2.42-1.76,1.89,.23,2.52,3.59,2.16,6.65-.35,2.95-1.68,5.96-3.47,5.96Zm1.13-11.52c-.37,0-.85,.45-1.27,1.21-.54,.97-.94,2.31-1.11,3.78h0c-.18,1.47-.11,2.86,.19,3.94,.24,.87,.63,1.44,1,1.48,.76,.08,2.06-1.81,2.44-4.98,.38-3.18-.45-5.33-1.19-5.42-.02,0-.03,0-.05,0Z" style="fill:#80deea;"/></g><g><path d="M434.55,83.5c-.8,0-1.59-.62-2.23-1.77-.61-1.09-1.05-2.58-1.25-4.19-.37-3.05,.26-6.42,2.16-6.65,.87-.1,1.73,.52,2.42,1.76,.61,1.09,1.05,2.58,1.25,4.19,.19,1.61,.11,3.16-.22,4.36-.38,1.37-1.07,2.18-1.94,2.29-.06,0-.12,.01-.19,.01Zm-1.14-11.52s-.03,0-.05,0c-.74,.09-1.57,2.24-1.19,5.42,.18,1.47,.57,2.81,1.11,3.78,.44,.79,.95,1.25,1.33,1.2,.38-.05,.76-.61,1-1.48,.3-1.07,.36-2.47,.19-3.94h0c-.18-1.47-.57-2.81-1.11-3.78-.42-.75-.9-1.21-1.27-1.21Z" style="fill:#80deea;"/><path d="M421.05,85.47c-1.79,0-3.12-3.01-3.47-5.96-.37-3.05,.26-6.42,2.16-6.65,1.9-.23,3.3,2.9,3.67,5.95,.19,1.61,.11,3.16-.22,4.36-.38,1.37-1.07,2.18-1.94,2.29-.07,0-.13,.01-.19,.01Zm-1.14-11.52s-.03,0-.05,0c-.74,.09-1.57,2.24-1.19,5.42s1.7,5.07,2.44,4.98c.38-.05,.76-.61,1-1.48,.3-1.07,.36-2.47,.19-3.94-.37-3.1-1.64-4.99-2.39-4.99Z" style="fill:#80deea;"/><path d="M407.56,86.73c-.8,0-1.59-.62-2.23-1.77-.61-1.09-1.05-2.58-1.25-4.19-.37-3.05,.26-6.42,2.16-6.65,.86-.1,1.73,.52,2.42,1.76,.61,1.09,1.05,2.58,1.25,4.19,.19,1.61,.11,3.16-.22,4.36-.38,1.37-1.07,2.18-1.94,2.29-.06,0-.12,.01-.19,.01Zm-1.14-11.52s-.03,0-.05,0c-.74,.09-1.57,2.24-1.19,5.42,.18,1.47,.57,2.81,1.11,3.78,.44,.79,.94,1.25,1.33,1.2,.38-.05,.76-.61,1-1.48,.3-1.07,.36-2.47,.19-3.94h0c-.18-1.47-.57-2.81-1.11-3.78-.42-.75-.9-1.21-1.27-1.21Z" style="fill:#80deea;"/><path d="M394.45,89c-.8,0-1.59-.62-2.23-1.77-.61-1.09-1.05-2.58-1.25-4.19-.19-1.61-.11-3.16,.22-4.36,.38-1.37,1.07-2.18,1.94-2.29,.87-.1,1.73,.52,2.42,1.76,.61,1.09,1.05,2.58,1.25,4.19h0c.37,3.05-.26,6.42-2.16,6.65-.06,0-.12,.01-.19,.01Zm-1.14-11.52s-.03,0-.05,0c-.38,.05-.76,.61-1,1.48-.3,1.07-.36,2.47-.19,3.94,.18,1.47,.57,2.81,1.11,3.78,.44,.79,.95,1.25,1.33,1.2,.74-.09,1.57-2.24,1.19-5.42h0c-.18-1.47-.57-2.81-1.11-3.78-.42-.75-.9-1.21-1.27-1.21Z" style="fill:#80deea;"/></g><path d="M288.2,87.86h-.11c-50.35,0-101.35-4.8-151.59-14.25l.15-.81c50.19,9.44,101.14,14.23,151.44,14.24h.11c50.34,0,101.44-4.79,151.89-14.24l.15,.81c-50.5,9.46-101.65,14.25-152.04,14.25Z" style="fill:#58424e;"/><path d="M253.51,92.46c.94,0,1.84,.13,2.77-.05,.29-.06,.64-.06,.87-.28,.56-.54,.82-1.27,.77-2.04-.02-.33-.09-.66-.17-.99-.48-1.92,.51-3.8,.9-5.64,.01-.07,.03-.15,0-.22-.03-.08-.11-.12-.19-.15-1.01-.47-2.17-.73-3.23-1.06-.92-.28-1.85-.42-2.81-.49-.73-.05-1.46-.08-2.18,.05-.47,.09-.94,.24-1.35,.49s-.45,.4-.49,.85c-.05,.54-.03,1.19-.03,1.73,0,1.44,1.48,5.56,2.19,6.94l2.97,.85Z" style="fill:#f5b1a5;"/><path d="M323.43,92.46c-.85,0-1.66,.12-2.5-.04-.26-.05-.58-.06-.78-.26-.5-.49-.74-1.14-.69-1.84,.02-.3,.08-.6,.16-.89,.43-1.73-.46-3.42-.81-5.07-.01-.06-.03-.13,0-.19,.03-.07,.1-.11,.17-.14,.91-.42,1.95-.66,2.91-.95,.83-.25,1.67-.38,2.53-.44,.65-.05,1.32-.07,1.96,.05,.43,.08,.85,.22,1.22,.44s.41,.36,.44,.76c.04,.48,.03,1.07,.03,1.55,0,1.29-1.33,5.01-1.97,6.25l-2.67,.77Z" style="fill:#f5b1a5;"/><path d="M287.83,49.1c1.62-.04,3.25,.18,4.8,.65,1.67,.5,3.09,1.64,4.15,3,1.01,1.31,2.21,3.29,1.85,5.02-.14,.65-.29,1.3-.4,1.95-.3,1.7,.09,3.44,.11,5.17,0,.67-.03,1.35,.02,2.02,.08,.88,.55,1.68,.6,2.53s.17,1.73,.39,2.58c.44,1.7,1.25,3.31,2.45,4.61-1.01,.93-2.38,1.47-3.76,1.46-1.14,0-2.31-.36-3.4-.03-.46,.14-.87,.39-1.32,.54s-.97,.21-1.38-.03" style="fill:#58424e;"/><path d="M289,49.1c-1.62-.04-3.25,.18-4.8,.65-.83,.25-1.65,.58-2.33,1.11-.87,.69-1.45,1.66-2.06,2.58-.99,1.49-2.13,2.89-3.38,4.16-.4,.41-.83,.84-.95,1.4-.13,.63,.17,1.25,.44,1.83,1.18,2.54,1.98,5.3,1.95,8.1s-.95,5.65-2.86,7.7c1.01,.93,2.38,1.47,3.76,1.46,1.14,0,2.31-.36,3.4-.03,.46,.14,.87,.39,1.32,.54s.97,.21,1.38-.03" style="fill:#58424e;"/><path d="M298.05,73.69c.08,.84,.17,1.67,.28,2.5-.1-.26-.28-.49-.52-.65,.05,.6,.1,1.19,.15,1.79-.18-.16-.45-.12-.66,0s-.38,.28-.58,.39c-.61,.31-1.41,.14-2.06,.34-.46,.14-.87,.39-1.32,.54-.45,.16-.97,.21-1.38-.03h-7.06c-.41,.25-.93,.19-1.38,.03-.71-.25-1.3-.61-2.06-.66-.26-.02-2.33-.17-2.34-.4-.03-.49-.05-.99-.08-1.48-.19,.08-.33,.29-.32,.5,.36-2.03,.5-4.09,.73-6.14,.12-1.04,.25-2.08,.45-3.11s.5-1.34,1.47-1.77c1-.44,2.02-.8,3.07-1.08,.27-.07,.59-.13,.81,.04,.13,.1,.2,.27,.28,.42,.34,.62,1.03,.97,1.71,1.16,.68,.18,1.4,.25,2.06,.5,.7,.27,1.34,.73,2.09,.78,.7,.05,1.39-.28,2.08-.18,.59,.09,1.1,.48,1.68,.58,.76,.13,1.5,.09,2.08,.68,.49,.49,.51,.96,.55,1.62,.07,1.21,.16,2.42,.28,3.62Z" style="fill:#462e3b;"/><path d="M284.22,81.34l.41-4.96h7.56l.41,4.97c.17,2.1-1.2,4.07-3.26,4.51-.23,.05-.46,.08-.68,.1-2.57,.19-4.66-2.06-4.45-4.62Z" style="fill:#f5b1a5;"/><path d="M286.22,78.49s2.97,1.41,6.22,1.17l-.2-2.41-6.02,1.24Z" style="fill:#ee9082;"/><path d="M326.34,90.94c-.59,2.06-1.19,3.31-1.62,5.05l-5.76-.28c.64-1.21,1.17-2.22,.98-3.8" style="fill:#f5b1a5;"/><g><g><circle cx="288.47" cy="59.44" r="9.74" style="fill:#f5b1a5;"/><g><path d="M279.2,64.29c-.21-.21-.47-.47-.74-.59s-.61-.13-.82,.05c-.39,.34-.48,1.14-.54,1.62-.15,1.21,0,3.02,.97,3.89,.65,.59,1.41,.74,1.94-.04" style="fill:#f5b1a5;"/><path d="M279,65.66c.08,.19,.13,.39,.16,.59-.21,.05-.34,.27-.35,.48s.08,.42,.17,.6,.21,.37,.27,.57c.03,.12,.04,.26-.03,.36-.09,.13-.27,.16-.41,.11s-.26-.16-.36-.28c-.34-.4-.56-.89-.64-1.4-.04-.24,.02-.46,.03-.7,.01-.32,.03-.63,0-.95-.01-.12,0-.25,.09-.33,.08-.07,.19-.07,.29-.04s.17,.1,.25,.17c.23,.23,.41,.5,.53,.8Z" style="fill:#ee9082;"/></g><path d="M298.2,59.44l-.84,8.61c-.38,3.9-2.46,7.44-5.68,9.67l-.7,.48c-.74,.51-1.62,.79-2.52,.79h0c-.9,0-1.78-.27-2.52-.79l-.7-.48c-3.22-2.23-5.3-5.77-5.68-9.67l-.84-8.61h19.47Z" style="fill:#f5b1a5;"/><ellipse cx="284.68" cy="66.2" rx=".95" ry="1.27" style="fill:#462e3b;"/><ellipse cx="292.43" cy="66.2" rx=".95" ry="1.27" style="fill:#462e3b;"/><path d="M283.01,63.79l-.21-.23c.72-.66,1.54-.89,2.94-.81l-.02,.31c-1.32-.08-2.05,.12-2.71,.73Z" style="fill:#462e3b;"/><path d="M293.94,63.79c-.65-.61-1.39-.8-2.71-.73l-.02-.31c1.4-.08,2.22,.15,2.94,.81l-.21,.23Z" style="fill:#462e3b;"/><path d="M288.48,71.3s-.01,0-.02,0c-.51,0-1.28-.3-1.76-.67-.09-.07-.15-.17-.16-.29-.01-.11,.03-.23,.1-.31,.52-.61,.71-1.29,.83-2.13,.15-1.07,.19-2.16,.12-3.31l.32-.02c.07,1.18,.04,2.28-.12,3.38-.13,.9-.33,1.63-.9,2.3-.02,.03-.02,.06-.02,.07s0,.04,.03,.06c.42,.33,1.12,.6,1.56,.61,.43,0,1-.09,1.4-.52l.24,.22c-.38,.41-.94,.63-1.62,.63Z" style="fill:#ee9082;"/><circle cx="293.88" cy="70.17" r="1.45" style="fill:#f3a699;"/><circle cx="283.01" cy="70.17" r="1.45" style="fill:#f3a699;"/><g><path d="M297.71,64.25c.21-.21,.42-.43,.69-.56s.61-.13,.82,.05c.39,.34,.48,1.14,.54,1.62,.15,1.21,0,3.02-.97,3.89-.65,.59-1.41,.74-1.94-.04" style="fill:#f5b1a5;"/><path d="M297.87,65.66c-.08,.19-.13,.39-.16,.59,.21,.05,.34,.27,.35,.48s-.08,.42-.17,.6-.21,.37-.27,.57c-.03,.12-.04,.26,.03,.36,.09,.13,.27,.16,.41,.11s.26-.16,.36-.28c.34-.4,.56-.89,.64-1.4,.04-.24-.02-.46-.03-.7-.01-.32-.03-.63,0-.95,.01-.12,0-.25-.09-.33-.08-.07-.19-.07-.29-.04s-.17,.1-.25,.17c-.23,.23-.41,.5-.53,.8Z" style="fill:#ee9082;"/></g><path d="M290.91,72.47c.13-.01,.23,.11,.18,.22-.42,.81-1.34,1.81-2.44,1.91s-2.31-.7-2.91-1.42c-.08-.09-.02-.22,.1-.23l5.06-.48Z" style="fill:#58424e;"/></g><path d="M302.21,62.58c-.04,.32-.13,.63-.29,.92-.22,.4-.52,.76-.87,1.05-1.66,1.39-4.16,.44-5.04-1.38-.25-.52-.38-1.09-.54-1.64-.12-.41-.27-.81-.51-1.17-.6-.91-1.69-1.39-2.75-1.64-.58-.14-1.17-.23-1.76-.34-.49-.1-.97-.21-1.44-.38-1.15-.43-2.45-1.73-3.27-2.97-.22-.34-.41-.67-.55-.97l13.6,6.09c.14-.53,.86-.64,1.28-.56,1.42,.18,2.29,1.64,2.14,2.98Z" style="fill:#58424e;"/><path d="M298.88,61.94c-.64,.98-2.09,.4-3.41-.41-.12-.41-.27-.81-.51-1.17-.6-.91-1.69-1.39-2.75-1.64-.58-.14-1.17-.23-1.76-.34-1.5-.8-2.98-1.62-4.09-2.89-.31-.35-.65-.23-1.1-.21-.63,.67-1.38,1.23-2.21,1.63-.34,.17-.7,.31-.97,.57-.7,.67-.67,1.68-.7,2.58-.01,.41-.1,.77-.07,1.19,.04,.59-.04,1.17-.13,1.75-.09,.63-.18,1.26-.35,1.87-.08,.3-.19,.61-.42,.82s-.6,.3-.85,.11c-.26-.2-.28-.58-.35-.9-.1-.47-.26-1.07-.71-1.33-.09-.05-.96-.22-.92,.02-.07-.39-.02-.57-.06-.96-.02-.25-.12-.47-.15-.71-.07-.73-.01-1.48,.08-2.2,.18-1.46,.62-2.89,1.31-4.18,1.4-2.64,3.82-4.72,6.64-5.72,.48-.17,.98-.31,1.49-.36,.59-.06,1.19,0,1.78,.09,1.58,.22,3.15,.58,4.6,1.25,1.45,.66,2.78,1.64,3.71,2.94,.57,.8,1.37,1.65,1.62,2.62,.35,1.34,.23,2.64,.22,4,0,.52,.38,1.08,.04,1.59Z" style="fill:#58424e;"/></g><path d="M309.51,109.85c-.12-3.94,2.38-6.77,4.84-9.54,.82-.92,1.58-2.3,2.37-3.26,.39-.48,.78-.96,1.17-1.44,.12-.15,.98-1.42,1.11-1.39,0,0,6.47,1.26,6.48,1.26,.25,.06-2.14,7.5-2.33,8.07-1.34,4.02-4.34,10.36-8.72,11.84-.71,.24-1.68,.51-2.26-.07-.03-.03-.06-.06-.08-.08-1.12-1.14-.87-1.23-1.69-2.81" style="fill:#f2692c;"/><path d="M310.13,106.75l-.26-.09c.75-2.19,2.31-4.08,3.71-5.68l.21,.18c-1.38,1.58-2.92,3.45-3.66,5.59Z" style="fill:#462e3b;"/><polygon points="133.72 118.25 189.72 126.03 190.51 86.51 134.51 78.74 133.72 118.25" style="fill:#56acca;"/><polygon points="132.03 117.12 188.03 124.9 190.51 86.51 134.51 78.74 132.03 117.12" style="fill:#80deea;"/><g><path d="M183.74,126.75c-.06,0-.11,0-.17-.01l-53.33-7.4c-.66-.09-1.13-.7-1.03-1.37l5.26-37.88c.08-.6,.6-1.05,1.2-1.05,.06,0,.11,0,.17,.01l53.33,7.4c.66,.09,1.13,.71,1.03,1.37l-5.26,37.88c-.08,.6-.6,1.05-1.2,1.05h0Z" style="fill:#fff;"/><path d="M135.66,79.19s.1,0,.15,.01l53.33,7.4c.28,.04,.54,.19,.71,.42,.17,.23,.25,.51,.21,.8l-5.26,37.88c-.07,.53-.53,.93-1.06,.93-.05,0-.1,0-.15-.01l-53.33-7.4c-.59-.08-1-.62-.92-1.21l5.26-37.88c.07-.53,.53-.93,1.06-.93m0-.28c-.66,0-1.24,.49-1.34,1.16l-5.26,37.88c-.1,.74,.41,1.42,1.15,1.52l53.33,7.4c.06,0,.13,.01,.19,.01,.66,0,1.24-.49,1.34-1.16l5.26-37.88c.1-.74-.41-1.42-1.15-1.52l-53.33-7.4c-.06,0-.13-.01-.19-.01h0Z" style="fill:#5796a1;"/></g><rect x="133.91" y="82.61" width="56.54" height="4.77" transform="translate(311.14 191.47) rotate(-172.1)" style="fill:#0097a7;"/><g><path d="M142.29,83.49s-.04,0-.07,0c-.87-.1-1.56-.92-1.94-2.29-.33-1.21-.41-2.76-.22-4.36,.28-2.35,1.1-4.41,2.13-5.36,.22-.21,.57-.19,.78,.03,.21,.22,.19,.57-.03,.78-.84,.77-1.54,2.61-1.79,4.68-.18,1.47-.11,2.86,.19,3.94,.24,.87,.63,1.44,1,1.48,.3,.04,.52,.31,.48,.61-.03,.28-.27,.49-.55,.49Z" style="fill:#e0f7fa;"/><path d="M155.79,85.46s-.04,0-.07,0c-1.89-.23-2.52-3.59-2.16-6.65,.21-1.72,.71-3.34,1.39-4.43,.16-.26,.5-.34,.76-.18,.26,.16,.34,.5,.18,.76-.6,.96-1.05,2.42-1.23,3.98-.38,3.18,.45,5.33,1.19,5.42,.3,.04,.52,.31,.48,.61-.03,.28-.27,.49-.55,.49Z" style="fill:#e0f7fa;"/><path d="M169.28,86.73s-.04,0-.07,0c-.87-.1-1.56-.92-1.94-2.29-.33-1.21-.41-2.76-.22-4.36,.18-1.47,.57-2.87,1.11-3.94,.14-.27,.47-.38,.74-.24,.27,.14,.38,.47,.24,.74-.48,.95-.84,2.22-1,3.57-.18,1.47-.11,2.86,.19,3.94,.24,.87,.63,1.44,1,1.48,.3,.04,.52,.31,.48,.61-.03,.28-.27,.49-.55,.49Z" style="fill:#e0f7fa;"/><path d="M182.39,88.99s-.04,0-.07,0c-.87-.1-1.56-.92-1.94-2.29-.33-1.21-.41-2.76-.22-4.36,.21-1.75,.73-3.38,1.42-4.48,.16-.26,.5-.34,.76-.17,.26,.16,.34,.5,.17,.76-.61,.97-1.07,2.43-1.26,4.02-.18,1.47-.11,2.86,.19,3.94,.24,.87,.63,1.44,1,1.48,.3,.04,.52,.31,.48,.61-.03,.28-.27,.49-.55,.49Z" style="fill:#e0f7fa;"/></g><g><path d="M375.75,198.44h-29.98c-.75,0-1.27,.76-.99,1.46l7.53,18.96h32.8l-7.65-19.27c-.28-.7-.95-1.16-1.7-1.16Z" style="fill:#26c6da;"/><path d="M352.31,218.86h41.69v.04c0,.84-.68,1.52-1.52,1.52h-38.65c-.84,0-1.52-.68-1.52-1.52v-.04h0Z" style="fill:#00838f;"/><g style="opacity:.6;"><ellipse cx="364.07" cy="209.81" rx="2.09" ry="2.57" transform="translate(-12.42 396.43) rotate(-56.32)" style="fill:#fff;"/></g></g><path d="M266.58,156.62c0-.91,.1-1.82,.25-2.71s.36-1.72,.08-2.59c-.47-1.44-1.69-1.49-2.98-1.4-.64,.04-1.37,.19-1.75,.76-.44,.64-.3,.93-.36,1.66-.04,.48-.08,.76-.39,1.13-.07,.08-.14,.16-.19,.25-.18,.34-.14,.93,0,1.28,.26,.67,.37,1.02,.29,1.81" style="fill:#f5b1a5;"/><g><path d="M436.66,155.32l-7.52-10.78c.32-.47,.92-.7,1.5-.54l18.86,5.44c.58,.17,.96,.68,.98,1.25l-12.11,5.12c-.61,.26-1.33,.05-1.71-.49Z" style="fill:#26c6da;"/><path d="M433.77,152.99l-8.24,4.47c-.06-.22-.06-.47,.01-.7l3.18-11.02,5.06,7.24Z" style="fill:#26c6da;"/><path d="M445.68,163.94c-.11,0-.23-.02-.34-.05l-18.86-5.44c-.11-.03-.22-.08-.32-.14l8.21-4.46,1.44,2.06c.33,.47,.81,.8,1.34,.95s1.1,.13,1.63-.1l2.32-.98,4.58,8.15Z" style="fill:#26c6da;"/><path d="M450.2,151.94l-3.18,11.02c-.07,.24-.2,.44-.36,.6l-4.6-8.18,8.14-3.44Z" style="fill:#26c6da;"/></g><path d="M388.99,176.46c-.07,0-.15,0-.22,0-1.33-.06-2.56-.63-3.46-1.61s-1.36-2.25-1.3-3.58c.06-1.33,.63-2.56,1.61-3.46l12.53-11.49c.23-.21,.57-.19,.78,.03,.21,.22,.19,.57-.03,.78l-12.53,11.49c-.76,.7-1.21,1.65-1.25,2.69-.05,1.03,.32,2.03,1.02,2.79,.7,.76,1.65,1.21,2.69,1.25,1.04,.04,2.03-.32,2.79-1.02l14.6-13.38c1.09-1,1.16-2.7,.17-3.78-1-1.09-2.7-1.16-3.78-.17l-11.18,10.25c-.29,.26-.45,.62-.47,1.01-.02,.39,.12,.76,.38,1.05,.26,.29,.62,.45,1.01,.47,.38,.01,.76-.12,1.05-.38l8.35-7.65c.23-.21,.57-.19,.78,.03,.21,.22,.19,.57-.03,.78l-8.35,7.65c-.5,.46-1.16,.7-1.84,.67-.68-.03-1.31-.32-1.78-.83-.95-1.04-.88-2.66,.16-3.62l11.18-10.25c1.54-1.41,3.94-1.3,5.35,.23,1.41,1.54,1.3,3.94-.23,5.35l-14.6,13.38c-.93,.85-2.11,1.31-3.36,1.31Z" style="fill:#4db6ac;"/><g><g><rect x="215.65" y="179.36" width="26.59" height="18.57" rx=".75" ry=".75" transform="translate(9.26 -10.71) rotate(2.73)" style="fill:#0097a7;"/><path d="M241.07,199.02s-.04,0-.06,0l-25.06-1.2c-.33-.02-.64-.16-.87-.41-.23-.25-.34-.57-.32-.9l.81-17.04c.03-.69,.63-1.21,1.31-1.19l25.06,1.2c.69,.03,1.22,.62,1.19,1.31l-.81,17.04c-.02,.33-.16,.64-.41,.87-.23,.21-.53,.33-.84,.33Zm-.01-1c.05,0,.13-.02,.18-.07,.03-.03,.08-.08,.08-.17l.81-17.04c0-.14-.1-.26-.24-.26l-25.06-1.2c-.17,0-.26,.1-.26,.24l-.81,17.04c0,.09,.04,.15,.07,.18,.03,.03,.08,.08,.17,.08l25.06,1.2Z" style="fill:#0097a7;"/></g><path d="M232.69,188.53l-5.07-3.07c-.37-.22-.84,.03-.86,.46l-.27,5.64c-.02,.43,.43,.72,.81,.54l5.34-2.57c.41-.2,.43-.76,.05-1Z" style="fill:#b2ebf2;"/><g><rect x="224.91" y="180.1" width="1.29" height="2.36" rx=".63" ry=".63" transform="translate(8.91 -10.56) rotate(2.74)" style="fill:#4dd0e1;"/><rect x="221.19" y="179.92" width="1.29" height="2.36" rx=".63" ry=".63" transform="translate(8.89 -10.38) rotate(2.74)" style="fill:#4dd0e1;"/><rect x="217.46" y="179.74" width="1.29" height="2.36" rx=".63" ry=".63" transform="translate(8.88 -10.2) rotate(2.73)" style="fill:#4dd0e1;"/><rect x="228.64" y="180.28" width="1.29" height="2.36" rx=".63" ry=".63" transform="translate(8.92 -10.73) rotate(2.74)" style="fill:#4dd0e1;"/><rect x="232.37" y="180.46" width="1.29" height="2.36" rx=".63" ry=".63" transform="translate(8.93 -10.91) rotate(2.73)" style="fill:#4dd0e1;"/><rect x="236.09" y="180.63" width="1.29" height="2.36" rx=".63" ry=".63" transform="translate(8.95 -11.09) rotate(2.73)" style="fill:#4dd0e1;"/><rect x="239.82" y="180.81" width="1.29" height="2.36" rx=".63" ry=".63" transform="translate(8.96 -11.27) rotate(2.73)" style="fill:#4dd0e1;"/></g><g><rect x="227.95" y="194.65" width="1.29" height="2.36" rx=".63" ry=".63" transform="translate(447.59 402.34) rotate(-177.27)" style="fill:#4dd0e1;"/><rect x="231.68" y="194.82" width="1.29" height="2.36" rx=".63" ry=".63" transform="translate(455.04 402.88) rotate(-177.27)" style="fill:#4dd0e1;"/><rect x="235.41" y="195" width="1.29" height="2.36" rx=".63" ry=".63" transform="translate(462.48 403.41) rotate(-177.27)" style="fill:#4dd0e1;"/><rect x="239.14" y="195.18" width="1.29" height="2.36" rx=".63" ry=".63" transform="translate(469.92 403.94) rotate(-177.27)" style="fill:#4dd0e1;"/><rect x="224.23" y="194.47" width="1.29" height="2.36" rx=".63" ry=".63" transform="translate(440.15 401.81) rotate(-177.27)" style="fill:#4dd0e1;"/><rect x="220.5" y="194.29" width="1.29" height="2.36" rx=".63" ry=".63" transform="translate(432.71 401.27) rotate(-177.27)" style="fill:#4dd0e1;"/><rect x="216.77" y="194.11" width="1.29" height="2.36" rx=".63" ry=".63" transform="translate(425.27 400.74) rotate(-177.27)" style="fill:#4dd0e1;"/></g></g><g><rect x="314.55" y="151.27" width="31.63" height="20.4" style="fill:#fff;"/><rect x="313.27" y="149.96" width="34.19" height="2.63" rx="1.28" ry="1.28" style="fill:#189fac;"/><rect x="327.81" y="171.23" width="5.12" height=".87" rx=".42" ry=".42" style="fill:#189fac;"/><g><g><path d="M329.97,162.33c0,3.19-2.59,5.78-5.78,5.78s-5.78-2.59-5.78-5.78,2.59-5.78,5.78-5.78v5.78h5.78Z" style="fill:#b2ebf2;"/><path d="M324.19,168.61c-3.46,0-6.28-2.82-6.28-6.28s2.82-6.28,6.28-6.28h.5v5.78h5.78v.5c0,3.46-2.82,6.28-6.28,6.28Zm-.5-11.54c-2.68,.25-4.78,2.51-4.78,5.26,0,2.91,2.37,5.28,5.28,5.28,2.74,0,5-2.1,5.26-4.78h-5.76v-5.76Z" style="fill:#b2ebf2;"/></g><path d="M330.8,161.5h-5.78v-5.78c3.19,0,5.78,2.59,5.78,5.78Z" style="fill:#5796a1;"/></g><path d="M330.37,175.2c-.35,0-.64-.29-.64-.64s.29-.64,.64-.64,.64,.29,.64,.64-.29,.64-.64,.64Zm0-1c-.2,0-.36,.16-.36,.36s.16,.36,.36,.36,.36-.16,.36-.36-.16-.36-.36-.36Z" style="fill:#189fac;"/><rect x="330.23" y="171.67" width=".28" height="2.39" style="fill:#189fac;"/><polygon points="330.9 158.14 330.7 157.94 331.98 156.66 342.01 156.66 342.01 156.94 332.09 156.94 330.9 158.14" style="fill:#92cbf1;"/><g style="opacity:.41;"><rect x="339.3" y="158.62" width="2.28" height="2.28" rx="1.07" ry="1.07" style="fill:#92cbf1;"/></g><g style="opacity:.41;"><rect x="339.3" y="162.22" width="2.28" height="2.28" rx="1.07" ry="1.07" style="fill:#92cbf1;"/></g><g style="opacity:.41;"><rect x="339.3" y="165.83" width="2.28" height="2.28" rx="1.07" ry="1.07" style="fill:#92cbf1;"/></g></g><g><path d="M222.73,141.21c-1.78-1.7-2.87-3.53-3.36-5.61,2.5-2.93,3.72-6.56,3.64-10.79,1.39,.51,2.69,1.3,3.83,2.37,1.75,4.15-.79,10.98-4.11,14.03Z" style="fill:#00acc1;"/><path d="M226.94,143.78c-.11,.11-.22,.21-.34,.31-.02-.02-.04-.03-.06-.04-1.3-.78-2.42-1.59-3.37-2.42,3.26-3.03,5.82-9.33,4.59-13.48,.23,.27,.45,.55,.65,.84,3.18,4.54,2.65,10.85-1.48,14.8Z" style="fill:#26a69a;"/><path d="M226.11,144.5c-.41,.33-.84,.62-1.28,.88-.84,.5-1.73,.87-2.64,1.14h0c-4.1-.52-8.99-6.4-9.94-10.87,2.17-.39,4.36-.34,6.54,.13,.47,1.97,1.45,3.73,3,5.36,.22,.23,.44,.45,.68,.67,0,.01,0,.02,.01,.02h0s.04,.05,.06,.06c.99,.9,2.17,1.77,3.55,2.61Z" style="fill:#26a69a;"/><path d="M220.9,146.8c-3.59,.59-7.41-.55-10.12-3.38-1.73-1.81-2.75-4.04-3.06-6.34h0s.06-.02,.09-.03c1.27-.58,2.55-1.01,3.84-1.29,.55,2.62,2.21,5.62,4.35,7.86,1.48,1.55,3.19,2.73,4.9,3.17Z" style="fill:#00acc1;"/><path d="M218.92,135.18c-2.36-.52-4.72-.55-7.06-.1-.01,0-.02,0-.03,0-.02,0-.04,0-.06,.02-1.38,.28-2.76,.72-4.12,1.34-.1-1.29,0-2.6,.34-3.86,.02-.07,.04-.13,.05-.2,2.68-3.42,10.08-4.51,13.85-2.93-.54,2.13-1.53,4.02-2.98,5.72Z" style="fill:#00acc1;"/><path d="M208.41,131.32c.59-1.49,1.5-2.88,2.73-4.06,3.1-2.97,7.45-3.84,11.28-2.66,.03,1.48-.11,2.96-.39,4.26-4.14-1.48-10.52-.72-13.63,2.46Z" style="fill:#26a69a;"/><path d="M212.24,135.64c.94,4.47,5.84,10.35,9.94,10.87-.42,.12-.84,.22-1.28,.29-1.72-.44-3.43-1.63-4.9-3.17-2.14-2.24-3.8-5.24-4.35-7.86-1.29,.28-2.57,.71-3.84,1.29-.03,.01-.06,.02-.09,.03-.03-.21-.06-.41-.07-.62,1.36-.62,2.74-1.07,4.12-1.34,.02,0,.04-.01,.06-.02,.01,0,.02,0,.03,0,2.34-.45,4.7-.42,7.06,.1,1.44-1.7,2.43-3.59,2.98-5.72-3.77-1.57-11.17-.49-13.85,2.93,.1-.36,.22-.72,.37-1.08,3.11-3.17,9.48-3.93,13.63-2.46,.28-1.3,.42-2.79,.39-4.26,.2,.06,.4,.13,.59,.2,.08,4.23-1.15,7.86-3.64,10.79,.49,2.08,1.57,3.91,3.36,5.61,3.33-3.05,5.86-9.87,4.11-14.03,.16,.14,.3,.29,.45,.45,.16,.17,.32,.34,.47,.51,1.23,4.15-1.33,10.45-4.59,13.48,.95,.83,2.07,1.64,3.37,2.42,.02,.01,.04,.03,.06,.04-.16,.14-.32,.27-.49,.41-1.39-.84-2.56-1.71-3.55-2.61-.02-.01-.04-.03-.06-.05h0s0-.02-.01-.03c-.24-.22-.47-.44-.68-.67-1.55-1.63-2.53-3.38-3-5.36-2.19-.48-4.38-.52-6.54-.13Z" style="fill:#c5e2a6;"/><path d="M212.24,135.64c.94,4.47,5.84,10.35,9.94,10.87-.42,.12-.84,.22-1.28,.29-1.72-.44-3.43-1.63-4.9-3.17-2.14-2.24-3.8-5.24-4.35-7.86-1.29,.28-2.57,.71-3.84,1.29-.03,.01-.06,.02-.09,.03-.03-.21-.06-.41-.07-.62,1.36-.62,2.74-1.07,4.12-1.34,.02,0,.04-.01,.06-.02,.01,0,.02,0,.03,0,2.34-.45,4.7-.42,7.06,.1,1.44-1.7,2.43-3.59,2.98-5.72-3.77-1.57-11.17-.49-13.85,2.93,.1-.36,.22-.72,.37-1.08,3.11-3.17,9.48-3.93,13.63-2.46,.28-1.3,.42-2.79,.39-4.26,.2,.06,.4,.13,.59,.2,.08,4.23-1.15,7.86-3.64,10.79,.49,2.08,1.57,3.91,3.36,5.61,3.33-3.05,5.86-9.87,4.11-14.03,.16,.14,.3,.29,.45,.45,.16,.17,.32,.34,.47,.51,1.23,4.15-1.33,10.45-4.59,13.48,.95,.83,2.07,1.64,3.37,2.42,.02,.01,.04,.03,.06,.04-.16,.14-.32,.27-.49,.41-1.39-.84-2.56-1.71-3.55-2.61-.02-.01-.04-.03-.06-.05h0s0-.02-.01-.03c-.24-.22-.47-.44-.68-.67-1.55-1.63-2.53-3.38-3-5.36-2.19-.48-4.38-.52-6.54-.13Z" style="fill:#b2ebf2;"/></g><g><rect x="160.94" y="70.22" width=".28" height="50.52" transform="translate(43.4 241.13) rotate(-81.72)" style="fill:#92cbf1;"/><rect x="159.47" y="77.49" width=".28" height="50.52" transform="translate(34.95 245.91) rotate(-81.72)" style="fill:#92cbf1;"/><rect x="158" y="84.76" width=".28" height="50.52" transform="translate(26.5 250.68) rotate(-81.72)" style="fill:#92cbf1;"/><rect x="157.24" y="92.04" width=".28" height="50.52" transform="translate(18.65 256.15) rotate(-81.72)" style="fill:#92cbf1;"/><rect x="159.4" y="108.08" width="27.15" height=".28" transform="translate(36.62 260) rotate(-80.1)" style="fill:#92cbf1;"/><rect x="168.8" y="109.89" width="27.15" height=".28" transform="translate(42.62 270.76) rotate(-80.1)" style="fill:#92cbf1;"/><rect x="150" y="106.66" width="27.15" height=".28" transform="translate(30.23 249.57) rotate(-80.1)" style="fill:#92cbf1;"/><rect x="140.6" y="105.25" width="27.15" height=".28" transform="translate(23.84 239.14) rotate(-80.1)" style="fill:#92cbf1;"/><rect x="131.21" y="103.84" width="27.15" height=".28" transform="translate(17.45 228.71) rotate(-80.1)" style="fill:#92cbf1;"/><rect x="121.81" y="102.42" width="27.15" height=".28" transform="translate(11.06 218.29) rotate(-80.1)" style="fill:#92cbf1;"/></g><polygon points="156.01 94.69 155.76 96.23 165.16 97.63 165.42 96.06 156.01 94.69" style="fill:#00838f;"/><polygon points="163.42 107.77 163.17 109.31 172.57 110.7 172.83 109.14 163.42 107.77" style="fill:#00838f;"/><polygon points="152.82 113.03 152.25 116.43 161.65 117.82 162.23 114.4 152.82 113.03" style="fill:#00838f;"/><polygon points="443.25 118.25 387.24 126.03 386.45 86.51 442.46 78.74 443.25 118.25" style="fill:#56acca;"/><polygon points="444.94 117.12 388.93 124.9 386.45 86.51 442.46 78.74 444.94 117.12" style="fill:#80deea;"/><g><path d="M393.23,126.75c-.6,0-1.12-.45-1.2-1.05l-5.26-37.88c-.04-.32,.04-.64,.23-.9,.2-.26,.48-.42,.8-.47l53.33-7.4c.06,0,.11-.01,.17-.01,.6,0,1.12,.45,1.2,1.05l5.26,37.88c.04,.32-.04,.64-.23,.9-.2,.26-.48,.42-.8,.47l-53.33,7.4c-.06,0-.11,.01-.17,.01Z" style="fill:#fff;"/><path d="M441.3,79.19c.53,0,.99,.4,1.06,.93l5.26,37.88c.04,.28-.03,.57-.21,.8-.17,.23-.42,.38-.71,.42l-53.33,7.4s-.1,.01-.15,.01c-.53,0-.99-.4-1.06-.93l-5.26-37.88c-.04-.28,.03-.57,.21-.8,.17-.23,.42-.38,.71-.42l53.33-7.4s.1-.01,.15-.01m0-.28c-.06,0-.12,0-.19,.01l-53.33,7.4c-.74,.1-1.25,.78-1.15,1.52l5.26,37.88c.09,.68,.67,1.16,1.34,1.16,.06,0,.12,0,.19-.01l53.33-7.4c.74-.1,1.25-.78,1.15-1.52l-5.26-37.88c-.09-.68-.67-1.16-1.34-1.16h0Z" style="fill:#5796a1;"/></g><rect x="386.51" y="82.61" width="56.54" height="4.77" transform="translate(-7.75 57.84) rotate(-7.9)" style="fill:#189fac;"/><g><path d="M434.67,83.49c-.28,0-.51-.21-.55-.49-.04-.3,.18-.58,.48-.61,.38-.05,.76-.61,1-1.48,.3-1.07,.36-2.47,.19-3.94-.25-2.07-.95-3.91-1.79-4.68-.22-.21-.24-.56-.03-.78,.21-.22,.56-.24,.78-.03,1.03,.95,1.85,3.01,2.13,5.36,.19,1.61,.11,3.16-.22,4.36-.38,1.37-1.07,2.18-1.94,2.29-.02,0-.04,0-.07,0Z" style="fill:#e0f7fa;"/><path d="M421.18,85.46c-.28,0-.51-.21-.55-.49-.04-.3,.18-.58,.48-.61,.38-.05,.76-.61,1-1.48,.3-1.07,.36-2.47,.19-3.94-.19-1.57-.64-3.02-1.23-3.98-.16-.26-.08-.6,.18-.76,.26-.16,.6-.08,.76,.18,.68,1.1,1.19,2.71,1.39,4.43,.19,1.61,.11,3.16-.22,4.36-.38,1.37-1.07,2.18-1.94,2.29-.02,0-.04,0-.07,0Z" style="fill:#e0f7fa;"/><path d="M407.68,86.73c-.28,0-.51-.21-.55-.49-.04-.3,.18-.58,.48-.61,.38-.05,.76-.61,1-1.48,.3-1.07,.36-2.47,.19-3.94-.16-1.35-.52-2.62-1-3.57-.14-.27-.03-.6,.24-.74,.27-.14,.6-.03,.74,.24,.54,1.06,.94,2.46,1.11,3.94,.19,1.61,.11,3.16-.22,4.36-.38,1.37-1.07,2.18-1.94,2.29-.02,0-.04,0-.07,0Z" style="fill:#e0f7fa;"/><path d="M394.57,88.99c-.28,0-.51-.21-.55-.49-.04-.3,.18-.58,.48-.61,.74-.09,1.57-2.24,1.19-5.42-.19-1.59-.65-3.05-1.26-4.02-.16-.26-.09-.6,.17-.76,.26-.16,.6-.08,.76,.17,.69,1.1,1.21,2.73,1.42,4.48,.37,3.05-.26,6.42-2.16,6.65-.02,0-.04,0-.07,0Z" style="fill:#e0f7fa;"/></g><g><rect x="390.63" y="95.34" width="50.52" height=".28" transform="translate(-9.43 61.07) rotate(-8.3)" style="fill:#83c7df;"/><rect x="392.09" y="102.61" width="50.52" height=".28" transform="translate(-10.46 61.35) rotate(-8.3)" style="fill:#83c7df;"/><rect x="393.56" y="109.89" width="50.52" height=".28" transform="translate(-11.5 61.64) rotate(-8.3)" style="fill:#83c7df;"/><rect x="394.32" y="117.16" width="50.52" height=".28" transform="translate(-12.54 61.83) rotate(-8.3)" style="fill:#83c7df;"/><rect x="403.85" y="94.64" width=".28" height="27.15" transform="translate(-12.57 70.83) rotate(-9.87)" style="fill:#83c7df;"/><rect x="394.45" y="96.45" width=".28" height="27.15" transform="translate(-13.02 69.25) rotate(-9.87)" style="fill:#83c7df;"/><rect x="413.25" y="93.23" width=".28" height="27.15" transform="translate(-12.19 72.43) rotate(-9.87)" style="fill:#83c7df;"/><rect x="422.65" y="91.81" width=".28" height="27.15" transform="translate(-11.81 74.01) rotate(-9.87)" style="fill:#83c7df;"/><rect x="432.05" y="90.4" width=".28" height="27.15" transform="translate(-11.43 75.6) rotate(-9.87)" style="fill:#83c7df;"/><rect x="441.44" y="88.99" width=".28" height="27.15" transform="translate(-11.04 77.19) rotate(-9.87)" style="fill:#83c7df;"/></g><g><polygon points="431.94 102.75 432.18 104.29 422.78 105.69 422.53 104.12 431.94 102.75" style="fill:#00838f;"/><polygon points="441.59 102.9 441.84 104.44 432.44 105.84 432.18 104.27 441.59 102.9" style="fill:#00838f;"/><polygon points="420.96 94.69 421.2 96.23 411.8 97.63 411.55 96.06 420.96 94.69" style="fill:#00838f;"/><polygon points="423.5 109.35 423.74 110.89 414.34 112.29 414.09 110.72 423.5 109.35" style="fill:#00838f;"/><polygon points="414.48 113.09 414.73 114.63 405.33 116.02 405.08 114.46 414.48 113.09" style="fill:#00838f;"/><polygon points="402.11 97.5 402.36 99.04 392.95 100.44 392.7 98.87 402.11 97.5" style="fill:#00838f;"/><polygon points="413.55 107.77 413.79 109.31 404.39 110.7 404.14 109.14 413.55 107.77" style="fill:#00838f;"/><polygon points="398.08 101.44 398.33 102.98 393.5 103.68 393.25 102.11 398.08 101.44" style="fill:#00838f;"/><polygon points="437.74 107.39 437.99 108.92 433.16 109.62 432.91 108.06 437.74 107.39" style="fill:#00838f;"/></g><g><g><circle cx="396.09" cy="121.59" r="8.15" style="fill:#fff;"/><path d="M396.09,113.86c4.26,0,7.73,3.47,7.73,7.73s-3.47,7.73-7.73,7.73-7.73-3.47-7.73-7.73,3.47-7.73,7.73-7.73m0-.83c-4.73,0-8.56,3.83-8.56,8.56s3.83,8.56,8.56,8.56,8.56-3.83,8.56-8.56-3.83-8.56-8.56-8.56h0Z" style="fill:#189fac;"/></g><polygon points="396.31 121.81 393.82 121.81 393.82 121.38 395.87 121.38 395.87 117.63 396.31 117.63 396.31 121.81" style="fill:#5796a1;"/><g><circle cx="396.09" cy="121.59" r=".43" style="fill:#5796a1;"/><path d="M396.09,121.38c.12,0,.21,.09,.21,.21s-.09,.21-.21,.21-.21-.09-.21-.21,.09-.21,.21-.21m0-.44c-.36,0-.65,.29-.65,.65s.29,.65,.65,.65,.65-.29,.65-.65-.29-.65-.65-.65h0Z" style="fill:#5796a1;"/></g><g><rect x="395.81" y="114.86" width=".55" height="1.01" style="fill:#5796a1;"/><rect x="391.4" y="116.68" width=".55" height="1.01" transform="translate(31.86 311.28) rotate(-45)" style="fill:#5796a1;"/><rect x="389.35" y="121.32" width="1.01" height=".55" style="fill:#5796a1;"/><rect x="391.18" y="125.73" width="1.01" height=".55" transform="translate(25.62 313.86) rotate(-45)" style="fill:#5796a1;"/><rect x="395.81" y="127.32" width=".55" height="1.01" style="fill:#5796a1;"/><rect x="400.22" y="125.5" width=".55" height="1.01" transform="translate(28.24 320.17) rotate(-45.01)" style="fill:#5796a1;"/><rect x="401.82" y="121.32" width="1.01" height=".55" style="fill:#5796a1;"/><rect x="399.99" y="116.91" width="1.01" height=".55" transform="translate(34.44 317.52) rotate(-45)" style="fill:#5796a1;"/></g></g><g><g><circle cx="181.07" cy="121.59" r="8.15" style="fill:#fff;"/><path d="M181.07,113.86c4.26,0,7.73,3.47,7.73,7.73s-3.47,7.73-7.73,7.73-7.73-3.47-7.73-7.73,3.47-7.73,7.73-7.73m0-.83c-4.73,0-8.56,3.83-8.56,8.56s3.83,8.56,8.56,8.56,8.56-3.83,8.56-8.56-3.83-8.56-8.56-8.56h0Z" style="fill:#189fac;"/></g><g><path d="M179.59,117.34h5.28v6c0,1.42-1.15,2.57-2.57,2.57h-.13c-1.42,0-2.57-1.15-2.57-2.57v-6h0Z" transform="translate(225.08 336.49) rotate(-135)" style="fill:#0097a7;"/><path d="M179.83,117.34h.13c1.42,0,2.57,1.15,2.57,2.57v6h-5.28v-6c0-1.42,1.15-2.57,2.57-2.57Z" transform="translate(-33.31 162.83) rotate(-45)" style="fill:#0097a7;"/></g></g><g><path d="M424.14,143.81c-2.65-4.97-4.32-10.32-4.99-15.92l.82-.1c.65,5.49,2.3,10.75,4.9,15.62l-.73,.39Z" style="fill:#fff;"/><path d="M345.07,140.09l-.73-.4c8.15-14.93,21.03-27.29,36.29-34.81l.37,.74c-15.1,7.44-27.86,19.68-35.93,34.46Z" style="fill:#fff;"/><path d="M333.44,144.24l-.74-.38c6.23-12.25,12.58-20.58,20.59-27l.52,.65c-7.91,6.35-14.19,14.59-20.37,26.73Z" style="fill:#fff;"/><path d="M365.14,190.48c-.46-9.34,1.7-19.19,6.43-29.28,3.74-7.99,9.11-16.28,16.42-25.36l.64,.52c-7.27,9.02-12.61,17.27-16.32,25.19-4.67,9.97-6.8,19.69-6.35,28.89l-.83,.04Z" style="fill:#fff;"/><path d="M402.83,145.7l-.64-.52c3.12-3.87,5.47-8.44,6.8-13.22l.8,.22c-1.36,4.89-3.76,9.57-6.96,13.52Z" style="fill:#fff;"/><path d="M407.1,150.54l-.82-.13c.6-3.79,1.47-7.58,2.57-11.26l.79,.24c-1.09,3.64-1.95,7.39-2.55,11.15Z" style="fill:#fff;"/></g><path d="M299.09,64.36c-.11,0-.21,0-.31-.03-.82-.14-1.49-.9-1.51-1.74h.28c.02,.7,.58,1.35,1.28,1.47,.27,.05,.57,.02,.85-.08,.54-.18,.98-.6,1.15-1.1,.13-.38,.12-.79-.04-1.12-.15-.32-.48-.65-.81-.67-.19-.01-.39,.07-.55,.24-.2,.2-.32,.5-.3,.75,0,.08,.04,.15,.09,.19,.04,.02,.1,.03,.16,.02,.2-.04,.4-.19,.53-.37l.23,.15c-.16,.25-.43,.43-.7,.49-.13,.03-.26,.01-.36-.05-.13-.08-.21-.23-.23-.4-.02-.33,.12-.7,.38-.96,.22-.22,.49-.34,.77-.32,.45,.03,.86,.45,1.04,.83,.19,.4,.21,.88,.05,1.34-.2,.58-.71,1.06-1.33,1.27-.22,.07-.45,.11-.67,.11Z" style="fill:#6a5761;"/><path d="M297.76,60.99c.21-.92-.18-1.85-.56-2.71,.34,.25,.6,.62,.7,1.03,.11-.61-.11-1.24-.36-1.81-.28-.65-.59-1.28-.93-1.89,.42,.04,.66,.49,.81,.88,.39,.97,.77,1.94,1.16,2.91,.19,.46,.37,.46-.05,.83-.2,.17-.71,.51-.77,.78Z" style="fill:#462e3b;"/><g style="mix-blend-mode:multiply; opacity:.3;"><path d="M310.65,105.2l.19-9.37c.92,1.99,1.85,3.84,2.83,5.24l-3.03,4.13Z" style="fill:#f2692c;"/></g><path d="M266.84,106.75c-.74-2.14-2.27-4.01-3.66-5.59l.21-.18c1.4,1.6,2.96,3.49,3.71,5.68l-.26,.09Z" style="fill:#462e3b;"/><g style="mix-blend-mode:multiply; opacity:.3;"><path d="M266.31,105.2l-.19-9.37c-.92,1.99-1.85,3.84-2.83,5.24l3.03,4.13Z" style="fill:#f2692c;"/></g><g><path d="M163.27,171.38h2.24c1.33,0,2.42,1.08,2.42,2.42v.13c0,1.33-1.08,2.42-2.42,2.42h-2.24v-4.96h0Z" style="fill:#189fac;"/><path d="M164.4,172.58h1.15c.69,0,1.25,.56,1.25,1.25v.06c0,.69-.56,1.25-1.25,1.25h-1.15v-2.56h0Z" style="fill:#462e3b;"/><path d="M157.76,179.13h0c-3.89,0-7.23-2.78-7.93-6.61l-.46-2.55c-.14-.79,.52-1.49,1.32-1.38,4.72,.62,9.43,.62,14.15,0,.8-.1,1.47,.59,1.32,1.38l-.46,2.55c-.7,3.83-4.04,6.61-7.93,6.61Z" style="fill:#0097a7;"/><path d="M166.02,170.67l-.34,1.86c0,.06-.02,.12-.04,.17-5.26,.77-10.52,.77-15.79,0-.02-.05-.03-.11-.04-.17l-.34-1.86c5.51,.84,11.02,.84,16.53,0Z" style="fill:#4dd0e1;"/><g><path d="M165.41,163.82c-4.51,0-8.18-2.74-8.18-6.1s3.67-6.1,8.18-6.1,8.18,2.74,8.18,6.1c0,.96-.29,1.88-.87,2.74l-.08,.12,.73,2.62c.02,.06,0,.11-.02,.13-.03,.04-.07,.06-.12,.06-.02,0-.03,0-.05,0l-2.64-.91-.12,.07c-1.45,.84-3.17,1.28-5,1.28Z" style="fill:#80cbc4;"/><path d="M165.41,151.92c4.34,0,7.87,2.6,7.87,5.8,0,.9-.28,1.76-.82,2.57l-.16,.23,.08,.27,.61,2.21-2.23-.77-.26-.09-.24,.14c-1.4,.81-3.08,1.24-4.85,1.24-4.34,0-7.87-2.6-7.87-5.8s3.53-5.8,7.87-5.8m0-.61c-4.68,0-8.48,2.87-8.48,6.4s3.8,6.4,8.48,6.4c1.94,0,3.72-.49,5.15-1.32l2.5,.86c.05,.02,.1,.03,.15,.03,.29,0,.52-.28,.44-.58l-.69-2.48c.59-.87,.92-1.86,.92-2.91,0-3.54-3.8-6.4-8.48-6.4h0Z" style="fill:#80cbc4;"/></g><circle cx="162.55" cy="157.72" r=".91" style="fill:#e0f2f1;"/><circle cx="165.41" cy="157.72" r=".91" style="fill:#e0f2f1;"/><g style="opacity:.77;"><circle cx="168.28" cy="157.72" r=".91" style="fill:#e0f2f1;"/></g><g><path d="M154,160.77c-2.18,0-4.29-.58-5.96-1.63l-.12-.08-2.64,.91s-.01,0-.02,0c-.03,0-.05-.01-.06-.03-.02-.03-.01-.05-.01-.06l.74-2.65-.09-.12c-.72-1-1.1-2.13-1.1-3.27,0-3.82,4.16-6.92,9.27-6.92s9.27,3.11,9.27,6.92-4.16,6.92-9.27,6.92Z" style="fill:#80deea;"/><path d="M154,147.23c4.94,0,8.96,2.97,8.96,6.62s-4.02,6.62-8.96,6.62c-2.12,0-4.18-.56-5.8-1.58l-.25-.15-.27,.09-2.09,.72,.58-2.09,.08-.28-.17-.24c-.69-.96-1.04-2-1.04-3.1,0-3.65,4.02-6.62,8.96-6.62m0-.61c-5.29,0-9.57,3.24-9.57,7.23,0,1.25,.42,2.43,1.16,3.45l-.7,2.51c-.07,.25,.12,.48,.36,.48,.04,0,.08,0,.12-.02l2.5-.86c1.66,1.04,3.79,1.67,6.12,1.67,5.29,0,9.57-3.24,9.57-7.23s-4.29-7.23-9.57-7.23h0Z" style="fill:#80deea;"/></g><circle cx="150.77" cy="153.85" r=".91" style="fill:#e0f7fa;"/><circle cx="154" cy="153.85" r=".91" style="fill:#e0f7fa;"/><g style="opacity:.77;"><circle cx="157.24" cy="153.85" r=".91" style="fill:#e0f7fa;"/></g></g><g style="opacity:.6;"><ellipse cx="287.26" cy="235.66" rx="24.56" ry="2.48" style="fill:#462e3b;"/></g><g><path d="M210.37,121.01c-3.18-7.68-8.85-14.27-15.96-18.56l.43-.71c7.26,4.39,13.05,11.12,16.3,18.96l-.77,.32Z" style="fill:#fff;"/><path d="M205,123.57c-1.21-2.58-2.98-4.93-5.14-6.8l.54-.63c2.24,1.94,4.09,4.39,5.35,7.07l-.75,.35Z" style="fill:#fff;"/><path d="M211.94,172.86c-9.59-10.15-19.23-25.35-23.46-36.98l.78-.28c4.19,11.53,13.76,26.62,23.28,36.7l-.6,.57Z" style="fill:#fff;"/><path d="M186.9,200.1l-.82-.13c3.24-20.56,.38-44.96-7.47-63.68l.76-.32c7.9,18.85,10.79,43.43,7.52,64.13Z" style="fill:#fff;"/><path d="M152.52,144.68c-1.86-5.99-2.53-12.45-1.92-18.69l.82,.08c-.59,6.13,.06,12.48,1.89,18.36l-.79,.25Z" style="fill:#fff;"/><path d="M190.12,205.52l-.78-.27c1.51-4.44,2.2-9.06,2.07-13.75l.83-.02c.13,4.78-.58,9.51-2.12,14.04Z" style="fill:#fff;"/></g><g style="opacity:.6;"><ellipse cx="92.65" cy="227.05" rx="37.48" ry="2.48" style="fill:#462e3b;"/></g><polygon points="319.74 93.99 325.25 94.22 324.88 95.36 319.62 94.34 319.74 93.99" style="fill:#ee9082;"/><polygon points="251.92 95.39 251.65 94.47 257.54 93.96 257.64 94.28 251.92 95.39" style="fill:#ee9082;"/><g><path d="M29.34,94.74c0,4.42-1.42,7.68-5.1,7.68-4.22,0-5.38-3.89-5.38-7.88s1.16-7.88,5.38-7.88c2.5,0,3.92,1.38,4.66,3.3l-2.47,1.53c-.37-1.27-1.03-2.1-2.19-2.1-1.95,0-2.54,2.39-2.54,5.14s.59,5.14,2.54,5.14c1.69,0,2.06-1.75,2.06-3.15h-1.79v-2.74h4.84v.94Z" style="fill:#fff;"/><path d="M31.09,94.54c0-4.2,1.27-7.88,5.27-7.88s5.27,3.68,5.27,7.88-1.27,7.88-5.27,7.88-5.27-3.68-5.27-7.88Zm7.7,0c0-3.2-.68-5.14-2.43-5.14s-2.43,1.95-2.43,5.14,.7,5.14,2.43,5.14,2.43-1.95,2.43-5.14Z" style="fill:#fff;"/><path d="M43.4,94.54c0-4.2,1.27-7.88,5.27-7.88s5.27,3.68,5.27,7.88-1.27,7.88-5.27,7.88-5.27-3.68-5.27-7.88Zm7.7,0c0-3.2-.68-5.14-2.43-5.14s-2.43,1.95-2.43,5.14,.7,5.14,2.43,5.14,2.43-1.95,2.43-5.14Z" style="fill:#fff;"/><path d="M66.18,94.74c0,4.42-1.42,7.68-5.1,7.68-4.22,0-5.38-3.89-5.38-7.88s1.16-7.88,5.38-7.88c2.49,0,3.92,1.38,4.66,3.3l-2.47,1.53c-.37-1.27-1.03-2.1-2.19-2.1-1.95,0-2.54,2.39-2.54,5.14s.59,5.14,2.54,5.14c1.68,0,2.06-1.75,2.06-3.15h-1.79v-2.74h4.84v.94Z" style="fill:#fff;"/><path d="M68.81,102.2v-15.32h2.84v12.58h4.46v2.74h-7.31Z" style="fill:#fff;"/><path d="M78.3,102.2v-15.32h8.14v2.73h-5.29v3.92h4.46v2.74h-4.46v3.19h5.29v2.74h-8.14Z" style="fill:#fff;"/><path d="M28.79,119.4c-.77,1.79-2.19,3.02-4.55,3.02-4.22,0-5.38-3.89-5.38-7.88s1.16-7.88,5.38-7.88c2.5,0,3.92,1.38,4.66,3.3l-2.47,1.53c-.37-1.27-1.03-2.1-2.19-2.1-1.95,0-2.54,2.39-2.54,5.14s.59,5.14,2.54,5.14c1.09,0,1.75-.77,2.12-1.92l2.43,1.64Z" style="fill:#fff;"/><path d="M37.09,122.2l-.5-2.41h-3.54l-.48,2.41h-2.98l3.63-15.32h3.24l3.63,15.32h-3Zm-2.01-9.93c-.09-.42-.22-1.31-.22-1.31h-.04s-.13,.9-.22,1.31l-1.03,5.01h2.52l-1.01-5.01Z" style="fill:#fff;"/><path d="M42.06,122.2v-15.32h2.84v12.58h4.46v2.74h-7.31Z" style="fill:#fff;"/><path d="M51.56,122.2v-15.32h8.14v2.73h-5.29v3.92h4.46v2.74h-4.46v3.19h5.29v2.74h-8.14Z" style="fill:#fff;"/><path d="M69.85,122.2l-3.92-8.6c-.18-.42-.37-1.03-.37-1.03h-.04s.02,.66,.02,1.14v8.49h-2.54v-15.32h2.71l3.85,8.38c.17,.37,.37,1.03,.37,1.03h.04c0-.11-.02-.74-.02-1.12v-8.29h2.54v15.32h-2.65Z" style="fill:#fff;"/><path d="M76.01,122.2v-15.32h3.96c4.22,0,5.6,3.68,5.6,7.66s-1.38,7.66-5.6,7.66h-3.96Zm3.96-2.74c1.95,0,2.76-2.17,2.76-4.92s-.81-4.92-2.76-4.92h-1.12v9.85h1.12Z" style="fill:#fff;"/><path d="M93.93,122.2l-.5-2.41h-3.54l-.48,2.41h-2.98l3.63-15.32h3.24l3.63,15.32h-3Zm-2.01-9.93c-.09-.42-.22-1.31-.22-1.31h-.04s-.13,.9-.22,1.31l-1.03,5.01h2.52l-1.01-5.01Z" style="fill:#fff;"/><path d="M105.29,122.2l-1.9-4.73c-.22,.02-.44,.02-.66,.02h-.98v4.7h-2.84v-15.32h4.25c3.48,0,4.92,2.58,4.92,5.25,0,1.68-.66,3.37-2.06,4.4l2.3,5.67h-3.02Zm-2.47-7.44c1.62,0,2.43-1.09,2.43-2.58s-.83-2.58-2.45-2.58h-1.05v5.16h1.07Z" style="fill:#fff;"/></g><g style="opacity:.6;"><ellipse cx="366.88" cy="246.14" rx="15.1" ry="2.48" style="fill:#462e3b;"/></g><g style="opacity:.6;"><ellipse cx="160.51" cy="211.99" rx="13.38" ry="1.49" style="fill:#462e3b;"/></g><g style="opacity:.6;"><ellipse cx="184.36" cy="244.48" rx="15.1" ry="2.5" style="fill:#462e3b;"/></g><g style="opacity:.6;"><ellipse cx="327.42" cy="214.41" rx="8.41" ry="1.48" style="fill:#462e3b;"/></g><g style="opacity:.6;"><ellipse cx="225.56" cy="209.81" rx="8.41" ry="1.48" style="fill:#462e3b;"/></g><g style="opacity:.6;"><ellipse cx="229.29" cy="221.48" rx="19.12" ry="1.48" style="fill:#462e3b;"/></g><g style="opacity:.6;"><ellipse cx="397.67" cy="215.45" rx="10.29" ry=".95" style="fill:#462e3b;"/></g><g style="opacity:.6;"><ellipse cx="437.25" cy="229" rx="6.82" ry=".95" style="fill:#462e3b;"/></g><g><g><path d="M127.46,214.02h5.46c.27,0,.49-.19,.53-.45l1.41-8.94c.05-.33-.2-.62-.53-.62h-8.29c-.33,0-.58,.3-.53,.62l1.41,8.94c.04,.26,.27,.45,.53,.45Z" style="fill:#fff;"/><path d="M125.41,211.45h2.42l-.89-5.46h-2.26c-.7,0-1.32,.25-1.68,.68-.27,.31-.38,.7-.31,1.09l.34,2.07c.15,.91,1.2,1.62,2.4,1.62Zm1.3-.95h-1.3c-.78,0-1.4-.44-1.46-.83l-.34-2.07c-.02-.12,.01-.23,.1-.33,.18-.21,.55-.34,.96-.34h1.46l.58,3.57Z" style="fill:#fff;"/><g style="opacity:.6;"><path d="M130.24,202.08c1.41-.81,2.33-2.49,2.45-4.23,.09-.88-.08-1.79-.38-2.65-.33-.88-.88-1.61-1.42-2.22-1.11-1.24-2.1-2.05-2.7-3.29-.61-1.22-.95-2.64-.94-4.24-.91,1.34-1.14,3.16-.69,4.84,.19,.84,.64,1.66,1.13,2.36,.5,.69,1.05,1.26,1.53,1.8,.48,.54,.88,1.05,1.16,1.59,.3,.55,.47,1.18,.58,1.84,.18,1.33,0,2.77-.72,4.2Z" style="fill:#fff;"/></g></g><g><path d="M109.15,211.37c1.1,0,2.02-.38,2.57-.61l4.29-1.78c.57-.24,1.4-.58,1.91-.61,.33,1.23,1.42,2.16,2.76,2.21,1.64,.07,3.03-1.21,3.1-2.85,.11-2.69-1.73-4.74-4.68-5.23-2.15-.35-4.08,.45-5.36,.98l-4.17,1.73c-.46-.63-.88-1.31-1.25-2.01-.75-1.46-2.55-2.04-4.01-1.29-1.46,.75-2.04,2.55-1.29,4.01,.55,1.08,1.2,2.11,1.93,3.06,.65,.86,1.59,1.89,3.12,2.26,.38,.09,.74,.13,1.08,.13Z" style="fill:#462e3b;"/><path d="M96.07,213.51c-.15-2.83-1.87-4.85-4.36-5-.52-.11-.88,.02-.87-.37,0-.77,1.81-.81,3.36-.14,2.19,.95,2.84,2.98,3.06,5.51,.25,2.85-1.53,5.56-1.56,7.97-.46-.1-.91-.24-1.31-.41,.04-1.56,1.79-4.9,1.68-7.56Z" style="fill:#b84425;"/><path d="M95.69,221.48c1.41,.31,2.96,.34,3.79,.42,2.97,.31,4.27,1.91,3.94,4.95-4.02,.29-6.73,.26-10.75,0-.05-2.47,.68-3.9,1.71-5.79,.4,.18,.84,.31,1.31,.41Z" style="fill:#462d3b;"/><path d="M55.91,178.77c3.82,1.57,6.62,3.71,8.68,7.79-.39,.76-.91,1.43-1.83,1.44-.85,.01-1.08,.54-1.39,1.17-1.07,2.17-3.6,2.75-5.53,1.24-.59-.46-.93-1.05-1.85-.46-1.78,1.16-3.55,.66-5.26-.3,.55-3.8,2.07-7.29,4.35-10.27,.72-.94,1.71-1.07,2.81-.62Z" style="fill:#fff8f0;"/><path d="M80.06,226.32c.64,.02,1.26,.04,1.9,.06,1.77,.1,4.82,.22,7.43,.33,1.21,.07,2.37,.11,3.29,.15-.05-2.46,.68-3.89,1.72-5.79,.04-1.56,1.79-4.9,1.68-7.55-.15-2.84-1.87-4.85-4.36-5-.52-.11-.87,.03-.87-.37,0-.77,1.81-.81,3.35-.15,2.19,.95,2.85,2.98,3.06,5.52,.25,2.85-1.52,5.56-1.56,7.96,1.41,.32,2.97,.34,3.79,.43,2.98,.31,4.28,1.91,3.94,4.95,.66-.02,1.31-.04,1.97-.06,5.03,.26,5.93,0,4.65-3.93-2.07-6.35-1.55-21.09-1.69-22.7,.08-3.05-.13-6.01,.09-9.05,.5-6.78-8.04-8.57-13.23-7.69-2.73,.46-4.91,.97-7.07,2.73-1.96,1.6-3.71,4.99-4.73,7.28-2.62,5.89-3.24,12.53-3.28,18.89,0,.17,0,.35,0,.52v.48c0,.77,0,1.55,.03,2.32l.03,.03c.08,1.74,.23,3.78,.54,5.24,0,0-.14,.13-.5,.13l-.16,5.29Z" style="fill:#f3682a;"/><path d="M104.11,202.05c.19-.53,.98-.44,1.05,.12,.53,4.62,1.72,15.34,3.99,20.3,1.72,3.75,.86,4.12-4.16,4.43-3.11-8.27-3.9-16.56-.87-24.85Z" style="fill:#462d3b;"/><path d="M54.72,213.61c5.56,8.39,13.11,12.27,22.55,12.66,.77,.03,1.57,.04,2.36,.03,.14,0,.29,0,.43,0l.16-5.29c-.25,0-.61-.06-1.09-.28-.66-.31-1.28-.67-1.86-1.08-3.41-2.46-5.22-6.59-6.05-10.57-1.15-5.5-1.26-9.27-2.96-14.69-1.11-3.57-2.6-6.03-3.66-7.83-.39,.76-.91,1.42-1.83,1.44-.85,0-1.08,.54-1.39,1.17-1.07,2.17-3.6,2.75-5.53,1.24-.59-.47-.93-1.05-1.85-.46-1.78,1.16-3.55,.66-5.26-.3,0,0-.32,1.74-.37,2.62-.46,7.87,1.98,14.76,6.34,21.32Z" style="fill:#f3682a;"/><g><path d="M82.65,184.63c.57,.85,1.96,1.26,3,1.57,1.06,.31,2.78,1.14,4.7,2.2,2.88,1.6,6.22,3.77,8.45,5.65,2.5,1.83,5.14,1.64,6.94-.9,1.38-1.93,3.17-3.87,5.01-5.63,3.6-3.43,7.42-6.17,8.81-6.72-1.65-1.85-3.76-3.09-6.13-3.33-4.18-.44-8.42,1.05-9.52,6.76-.4,2.1-.23,4.75,.05,6.85,.42,.55,.47,1.13-.06,1.77-.75,.94-1.76,.93-2.68,.76-.85-.17-1.63-1.01-1.23-2.1,.02-.01,.02-.03,.03-.04-.36-2.96-.76-4.88-1.67-7.25-1.71-4.46-7.03-5.78-10.95-3.62-1.86,1.03-3.5,2.23-4.75,4.02Z" style="fill:#fff8f0;"/><path d="M113.43,177.47c-4.18-.44-8.42,1.05-9.51,6.77-.4,2.11-.23,4.75,.05,6.86,0,0,0,0,0,0-.07-.09-.15-.18-.24-.27-.82-.39-2.71-.42-3.7,.67-.36-2.96-.76-4.88-1.68-7.26-1.71-4.45-7.03-5.78-10.95-3.61-1.86,1.03-3.5,2.23-4.75,4.02-.41-.41-.34-1.05-.13-1.85,1.24-4.71,2.14-8.51,3.53-11.38,.07-.14,.14-.27,.21-.4,.62-.06,1.31-.73,1.32-1.41,.3-1.09,2.34-3.21,3.87-3.96,0,0,.01,.02,.01,.02,.49-.03,1.27-.38,1.42-1.2,0,0,0,0,0,0,1.83-.8,4.02-1.32,6.7-1.65,3.05-.37,5.56-.08,7.6,.54-.02,.05-.04,.11-.06,.16,.3,.78,1.13,.97,1.62,.91,0-.03,.02-.06,.03-.09,1.64,.36,4.24,2.09,4.75,3.14,.14,.67,.95,1.2,1.57,1.14,.01-.02,.02-.04,.03-.06,.05,.02,.09,.04,.13,.04,3.12,3.87,3.35,7.37,5,11.06,.28,.62-.14,.95-.69,1.15-1.65-1.85-3.76-3.09-6.13-3.34Z" style="fill:#f3682a;"/><path d="M86.14,165.69c0-1.06-.19-2.63,.97-2.88,1.71-.38,4.03,2.26,4.33,2.83-1.53,.74-3.57,2.86-3.87,3.96-.92-1.11-1.43-2.57-1.43-3.9Z" style="fill:#fff8f0;"/><path d="M103.73,190.82c.09,.09,.17,.18,.24,.27,.41,.55,.47,1.12-.06,1.77-.76,.94-1.77,.94-2.68,.76-.85-.16-1.64-1.01-1.23-2.1,.01-.01,.02-.02,.03-.03,.99-1.08,2.88-1.06,3.7-.67Z" style="fill:#462d3b;"/><path d="M91.45,165.66s-.01-.02-.01-.02c-.3-.57-2.62-3.2-4.33-2.83-1.16,.25-.96,1.82-.97,2.88,0,1.34,.51,2.8,1.43,3.9-.02,.69-.71,1.35-1.32,1.41,0,0,0,0,0,0-1.76-1.99-2.66-6.6-1.2-8.93,.58-.92,1.59-1.63,2.62-1.18,2.11,.92,4.02,1.21,5.22,3.55,0,0,0,0,0,0-.15,.82-.93,1.16-1.42,1.2Z" style="fill:#462d3b;"/><path d="M112.9,160.42c.2-.07,.37-.09,.52-.08,.2,.11,.37,.28,.52,.5,.15,.37,.25,.95,.37,1.84,.17,1.33-.09,3.53-.8,4.79-.51-1.05-3.1-2.78-4.75-3.14,.37-1.13,2.49-3.38,4.13-3.91Z" style="fill:#fff8f0;"/><path d="M113.51,167.47c.7-1.26,.97-3.47,.8-4.79-.11-.89-.22-1.47-.37-1.84-.13-.32-.29-.47-.52-.5-.14-.02-.31,.01-.52,.08-1.64,.53-3.76,2.78-4.13,3.91,0,.03-.02,.06-.03,.09-.49,.06-1.32-.13-1.62-.91,.02-.06,.04-.11,.06-.16,.82-2.45,3.58-4.11,5.65-5,1.52-.66,1.85,.13,2.45,1.04,1.51,2.27,1.18,6.88-.15,9.18-.01,.02-.02,.04-.03,.06-.62,.06-1.43-.47-1.57-1.14Z" style="fill:#462d3b;"/><path d="M111.92,180.75c-.13-1.21-1.15-1.55-2.08-1.44-1.21,.13-1.59,1.06-1.48,2.14,.09,.86,.9,1.45,1.93,1.38,1.07-.28,1.76-.92,1.64-2.07Z" style="fill:#462d3b;"/><path d="M94.44,183.11c-.13-1.21-1.15-1.55-2.08-1.44-1.21,.13-1.59,1.06-1.48,2.14,.09,.86,.9,1.45,1.93,1.38,1.07-.28,1.76-.92,1.64-2.07Z" style="fill:#462d3b;"/></g></g></g><g><path d="M194.51,227.54c-.9,.89-1.94,1.66-3.12,2.28-6.57,3.49-14.72,1-18.21-5.57-3.49-6.56-1-14.72,5.57-18.21,1.17-.62,2.4-1.06,3.64-1.31-4.15,4.07-5.32,10.53-2.45,15.92s8.88,8.04,14.57,6.88Z" style="fill:#4dd0e1;"/><path d="M190.21,224.51h1.34v.71h-2.51v-.51l1.31-1.73h-1.25v-.71h2.42v.5l-1.31,1.74Z" style="fill:#4dd0e1;"/><path d="M185.14,218.62h1.89v1h-3.53v-.72l1.85-2.43h-1.77v-1h3.41v.7l-1.85,2.46Z" style="fill:#4dd0e1;"/><path d="M192.48,215.97h2.35v1.21h-4.38v-.87l2.29-2.95h-2.19v-1.21h4.24v.85l-2.3,2.98Z" style="fill:#4dd0e1;"/></g><path d="M236.74,43.04c2.73,0,5-1.9,5.61-4.44h-11.23c.61,2.54,2.88,4.44,5.61,4.44Z" style="fill:#fff;"/><path d="M240.2,21.92c-.15-.12-.34-.19-.53-.19h-5.86c-.19,0-.38,.07-.53,.19l-14.87,12.23c-.2,.16-.32,.4-.32,.66v.99c0,.47,.38,.84,.84,.84h35.6c.47,0,.84-.38,.84-.84v-.99c0-.26-.12-.5-.31-.66l-14.87-12.23Z" style="fill:#f2692c;"/><rect x="236.04" y="0" width="1.4" height="21.73" style="fill:#f2692c;"/><path d="M399.94,43.04c2.73,0,5-1.9,5.61-4.44h-11.23c.61,2.54,2.88,4.44,5.61,4.44Z" style="fill:#fff;"/><path d="M403.4,21.92c-.15-.12-.34-.19-.53-.19h-5.86c-.19,0-.38,.07-.53,.19l-14.87,12.23c-.2,.16-.31,.4-.31,.66v.99c0,.47,.38,.84,.84,.84h35.6c.47,0,.84-.38,.84-.84v-.99c0-.26-.12-.5-.31-.66l-14.87-12.23Z" style="fill:#f2692c;"/><rect x="399.24" y="0" width="1.4" height="21.73" style="fill:#f2692c;"/><path d="M451.44,26.2c-.35,0-.63,.28-.63,.63v6.79c0,.35,.28,.63,.63,.63h12.56v-8.06h-12.56Z" style="fill:#f57f17; opacity:.4;"/><path d="M451.44,34.75c-.63,0-1.13-.51-1.13-1.13v-6.79c0-.63,.51-1.13,1.13-1.13h12.56v-.5h-12.56c-.9,0-1.63,.73-1.63,1.63v6.79c0,.9,.73,1.63,1.63,1.63h12.56v-.5h-12.56Z" style="fill:#d84315; opacity:.4;"/><path d="M450.31,26.83v6.79c0,.63,.51,1.13,1.13,1.13h12.56v-.5h-12.56c-.35,0-.63-.28-.63-.63v-6.79c0-.35,.28-.63,.63-.63h12.56v-.5h-12.56c-.63,0-1.13,.51-1.13,1.13Z" style="fill:#d84315; opacity:.4;"/></g></g></g></svg>