<?xml version="1.0" encoding="UTF-8"?><svg id="v" xmlns="http://www.w3.org/2000/svg" xmlns:xlink="http://www.w3.org/1999/xlink" viewBox="0 0 464 261"><defs><linearGradient id="w" x1="3.3" y1="60.13" x2="446.54" y2="197.37" gradientUnits="userSpaceOnUse"><stop offset="0" stop-color="#404040"/><stop offset=".26" stop-color="#393f45"/><stop offset=".62" stop-color="#283e54"/><stop offset="1" stop-color="#0f3d6c"/></linearGradient></defs><rect width="464" height="261.88" style="fill:url(#w);"/><g><ellipse cx="369.61" cy="7.57" rx="12.68" ry="6.18" style="fill:#e5e5e5; opacity:.5;"/><path d="M434.85,6.33c4.08,0,7.45-2.7,7.96-6.18h-15.93c.51,3.49,3.88,6.18,7.96,6.18Z" style="fill:#e5e5e5; opacity:.5;"/><g style="opacity:.5;"><path d="M456.11,63.78c.11,.16,.23,.33,.35,.48-.12-.16-.23-.32-.35-.48Z" style="fill:none;"/><path d="M453.72,58.43c.04,.19,.1,.38,.15,.57-.05-.19-.11-.38-.15-.57Z" style="fill:none;"/><path d="M454.11,59.84c.07,.2,.14,.39,.21,.59-.07-.2-.15-.39-.21-.59Z" style="fill:none;"/><path d="M458.2,66.17c-.18-.15-.35-.32-.52-.48,.16,.17,.33,.34,.5,.51,0,0,.01-.02,.02-.03Z" style="fill:none;"/><path d="M457.08,65.03c.11,.12,.21,.25,.32,.37-.11-.12-.21-.25-.32-.37Z" style="fill:none;"/><path d="M454.64,61.2c.09,.19,.18,.39,.27,.58-.1-.19-.19-.38-.27-.58Z" style="fill:none;"/><path d="M455.3,62.51c.1,.18,.21,.37,.32,.55-.11-.18-.22-.36-.32-.55Z" style="fill:none;"/><path d="M458.44,66.46c.23,.21,.45,.44,.69,.64-.24-.2-.47-.42-.69-.64h0Z" style="fill:none;"/><path d="M453.48,56.98c.02,.17,.05,.33,.08,.5-.02-.17-.06-.33-.08-.5Z" style="fill:none;"/><path d="M458.44,66.46c-.09-.09-.19-.17-.28-.25,0,0,0,0,.01-.01-.17-.17-.33-.33-.5-.51-.06-.05-.12-.11-.17-.16-.04-.04-.07-.08-.1-.12-.11-.12-.21-.25-.32-.37-.22-.25-.43-.51-.63-.77-.12-.16-.23-.32-.35-.48-.17-.24-.33-.48-.49-.73-.11-.18-.22-.36-.32-.55-.14-.24-.27-.49-.39-.73-.1-.19-.19-.38-.27-.58-.11-.25-.22-.51-.31-.77-.07-.2-.15-.39-.21-.59-.09-.27-.17-.55-.24-.83-.05-.19-.11-.38-.15-.57-.07-.31-.12-.63-.16-.95-.02-.17-.06-.33-.08-.5-.05-.49-.08-.99-.08-1.49,0-6.29,4.22-11.75,10.41-14.5V.15h-21c-.51,3.49-3.88,6.18-7.96,6.18s-7.45-2.7-7.96-6.18H243.35c3.53,63.43,56.07,113.78,120.39,113.78,38.79,0,73.3-18.33,95.36-46.79-.23-.22-.45-.45-.66-.68h0ZM369.61,1.39c7,0,12.68,2.77,12.68,6.18s-5.68,6.18-12.68,6.18-12.68-2.77-12.68-6.18,5.68-6.18,12.68-6.18Zm-46.69,22.26c0-2.73,2.35-4.95,5.26-4.95s5.26,2.21,5.26,4.95-2.35,4.95-5.26,4.95-5.26-2.21-5.26-4.95Zm25.04,50.09c-9.73,0-17.62-4.57-17.62-10.2s7.89-10.2,17.62-10.2,17.62,4.57,17.62,10.2-7.89,10.2-17.62,10.2Zm21.64-34.63c-3.24,0-5.87-.83-5.87-1.86s2.63-1.86,5.87-1.86,5.87,.83,5.87,1.86-2.63,1.86-5.87,1.86Zm21.02,56.89c-6.66,0-12.06-3.32-12.06-7.42s5.4-7.42,12.06-7.42,12.06,3.32,12.06,7.42-5.4,7.42-12.06,7.42Zm32.77-25.35c-2.9,0-5.26-1.94-5.26-4.33s2.35-4.33,5.26-4.33,5.26,1.94,5.26,4.33-2.35,4.33-5.26,4.33Zm-5.26-26.59c-10.25,0-18.55-4.43-18.55-9.89s8.31-9.89,18.55-9.89,18.55,4.43,18.55,9.89-8.31,9.89-18.55,9.89Z" style="fill:#fff;"/><ellipse cx="418.15" cy="34.16" rx="18.55" ry="9.89" style="fill:#e5e5e5;"/><ellipse cx="423.41" cy="66.31" rx="5.26" ry="4.33" style="fill:#e5e5e5;"/><path d="M369.61,35.4c-3.24,0-5.87,.83-5.87,1.86s2.63,1.86,5.87,1.86,5.87-.83,5.87-1.86-2.63-1.86-5.87-1.86Z" style="fill:#e5e5e5;"/><path d="M453.4,55.49c0,.5,.03,1,.08,1.49,.02,.17,.05,.33,.08,.5,.05,.32,.09,.64,.16,.95,.04,.19,.1,.38,.15,.57,.07,.28,.15,.56,.24,.83,.07,.2,.14,.39,.21,.59,.1,.26,.2,.52,.31,.77,.09,.19,.18,.39,.27,.58,.12,.25,.25,.49,.39,.73,.1,.18,.21,.37,.32,.55,.15,.25,.32,.49,.49,.73,.11,.16,.23,.33,.35,.48,.2,.26,.41,.52,.63,.77,.11,.12,.21,.25,.32,.37,.09,.1,.19,.19,.28,.28,.17,.16,.34,.33,.52,.48,0,0-.01,.02-.02,.03,.09,.09,.17,.18,.26,.27,.23,.22,.45,.44,.69,.64,1.63-2.1,3.19-4.26,4.68-6.47v-19.63c-6.19,2.75-10.41,8.2-10.41,14.5Z" style="fill:#e5e5e5;"/><path d="M454.91,61.78c.12,.25,.25,.49,.39,.73-.14-.24-.27-.49-.39-.73Z" style="fill:#e5e5e5;"/><path d="M455.63,63.06c.15,.25,.32,.49,.49,.73-.17-.24-.33-.48-.49-.73Z" style="fill:#e5e5e5;"/><path d="M454.32,60.43c.1,.26,.2,.52,.31,.77-.11-.25-.22-.51-.31-.77Z" style="fill:#e5e5e5;"/><path d="M453.4,55.49c0,.5,.03,1,.08,1.49-.05-.49-.08-.99-.08-1.49Z" style="fill:#e5e5e5;"/><path d="M453.87,59.01c.07,.28,.15,.56,.24,.83-.09-.27-.17-.55-.24-.83Z" style="fill:#e5e5e5;"/><path d="M457.68,65.69c-.09-.1-.19-.19-.28-.28,.04,.04,.07,.08,.1,.12,.06,.05,.12,.11,.17,.16Z" style="fill:#e5e5e5;"/><path d="M453.56,57.48c.05,.32,.09,.64,.16,.95-.07-.31-.12-.63-.16-.95Z" style="fill:#e5e5e5;"/><path d="M458.44,66.46c-.09-.09-.17-.18-.26-.27,0,0,0,0-.01,.01,.09,.09,.19,.17,.28,.25Z" style="fill:#e5e5e5;"/><path d="M456.46,64.27c.2,.26,.41,.52,.63,.77-.22-.25-.43-.51-.63-.77Z" style="fill:#e5e5e5;"/><path d="M459.1,67.14s.02-.03,.03-.04c-.24-.2-.46-.42-.69-.64,.21,.23,.43,.46,.66,.68Z" style="fill:#e5e5e5;"/><ellipse cx="390.64" cy="88.58" rx="12.06" ry="7.42" style="fill:#e5e5e5;"/><ellipse cx="347.97" cy="63.53" rx="17.62" ry="10.2" style="fill:#e5e5e5;"/><ellipse cx="328.18" cy="23.65" rx="5.26" ry="4.95" style="fill:#e5e5e5;"/></g></g><polygon points="224.93 54.42 226.82 57.88 230.28 59.78 226.82 61.67 224.93 65.13 223.03 61.67 219.57 59.78 223.03 57.88 224.93 54.42" style="fill:#fff9c4; opacity:.5;"/><polygon points="449.49 126.16 451.19 129.26 454.29 130.96 451.19 132.65 449.49 135.76 447.8 132.65 444.69 130.96 447.8 129.26 449.49 126.16" style="fill:#fff9c4; opacity:.5;"/><polygon points="424.98 235.96 427.83 241.18 433.05 244.03 427.83 246.88 424.98 252.1 422.13 246.88 416.91 244.03 422.13 241.18 424.98 235.96" style="fill:#fff9c4; opacity:.5;"/><polygon points="90.81 140.71 92.6 143.99 95.88 145.79 92.6 147.58 90.81 150.86 89.01 147.58 85.73 145.79 89.01 143.99 90.81 140.71" style="fill:#fff9c4; opacity:.5;"/><polygon points="140.99 88.67 143.85 93.89 149.06 96.74 143.85 99.6 140.99 104.81 138.14 99.6 132.92 96.74 138.14 93.89 140.99 88.67" style="fill:#fff9c4; opacity:.5;"/><g><rect x="179.66" y="75.96" width="249.16" height="156.44" style="fill:#eceaeb;"/><rect x="179.66" y="80.31" width="22.51" height="152.1" style="fill:#58424e;"/><rect x="375.37" y="113.02" width="53.45" height="51.2" style="fill:#fff;"/><rect x="202.17" y="94.69" width="226.7" height="13.61" style="fill:#fff;"/><rect x="216.57" y="81.61" width="27.43" height="7.63" rx="1.93" ry="1.93" style="fill:#8f8188;"/><rect x="179.65" y="183.58" width="22.52" height="26.43" style="fill:#6a5761;"/><rect x="179.65" y="178.51" width="22.52" height="5.07" style="fill:#f2692c;"/><g><rect x="185.04" y="83.96" width="10.12" height="1.32" rx=".33" ry=".33" style="fill:#b5abb1;"/><rect x="185.04" y="88.89" width="6.57" height="1.32" rx=".33" ry=".33" style="fill:#b5abb1;"/><rect x="185.04" y="95.45" width="5" height="1.32" rx=".33" ry=".33" style="fill:#b5abb1;"/><rect x="185.04" y="100.48" width="13.81" height="1.32" rx=".33" ry=".33" style="fill:#b5abb1;"/><rect x="185.04" y="105.5" width="5.73" height="1.32" rx=".33" ry=".33" style="fill:#b5abb1;"/></g><g><rect x="181.2" y="83.62" width="2" height="2" rx=".51" ry=".51" style="fill:#b5abb1;"/><rect x="181.2" y="88.54" width="2" height="2" rx=".51" ry=".51" style="fill:#b5abb1;"/><rect x="181.2" y="95.11" width="2" height="2" rx=".51" ry=".51" style="fill:#b5abb1;"/><rect x="181.2" y="100.14" width="2" height="2" rx=".51" ry=".51" style="fill:#b5abb1;"/><rect x="181.2" y="105.16" width="2" height="2" rx=".51" ry=".51" style="fill:#b5abb1;"/></g><rect x="181.2" y="185.6" width="6.14" height="1.99" rx=".5" ry=".5" style="fill:#eceaeb;"/><g><rect x="181.2" y="190.04" width="9.28" height="1.55" rx=".39" ry=".39" style="fill:#c8c1c5;"/><rect x="181.2" y="194.05" width="6.27" height="1.55" rx=".39" ry=".39" style="fill:#c8c1c5;"/><rect x="181.2" y="198.06" width="7.56" height="1.55" rx=".39" ry=".39" style="fill:#c8c1c5;"/><rect x="181.2" y="202.07" width="12.53" height="1.55" rx=".39" ry=".39" style="fill:#c8c1c5;"/><rect x="181.2" y="206.08" width="4.46" height="1.55" rx=".39" ry=".39" style="fill:#c8c1c5;"/></g><polygon points="425.55 117.66 424.76 116.86 424.95 116.67 425.55 117.28 426.19 116.64 426.38 116.83 425.55 117.66" style="fill:#a2969c;"/><polygon points="249.8 87.35 247.42 84.98 247.99 84.41 249.8 86.21 251.69 84.32 252.26 84.89 249.8 87.35" style="fill:#8f8188;"/><path d="M354.63,127.47H217.23c-.42,0-.76-.34-.76-.76v-5.36c0-.42,.34-.76,.76-.76h137.4c.42,0,.76,.34,.76,.76v5.36c0,.42-.34,.76-.76,.76Zm-137.4-6.62c-.27,0-.49,.22-.49,.49v5.36c0,.27,.22,.5,.49,.5h137.4c.27,0,.49-.22,.49-.5v-5.36c0-.27-.22-.49-.49-.49H217.23Z" style="fill:#7d6c75;"/><g><rect x="216.6" y="152.7" width="138.66" height="22.03" rx="1.15" ry="1.15" style="fill:#fff;"/><path d="M354.13,174.87h-1.63v-.27h1.61v.27Zm-3.23,0h-1.61v-.27h1.61v.27Zm-3.23,0h-1.61v-.27h1.61v.27Zm-3.23,0h-1.61v-.27h1.61v.27Zm-3.23,0h-1.61v-.27h1.61v.27Zm-3.23,0h-1.61v-.27h1.61v.27Zm-3.23,0h-1.61v-.27h1.61v.27Zm-3.23,0h-1.61v-.27h1.61v.27Zm-3.23,0h-1.61v-.27h1.61v.27Zm-3.23,0h-1.61v-.27h1.61v.27Zm-3.23,0h-1.61v-.27h1.61v.27Zm-3.23,0h-1.61v-.27h1.61v.27Zm-3.23,0h-1.61v-.27h1.61v.27Zm-3.23,0h-1.61v-.27h1.61v.27Zm-3.23,0h-1.61v-.27h1.61v.27Zm-3.23,0h-1.61v-.27h1.61v.27Zm-3.23,0h-1.61v-.27h1.61v.27Zm-3.23,0h-1.61v-.27h1.61v.27Zm-3.23,0h-1.61v-.27h1.61v.27Zm-3.23,0h-1.61v-.27h1.61v.27Zm-3.23,0h-1.61v-.27h1.61v.27Zm-3.23,0h-1.61v-.27h1.61v.27Zm-3.23,0h-1.61v-.27h1.61v.27Zm-3.23,0h-1.61v-.27h1.61v.27Zm-3.23,0h-1.61v-.27h1.61v.27Zm-3.23,0h-1.61v-.27h1.61v.27Zm-3.23,0h-1.61v-.27h1.61v.27Zm-3.23,0h-1.61v-.27h1.61v.27Zm-3.23,0h-1.61v-.27h1.61v.27Zm-3.23,0h-1.61v-.27h1.61v.27Zm-3.23,0h-1.61v-.27h1.61v.27Zm-3.23,0h-1.61v-.27h1.61v.27Zm-3.23,0h-1.61v-.27h1.61v.27Zm-3.23,0h-1.61v-.27h1.61v.27Zm-3.23,0h-1.61v-.27h1.61v.27Zm-3.23,0h-1.61v-.27h1.61v.27Zm-3.23,0h-1.61v-.27h1.61v.27Zm-3.23,0h-1.61v-.27h1.61v.27Zm-3.23,0h-1.61v-.27h1.61v.27Zm-3.23,0h-1.61v-.27h1.61v.27Zm-3.23,0h-1.61v-.27h1.61v.27Zm-3.23,0h-1.61v-.27h1.61v.27Zm-3.23,0h-.86c-.28,0-.55-.09-.78-.26l.16-.21c.18,.14,.39,.21,.62,.21h.86v.27Zm136.77-1.08l-.27-.04c0-.05,.01-.1,.01-.16v-1.43h.27v1.43c0,.07,0,.13-.02,.2Zm-138.65-.76h-.27v-1.61h.27v1.61Zm138.66-2.49h-.27v-1.61h.27v1.61Zm-138.66-.74h-.27v-1.61h.27v1.61Zm138.66-2.49h-.27v-1.61h.27v1.61Zm-138.66-.74h-.27v-1.61h.27v1.61Zm138.66-2.49h-.27v-1.61h.27v1.61Zm-138.66-.74h-.27v-1.61h.27v1.61Zm138.66-2.49h-.27v-1.61h.27v1.61Zm-138.66-.74h-.27v-1.61h.27v1.61Zm138.66-2.49h-.27v-1.61h.27v1.61Zm-138.66-.74h-.27v-1.61h.27v1.61Zm138.66-2.49h-.27v-.55c0-.32-.15-.62-.4-.81l.16-.21c.32,.24,.51,.62,.51,1.02v.55Zm-138.65-.71l-.27-.04c.1-.62,.63-1.07,1.26-1.08v.27c-.5,0-.91,.36-.99,.85Zm136.5-.85h-1.61v-.27h1.61v.27Zm-3.23,0h-1.61v-.27h1.61v.27Zm-3.23,0h-1.61v-.27h1.61v.27Zm-3.23,0h-1.61v-.27h1.61v.27Zm-3.23,0h-1.61v-.27h1.61v.27Zm-3.23,0h-1.61v-.27h1.61v.27Zm-3.23,0h-1.61v-.27h1.61v.27Zm-3.23,0h-1.61v-.27h1.61v.27Zm-3.23,0h-1.61v-.27h1.61v.27Zm-3.23,0h-1.61v-.27h1.61v.27Zm-3.23,0h-1.61v-.27h1.61v.27Zm-3.23,0h-1.61v-.27h1.61v.27Zm-3.23,0h-1.61v-.27h1.61v.27Zm-3.23,0h-1.61v-.27h1.61v.27Zm-3.23,0h-1.61v-.27h1.61v.27Zm-3.23,0h-1.61v-.27h1.61v.27Zm-3.23,0h-1.61v-.27h1.61v.27Zm-3.23,0h-1.61v-.27h1.61v.27Zm-3.23,0h-1.61v-.27h1.61v.27Zm-3.23,0h-1.61v-.27h1.61v.27Zm-3.23,0h-1.61v-.27h1.61v.27Zm-3.23,0h-1.61v-.27h1.61v.27Zm-3.23,0h-1.61v-.27h1.61v.27Zm-3.23,0h-1.61v-.27h1.61v.27Zm-3.23,0h-1.61v-.27h1.61v.27Zm-3.23,0h-1.61v-.27h1.61v.27Zm-3.23,0h-1.61v-.27h1.61v.27Zm-3.23,0h-1.61v-.27h1.61v.27Zm-3.23,0h-1.61v-.27h1.61v.27Zm-3.23,0h-1.61v-.27h1.61v.27Zm-3.23,0h-1.61v-.27h1.61v.27Zm-3.23,0h-1.61v-.27h1.61v.27Zm-3.23,0h-1.61v-.27h1.61v.27Zm-3.23,0h-1.61v-.27h1.61v.27Zm-3.23,0h-1.61v-.27h1.61v.27Zm-3.23,0h-1.61v-.27h1.61v.27Zm-3.23,0h-1.61v-.27h1.61v.27Zm-3.23,0h-1.61v-.27h1.61v.27Zm-3.23,0h-1.61v-.27h1.61v.27Zm-3.23,0h-1.61v-.27h1.61v.27Zm-3.23,0h-1.61v-.27h1.61v.27Zm-3.23,0h-1.61v-.27h1.61v.27Z" style="fill:#7d6c75;"/></g><rect x="216.6" y="116.88" width="14.95" height="2.28" rx=".58" ry=".58" style="fill:#8f8188;"/><g><path d="M281.98,145.11h-64.95c-.31,0-.57-.25-.57-.57v-5.75c0-.31,.25-.57,.57-.57h64.95c.31,0,.57,.25,.57,.57v5.75c0,.31-.25,.57-.57,.57Zm-64.95-6.62c-.16,0-.3,.13-.3,.3v5.75c0,.17,.13,.3,.3,.3h64.95c.16,0,.3-.13,.3-.3v-5.75c0-.17-.13-.3-.3-.3h-64.95Z" style="fill:#7d6c75;"/><path d="M354.83,145.11h-64.95c-.31,0-.57-.25-.57-.57v-5.75c0-.31,.25-.57,.57-.57h64.95c.31,0,.57,.25,.57,.57v5.75c0,.31-.25,.57-.57,.57Zm-64.95-6.62c-.16,0-.3,.13-.3,.3v5.75c0,.17,.13,.3,.3,.3h64.95c.16,0,.3-.13,.3-.3v-5.75c0-.17-.13-.3-.3-.3h-64.95Z" style="fill:#7d6c75;"/><rect x="216.6" y="134.52" width="6.14" height="2.28" rx=".58" ry=".58" style="fill:#8f8188;"/><rect x="289.45" y="134.52" width="12.75" height="2.28" rx=".58" ry=".58" style="fill:#8f8188;"/></g><rect x="375.37" y="121.26" width="53.6" height=".27" style="fill:#b5abb1;"/><rect x="381.87" y="116.24" width="22.64" height="1.72" rx=".44" ry=".44" style="fill:#a2969c;"/><g><rect x="375.37" y="167.47" width="53.45" height="8.63" style="fill:#fff;"/><polygon points="425.55 172.34 424.76 171.55 424.95 171.36 425.55 171.96 426.19 171.33 426.38 171.52 425.55 172.34" style="fill:#a2969c;"/><rect x="381.87" y="170.93" width="22.64" height="1.72" rx=".44" ry=".44" style="fill:#a2969c;"/></g><g><rect x="375.37" y="179.47" width="53.45" height="8.63" style="fill:#fff;"/><polygon points="425.55 184.34 424.76 183.55 424.95 183.36 425.55 183.96 426.19 183.33 426.38 183.52 425.55 184.34" style="fill:#a2969c;"/><rect x="381.87" y="182.93" width="22.64" height="1.72" rx=".44" ry=".44" style="fill:#a2969c;"/></g><g><rect x="375.37" y="191.47" width="53.45" height="8.63" style="fill:#fff;"/><polygon points="425.55 196.34 424.76 195.55 424.95 195.36 425.55 195.96 426.19 195.33 426.38 195.52 425.55 196.34" style="fill:#a2969c;"/><rect x="381.87" y="194.93" width="22.64" height="1.72" rx=".44" ry=".44" style="fill:#a2969c;"/></g><rect x="181.2" y="110.33" width="2" height="2" rx=".51" ry=".51" style="fill:#b5abb1;"/><rect x="185.04" y="110.67" width="5.7" height="1.32" rx=".33" ry=".33" style="fill:#b5abb1;"/><rect x="185.04" y="115.6" width="10.08" height="1.32" rx=".33" ry=".33" style="fill:#b5abb1;"/><rect x="185.04" y="120.52" width="10.08" height="1.32" rx=".33" ry=".33" style="fill:#b5abb1;"/><rect x="185.04" y="125.45" width="4.73" height="1.32" rx=".33" ry=".33" style="fill:#b5abb1;"/><rect x="185.04" y="130.37" width="6.62" height="1.32" rx=".33" ry=".33" style="fill:#b5abb1;"/><rect x="185.04" y="135.3" width="10.08" height="1.32" rx=".33" ry=".33" style="fill:#b5abb1;"/><rect x="185.04" y="144.74" width="11.18" height="1.32" rx=".33" ry=".33" style="fill:#b5abb1;"/><rect x="185.04" y="149.67" width="5.88" height="1.32" rx=".33" ry=".33" style="fill:#b5abb1;"/><rect x="185.04" y="154.59" width="4.82" height="1.32" rx=".33" ry=".33" style="fill:#b5abb1;"/><rect x="185.04" y="159.52" width="7.71" height="1.32" rx=".33" ry=".33" style="fill:#b5abb1;"/><rect x="185.04" y="168.94" width="3.85" height="1.32" rx=".33" ry=".33" style="fill:#b5abb1;"/><rect x="185.04" y="173.87" width="10.08" height="1.32" rx=".33" ry=".33" style="fill:#b5abb1;"/><rect x="181.2" y="115.25" width="2" height="2" rx=".51" ry=".51" style="fill:#b5abb1;"/><rect x="181.2" y="120.18" width="2" height="2" rx=".51" ry=".51" style="fill:#b5abb1;"/><rect x="181.2" y="125.11" width="2" height="2" rx=".51" ry=".51" style="fill:#b5abb1;"/><rect x="181.2" y="130.03" width="2" height="2" rx=".51" ry=".51" style="fill:#b5abb1;"/><rect x="181.2" y="134.96" width="2" height="2" rx=".51" ry=".51" style="fill:#b5abb1;"/><rect x="181.2" y="144.4" width="2" height="2" rx=".51" ry=".51" style="fill:#b5abb1;"/><rect x="181.2" y="149.32" width="2" height="2" rx=".51" ry=".51" style="fill:#b5abb1;"/><rect x="181.2" y="154.25" width="2" height="2" rx=".51" ry=".51" style="fill:#b5abb1;"/><rect x="181.2" y="159.18" width="2" height="2" rx=".51" ry=".51" style="fill:#b5abb1;"/><rect x="181.2" y="168.6" width="2" height="2" rx=".51" ry=".51" style="fill:#b5abb1;"/><rect x="181.2" y="173.53" width="2" height="2" rx=".51" ry=".51" style="fill:#b5abb1;"/><path d="M304.36-52.59h4.03V196.76h-4.03c-2.29,0-4.15-1.86-4.15-4.15V-48.44c0-2.29,1.86-4.15,4.15-4.15Z" transform="translate(376.39 -232.22) rotate(90)" style="fill:#462e3b;"/><g><circle cx="422.04" cy="72.09" r="1.64" style="fill:#eceaeb;"/><circle cx="416.51" cy="72.09" r="1.64" style="fill:#eceaeb;"/><circle cx="410.98" cy="72.09" r="1.64" style="fill:#eceaeb;"/></g><rect x="251.05" y="209.75" width="10.51" height="2.28" rx=".58" ry=".58" style="fill:#b5abb1;"/><path d="M248.46,212.09c-.66,0-1.2-.54-1.2-1.2s.54-1.2,1.2-1.2,1.2,.54,1.2,1.2-.54,1.2-1.2,1.2Zm0-2.13c-.51,0-.93,.42-.93,.93s.42,.93,.93,.93,.93-.42,.93-.93-.42-.93-.93-.93Z" style="fill:#462d3b;"/><rect x="277.49" y="209.75" width="19.35" height="2.28" rx=".58" ry=".58" style="fill:#b5abb1;"/><path d="M274.9,212.09c-.66,0-1.2-.54-1.2-1.2s.54-1.2,1.2-1.2,1.2,.54,1.2,1.2-.54,1.2-1.2,1.2Zm0-2.13c-.51,0-.93,.42-.93,.93s.42,.93,.93,.93,.93-.42,.93-.93-.42-.93-.93-.93Z" style="fill:#462d3b;"/><rect x="310.81" y="209.75" width="15.02" height="2.28" rx=".58" ry=".58" style="fill:#b5abb1;"/><path d="M308.22,212.09c-.66,0-1.2-.54-1.2-1.2s.54-1.2,1.2-1.2,1.2,.54,1.2,1.2-.54,1.2-1.2,1.2Zm0-2.13c-.51,0-.93,.42-.93,.93s.42,.93,.93,.93,.93-.42,.93-.93-.42-.93-.93-.93Z" style="fill:#462d3b;"/><g><path d="M223.84,104.95h-5.16c-.46,0-.84-.38-.84-.84v-5.16c0-.46,.38-.84,.84-.84h3.86v.54h-3.86c-.17,0-.3,.14-.3,.3v5.16c0,.17,.14,.3,.3,.3h5.16c.17,0,.3-.14,.3-.3v-3.41h.54v3.41c0,.46-.38,.84-.84,.84Z" style="fill:#462e3b;"/><path d="M225.74,98.2l-3.82,3.82s-.09,.07-.14,.08l-1.09,.25c-.06,.01-.11-.04-.1-.1l.25-1.1c.01-.05,.04-.1,.08-.14l3.82-3.82c.14-.14,.36-.14,.49,0l.51,.51c.14,.14,.14,.36,0,.49Z" style="fill:#462e3b;"/><rect x="223.15" y="98.3" width="2.13" height=".27" transform="translate(-3.93 187.38) rotate(-45)" style="fill:#fff;"/><rect x="220.91" y="101.25" width=".27" height="1.24" transform="translate(-7.3 186.12) rotate(-45)" style="fill:#fff;"/><rect x="224.98" y="97.11" width=".27" height="1.42" transform="translate(-3.23 187.85) rotate(-45)" style="fill:#fff;"/></g><rect x="259.06" y="82.18" width="12.27" height="7.03" rx="1.78" ry="1.78" style="fill:#f2692c;"/><rect x="380.09" y="124.61" width="20.97" height="5.5" rx="1.39" ry="1.39" style="fill:#eceaeb;"/><rect x="403.28" y="124.61" width="20.97" height="5.5" rx="1.39" ry="1.39" style="fill:#eceaeb;"/><rect x="380.09" y="132.13" width="20.97" height="5.5" rx="1.39" ry="1.39" style="fill:#eceaeb;"/><rect x="403.28" y="132.13" width="20.97" height="5.5" rx="1.39" ry="1.39" style="fill:#eceaeb;"/><rect x="380.09" y="139.65" width="20.97" height="5.5" rx="1.39" ry="1.39" style="fill:#eceaeb;"/><rect x="403.28" y="139.65" width="20.97" height="5.5" rx="1.39" ry="1.39" style="fill:#eceaeb;"/><rect x="380.09" y="147.17" width="20.97" height="5.5" rx="1.39" ry="1.39" style="fill:#eceaeb;"/><rect x="403.28" y="147.17" width="20.97" height="5.5" rx="1.39" ry="1.39" style="fill:#eceaeb;"/><rect x="380.09" y="154.69" width="20.97" height="5.5" rx="1.39" ry="1.39" style="fill:#eceaeb;"/><rect x="375.37" y="214.22" width="15.22" height="6.26" rx="1.59" ry="1.59" style="fill:#f2692c;"/><path d="M409.78,220.74h-13.28c-.68,0-1.24-.55-1.24-1.24v-4.32c0-.68,.55-1.23,1.24-1.23h13.28c.68,0,1.24,.55,1.24,1.23v4.32c0,.68-.55,1.24-1.24,1.24Zm-13.28-6.26c-.38,0-.7,.31-.7,.7v4.32c0,.38,.31,.7,.7,.7h13.28c.38,0,.7-.31,.7-.7v-4.32c0-.38-.31-.7-.7-.7h-13.28Z" style="fill:#c8c1c5;"/><rect x="228.49" y="99.7" width="11.88" height="3.47" rx=".88" ry=".88" style="fill:#a2969c;"/><rect x="263.26" y="99.7" width="17.82" height="3.47" rx=".88" ry=".88" style="fill:#a2969c;"/><rect x="305.26" y="99.7" width="10.25" height="3.47" rx=".88" ry=".88" style="fill:#a2969c;"/><rect x="340.85" y="99.7" width="22.49" height="3.47" rx=".88" ry=".88" style="fill:#a2969c;"/><g><rect x="239.82" y="161.63" width="138.66" height="22.03" rx="4.27" ry="4.27" style="fill:#f2692c;"/><rect x="299.13" y="170.48" width="20.05" height="4.34" rx="1.1" ry="1.1" style="fill:#f5956c;"/></g><path d="M336.57,175.49l-1.53-1.22c-.13-.1-.31-.01-.31,.15v.79h-2.11v-2.11h.79c.16,0,.25-.18,.15-.31l-1.22-1.53c-.08-.1-.22-.1-.3,0l-1.22,1.53c-.1,.13-.01,.31,.15,.31h.79v2.11h-2.11v-.79c0-.16-.18-.25-.31-.15l-1.53,1.22c-.1,.08-.1,.22,0,.3l1.53,1.22c.13,.1,.31,.01,.31-.15v-.79h2.11v2.11h-.79c-.16,0-.25,.18-.15,.31l1.22,1.53c.08,.1,.22,.1,.3,0l1.22-1.53c.1-.13,.01-.31-.15-.31h-.79v-2.11h2.11v.79c0,.16,.18,.25,.31,.15l1.53-1.22c.1-.08,.1-.22,0-.3Z" style="fill:#fff;"/><g><g><path d="M281.98,201.15h-64.95c-.31,0-.57-.25-.57-.57v-5.75c0-.31,.25-.57,.57-.57h64.95c.31,0,.57,.25,.57,.57v5.75c0,.31-.25,.57-.57,.57Zm-64.95-6.62c-.16,0-.3,.13-.3,.3v5.75c0,.17,.13,.3,.3,.3h64.95c.16,0,.3-.13,.3-.3v-5.75c0-.17-.13-.3-.3-.3h-64.95Z" style="fill:#7d6c75;"/><rect x="216.6" y="190.56" width="20.13" height="2.28" rx=".58" ry=".58" style="fill:#8f8188;"/></g><rect x="216.6" y="209.75" width="20.13" height="2.28" rx=".58" ry=".58" style="fill:#8f8188;"/><g><polygon points="277.85 197.21 279.38 195.68 280.91 197.21 277.85 197.21" style="fill:#462e3b;"/><polygon points="280.91 198.21 279.38 199.74 277.85 198.21 280.91 198.21" style="fill:#462e3b;"/></g></g><g><path d="M255.1,103.77l.08,.6c.01,.08-.03,.15-.1,.18l-.91,.44c-.07,.03-.15,.02-.2-.04l-.42-.43h-.95s-.42,.44-.42,.44c-.05,.05-.13,.07-.2,.04l-.92-.44c-.07-.03-.11-.11-.1-.18l.08-.6-.6-.74-.6-.05c-.08,0-.14-.06-.16-.13l-.23-.99c-.02-.07,.01-.15,.08-.19l.52-.32,.21-.93-.33-.51c-.04-.06-.04-.15,0-.21l.63-.8c.05-.06,.13-.08,.2-.06l.57,.21,.86-.42,.19-.58c.02-.07,.09-.12,.17-.12h1.02c.08,0,.14,.04,.17,.12l.19,.57,.86,.41,.57-.21c.07-.03,.15,0,.2,.05l.64,.79c.05,.06,.05,.14,.01,.21l-.33,.51,.22,.93,.52,.31c.07,.04,.1,.12,.08,.19l-.22,.99c-.02,.07-.08,.13-.15,.14l-.6,.06-.59,.75Zm-.4-3.02c-.44-.9-1.53-1.28-2.44-.84s-1.28,1.53-.84,2.44,1.53,1.28,2.44,.84,1.28-1.53,.84-2.44Z" style="fill:#462e3b;"/><path d="M260.05,100.23l-.02,.31s-.03,.07-.07,.08l-.5,.14s-.08,0-.1-.04l-.17-.26-.48-.09-.25,.18s-.07,.02-.1,0l-.42-.3s-.04-.06-.03-.1l.09-.29-.23-.43-.3-.08s-.06-.04-.06-.08l-.02-.51s.02-.07,.06-.09l.29-.11,.19-.44-.12-.28s0-.08,.02-.1l.39-.34s.07-.03,.1,0l.26,.16,.47-.13,.15-.27s.06-.05,.09-.04l.51,.09s.07,.04,.07,.08l.04,.3,.39,.28,.3-.05s.08,.01,.09,.05l.24,.45s.01,.08-.01,.1l-.21,.22,.02,.48,.23,.2s.04,.07,.02,.1l-.2,.47s-.05,.06-.09,.05l-.31-.03-.36,.32Zm.08-1.54c-.14-.49-.64-.78-1.14-.65s-.78,.64-.65,1.14,.64,.78,1.14,.65,.78-.64,.65-1.14Z" style="fill:#462e3b;"/><path d="M260.05,105.36l-.02,.31s-.03,.07-.07,.08l-.5,.14s-.08,0-.1-.04l-.17-.26-.48-.09-.25,.18s-.07,.02-.1,0l-.42-.3s-.04-.06-.03-.1l.09-.29-.23-.43-.3-.08s-.06-.04-.06-.08l-.02-.51s.02-.07,.06-.09l.29-.11,.19-.44-.12-.28s0-.08,.02-.1l.39-.34s.07-.03,.1,0l.26,.16,.47-.13,.15-.27s.06-.05,.09-.04l.51,.09s.07,.04,.07,.08l.04,.3,.39,.28,.3-.05s.08,.01,.09,.05l.24,.45s.01,.08-.01,.1l-.21,.22,.02,.48,.23,.2s.04,.07,.02,.1l-.2,.47s-.05,.06-.09,.05l-.31-.03-.36,.32Zm.08-1.54c-.14-.49-.64-.78-1.14-.65s-.78,.64-.65,1.14,.64,.78,1.14,.65,.78-.64,.65-1.14Z" style="fill:#462e3b;"/></g><path d="M292.93,105.62l.23-.52c.09-.2,.17-.44,.24-.68,.04-.13,.09-.26,.13-.39-1.14-.69-1.79-1.68-1.79-2.74,0-2,2.34-3.63,5.22-3.63s5.22,1.63,5.22,3.63-2.34,3.63-5.22,3.63c-.52,0-1.05-.06-1.56-.17-.47,.22-1.53,.61-1.92,.72l-.55,.15Zm4.03-7.42c-2.58,0-4.68,1.38-4.68,3.09,0,.92,.63,1.79,1.72,2.38l.21,.12-.09,.22c-.07,.17-.13,.37-.2,.58-.02,.06-.04,.13-.06,.19,.49-.17,1.12-.41,1.39-.55l.09-.04,.1,.02c.5,.12,1.01,.17,1.53,.17,2.58,0,4.68-1.38,4.68-3.09s-2.1-3.09-4.68-3.09Z" style="fill:#462e3b;"/><g><path d="M331.63,105.26c-3.26,0-5.82-3.39-5.93-3.53l-.12-.16,.12-.16c.11-.14,2.68-3.53,5.93-3.53s5.82,3.39,5.93,3.53l.12,.16-.12,.16c-.11,.14-2.68,3.53-5.93,3.53Zm-5.37-3.69c.55,.66,2.77,3.15,5.37,3.15s4.82-2.49,5.37-3.15c-.55-.66-2.77-3.15-5.37-3.15s-4.82,2.49-5.37,3.15Z" style="fill:#462e3b;"/><circle cx="331.63" cy="101.57" r="2.24" style="fill:#462e3b;"/><circle cx="332.93" cy="100.1" r=".74" style="fill:#fff;"/></g></g><g><path d="M442.35,73.87c0,3.33-2.37,7.43-5.25,9.09l-22.64,13.06c-2.89,1.68-7.61,1.68-10.49,0l-22.64-13.06c-2.89-1.68-5.25-5.75-5.25-9.09v-26.14c0-3.33,2.35-7.43,5.25-9.09l22.64-13.06c2.89-1.68,7.61-1.68,10.49,0l22.62,13.06c2.89,1.66,5.25,5.75,5.25,9.09l.02,26.14h0Z" style="fill:#f15a2b;"/><path d="M401.49,53.36h30.97v-8.7h-30.9c-4.42,0-8.09,1.52-10.89,4.49-6.75,7.18-6.92,25.27-6.92,25.27h48.48v-16.36h-8.7v7.65h-30.48c.19-2.85,1.5-7.95,3.98-10.59,1.12-1.21,2.53-1.77,4.46-1.77h0Z" style="fill:#fff;"/></g><g><path d="M20.78,39.76c.43,1.34,1.54,2.22,2.8,2.22s2.32-.61,2.32-1.97c0-2.87-7.28-2.85-7.28-8.22,0-2.72,1.99-4.81,4.86-4.81s4.51,1.59,5.37,3.81l-2.85,1.76c-.43-1.46-1.18-2.42-2.52-2.42-.93,0-1.59,.58-1.59,1.56,0,3.13,7.28,2.5,7.28,8.32,0,3.13-2.32,5.12-5.59,5.12-2.72,0-4.71-1.41-5.6-3.48l2.8-1.89Z" style="fill:#f2f2f2;"/><rect x="32.1" y="27.23" width="3.28" height="17.64" style="fill:#f2f2f2;"/><path d="M49.95,44.88v-10.86c0-.5,.02-1.21,.02-1.21h-.05s-.3,.6-.55,1.01l-3.02,5.09h-.05l-2.97-5.04c-.23-.4-.61-1.11-.61-1.11h-.05s.02,.73,.02,1.26v10.86h-3.28V27.23h3.63l2.67,4.74c.23,.4,.58,1.11,.58,1.11h.05s.38-.71,.61-1.14l2.65-4.71h3.63v17.64h-3.28Z" style="fill:#f2f2f2;"/><path d="M57.26,44.88V27.23h4.89c4.01,0,5.67,3.23,5.67,6.3s-1.87,6.43-6.15,6.43h-1.13v4.92h-3.28Zm4.51-8.07c1.87,0,2.8-1.51,2.8-3.23s-.96-3.23-2.82-3.23h-1.21v6.45h1.24Z" style="fill:#f2f2f2;"/><polygon points="70.53 44.88 70.53 27.23 73.8 27.23 73.8 41.73 78.94 41.73 78.94 44.88 70.53 44.88" style="fill:#f2f2f2;"/><path d="M87.31,44.88h-3.3v-4.97l-4.26-12.68h3.68l1.76,6.33c.25,.93,.45,2.22,.45,2.22h.05c.02-.25,.2-1.29,.45-2.22l1.74-6.33h3.7l-4.28,12.83v4.81Z" style="fill:#f2f2f2;"/><path d="M101.64,39.76c.43,1.34,1.54,2.22,2.8,2.22s2.32-.61,2.32-1.97c0-2.87-7.28-2.85-7.28-8.22,0-2.72,1.99-4.81,4.86-4.81s4.51,1.59,5.37,3.81l-2.85,1.76c-.43-1.46-1.18-2.42-2.52-2.42-.93,0-1.59,.58-1.59,1.56,0,3.13,7.28,2.5,7.28,8.32,0,3.13-2.32,5.12-5.6,5.12-2.72,0-4.71-1.41-5.6-3.48l2.8-1.89Z" style="fill:#f2f2f2;"/><path d="M123.39,41.65c-.88,2.07-2.52,3.48-5.24,3.48-4.86,0-6.2-4.49-6.2-9.07s1.34-9.07,6.2-9.07c2.87,0,4.51,1.59,5.37,3.81l-2.85,1.76c-.43-1.46-1.18-2.42-2.52-2.42-2.24,0-2.92,2.75-2.92,5.92s.68,5.92,2.92,5.92c1.26,0,2.02-.88,2.44-2.22l2.8,1.89Z" style="fill:#f2f2f2;"/><polygon points="133.88 44.88 133.88 38.25 129.34 38.25 129.34 44.88 126.07 44.88 126.07 27.23 129.34 27.23 129.34 35.1 133.88 35.1 133.88 27.23 137.16 27.23 137.16 44.88 133.88 44.88" style="fill:#f2f2f2;"/><polygon points="141.19 44.88 141.19 27.23 150.57 27.23 150.57 30.38 144.47 30.38 144.47 34.9 149.61 34.9 149.61 38.05 144.47 38.05 144.47 41.73 150.57 41.73 150.57 44.88 141.19 44.88" style="fill:#f2f2f2;"/><path d="M154.38,44.88V27.23h4.56c4.86,0,6.45,4.24,6.45,8.82s-1.59,8.82-6.45,8.82h-4.56Zm4.56-3.15c2.24,0,3.18-2.5,3.18-5.67s-.93-5.67-3.18-5.67h-1.29v11.34h1.29Z" style="fill:#f2f2f2;"/><path d="M176.13,27.23h3.28v11.77c0,4.26-2.29,6.12-5.37,6.12s-5.47-1.87-5.47-6.15v-11.75h3.28v11.92c0,1.74,.63,2.82,2.14,2.82,1.59,0,2.14-1.13,2.14-2.85v-11.9Z" style="fill:#f2f2f2;"/><polygon points="183.45 44.88 183.45 27.23 186.72 27.23 186.72 41.73 191.86 41.73 191.86 44.88 183.45 44.88" style="fill:#f2f2f2;"/><polygon points="194.39 44.88 194.39 27.23 203.76 27.23 203.76 30.38 197.67 30.38 197.67 34.9 202.81 34.9 202.81 38.05 197.67 38.05 197.67 41.73 203.76 41.73 203.76 44.88 194.39 44.88" style="fill:#f2f2f2;"/><path d="M26.57,69.37l-.27-2.08h-3.45l-.21,2.08h-4.65l4.01-18.71h5.24l4.01,18.71h-4.68Zm-1.63-11.6c-.16-1.07-.29-2.59-.29-2.59h-.05s-.16,1.52-.32,2.59l-.75,5.61h2.17l-.75-5.61Z" style="fill:#f2f2f2;"/><path d="M35.33,69.37v-18.71h5.56c4.28,0,6.04,3.69,6.04,6.66,0,3.58-2,6.84-6.23,6.84h-.94v5.21h-4.44Zm5.27-9.2c1.39,0,1.92-1.36,1.92-2.78,0-1.52-.56-2.78-1.95-2.78h-.8v5.56h.83Z" style="fill:#f2f2f2;"/><path d="M51.21,69.37v-18.71h5.56c4.28,0,6.04,3.69,6.04,6.66,0,3.58-2.01,6.84-6.23,6.84h-.94v5.21h-4.44Zm5.27-9.2c1.39,0,1.92-1.36,1.92-2.78,0-1.52-.56-2.78-1.95-2.78h-.8v5.56h.83Z" style="fill:#f2f2f2;"/><path d="M66.28,60.01c0-4.97,1.15-9.73,6.34-9.73s6.34,4.76,6.34,9.73-1.12,9.73-6.34,9.73-6.34-4.76-6.34-9.73m8.23,0c0-3.42-.24-5.45-1.9-5.45s-1.9,2.03-1.9,5.45,.29,5.45,1.9,5.45,1.9-2.03,1.9-5.45" style="fill:#f2f2f2;"/><rect x="83.5" y="50.66" width="4.44" height="18.71" style="fill:#f2f2f2;"/><path d="M101.81,69.37l-3.21-7.16c-.61-1.36-1.15-3.07-1.15-3.07h-.05s.05,1.79,.05,3.31v6.92h-4.17v-18.71h4.54l2.91,6.42c.61,1.34,1.28,3.21,1.28,3.21h.05s-.05-1.92-.05-3.5v-6.12h4.2v18.71h-4.41Z" style="fill:#f2f2f2;"/><polygon points="113.51 69.37 113.51 54.93 110.76 54.93 110.76 50.66 120.73 50.66 120.73 54.93 117.98 54.93 117.98 69.37 113.51 69.37" style="fill:#f2f2f2;"/><path d="M135.94,69.37v-9.52c0-1.18,.08-2.25,.08-2.25h-.05s-.4,.8-1.12,1.79l-2.09,2.86h-.11l-2.09-2.86c-.72-.99-1.1-1.79-1.1-1.79h-.05s.03,1.1,.03,2.25v9.52h-4.17v-18.71h4.44l1.66,2.38c.8,1.15,1.31,2.06,1.31,2.06h.05s.56-.91,1.34-2.06l1.63-2.38h4.41v18.71h-4.17Z" style="fill:#f2f2f2;"/><polygon points="145.46 69.37 145.46 50.66 155.85 50.66 155.85 54.72 149.89 54.72 149.89 58.3 154.87 58.3 154.87 62.2 149.89 62.2 149.89 65.3 155.85 65.3 155.85 69.37 145.46 69.37" style="fill:#f2f2f2;"/><path d="M169.46,69.37l-3.21-7.16c-.61-1.36-1.15-3.07-1.15-3.07h-.05s.05,1.79,.05,3.31v6.92h-4.17v-18.71h4.54l2.91,6.42c.61,1.34,1.28,3.21,1.28,3.21h.05s-.05-1.92-.05-3.5v-6.12h4.2v18.71h-4.41Z" style="fill:#f2f2f2;"/><polygon points="181.17 69.37 181.17 54.93 178.41 54.93 178.41 50.66 188.38 50.66 188.38 54.93 185.63 54.93 185.63 69.37 181.17 69.37" style="fill:#f2f2f2;"/><path d="M195.65,63.62c.45,1.15,1.44,1.92,2.54,1.92,.91,0,1.39-.53,1.39-1.2,0-2.57-7.27-3.15-7.27-8.63,0-3.07,2.3-5.43,5.72-5.43,2.65,0,4.65,1.42,5.64,4.04l-3.53,2.09c-.29-1.23-1.15-2.19-2.19-2.19-.78,0-1.28,.54-1.28,1.23,0,2.65,7.35,2.73,7.35,8.69,0,3.5-2.57,5.61-5.99,5.61-3.02,0-4.97-1.66-6.09-3.88l3.72-2.25Z" style="fill:#f2f2f2;"/><rect x="18" y="16.02" width="186.1" height="5.25" style="fill:#f2f2f2;"/><rect x="18" y="75.24" width="186.1" height="5.25" style="fill:#f2f2f2;"/></g><g><rect x="38.01" y="165.34" width="145.02" height="89.24" rx="3.94" ry="3.94" style="fill:#fff; stroke:#8cc44a; stroke-miterlimit:10; stroke-width:.75px;"/><g><g><path d="M59.84,194.97l.65,1.85,.65-1.85h.69v2.55h-.53v-.7l.05-1.2-.69,1.9h-.36l-.69-1.9,.05,1.2v.7h-.52v-2.55h.69Z" style="fill:#8cc44a;"/><path d="M62.18,196.56c0-.19,.04-.35,.11-.5,.07-.15,.18-.26,.31-.34,.14-.08,.29-.12,.47-.12,.26,0,.46,.08,.63,.23,.16,.16,.25,.37,.27,.64v.13c0,.29-.08,.52-.24,.7-.16,.18-.38,.26-.65,.26s-.49-.09-.65-.26c-.16-.17-.24-.41-.24-.71v-.02Zm.51,.04c0,.18,.03,.32,.1,.41,.07,.1,.16,.14,.29,.14s.22-.05,.29-.14c.07-.09,.1-.24,.1-.45,0-.18-.03-.31-.1-.41-.07-.1-.17-.15-.29-.15s-.22,.05-.29,.14c-.07,.1-.1,.25-.1,.45Z" style="fill:#8cc44a;"/></g><g><path d="M77.56,195.4h-.78v2.12h-.52v-2.12h-.77v-.42h2.07v.42Z" style="fill:#8cc44a;"/><path d="M78.85,197.33c-.12,.15-.3,.23-.52,.23-.2,0-.36-.06-.46-.18s-.16-.29-.16-.51v-1.24h.51v1.22c0,.2,.09,.3,.27,.3s.29-.06,.35-.18v-1.34h.51v1.89h-.48v-.19Z" style="fill:#8cc44a;"/></g><g><path d="M94.12,196.79l.34-1.81h.52l-.56,2.55h-.53l-.41-1.7-.41,1.7h-.53l-.56-2.55h.52l.34,1.81,.42-1.81h.44l.42,1.81Z" style="fill:#8cc44a;"/><path d="M96.05,197.56c-.28,0-.5-.09-.68-.26-.17-.17-.26-.4-.26-.68v-.05c0-.19,.04-.36,.11-.51s.18-.27,.31-.35c.13-.08,.29-.12,.46-.12,.26,0,.46,.08,.61,.25s.22,.39,.22,.69v.21h-1.21c.02,.12,.07,.22,.15,.3,.08,.07,.19,.11,.31,.11,.19,0,.35-.07,.46-.21l.25,.28c-.08,.11-.18,.19-.31,.25-.13,.06-.27,.09-.43,.09Zm-.06-1.56c-.1,0-.18,.03-.24,.1-.06,.07-.1,.17-.12,.29h.7v-.04c0-.11-.03-.2-.09-.26-.06-.06-.14-.09-.25-.09Z" style="fill:#8cc44a;"/></g><g><path d="M110.54,195.4h-.78v2.12h-.52v-2.12h-.77v-.42h2.07v.42Z" style="fill:#8cc44a;"/><path d="M111.3,195.84c.13-.16,.3-.24,.51-.24,.41,0,.62,.24,.62,.72v1.21h-.51v-1.2c0-.11-.02-.19-.07-.24-.05-.05-.12-.08-.23-.08-.15,0-.26,.06-.32,.17v1.35h-.51v-2.69h.51v1Z" style="fill:#8cc44a;"/></g><g><path d="M126.65,196.48h-1.01v1.04h-.52v-2.55h1.66v.42h-1.13v.66h1.01v.42Z" style="fill:#8cc44a;"/><path d="M128.06,196.1c-.07,0-.13-.01-.18-.01-.19,0-.32,.06-.38,.19v1.24h-.51v-1.89h.48v.23c.12-.17,.26-.26,.44-.26,.06,0,.11,0,.16,.02v.49Z" style="fill:#8cc44a;"/></g><g><path d="M142.92,196.85c0-.1-.03-.18-.1-.23s-.2-.11-.38-.17c-.18-.06-.33-.12-.43-.17-.29-.16-.43-.37-.43-.63,0-.14,.04-.26,.12-.37,.08-.11,.19-.19,.33-.25s.31-.09,.49-.09,.34,.03,.49,.1c.14,.07,.25,.16,.33,.28,.08,.12,.12,.26,.12,.41h-.52c0-.12-.04-.21-.11-.27-.07-.06-.18-.1-.31-.1s-.23,.03-.3,.08c-.07,.05-.11,.13-.11,.21,0,.08,.04,.15,.13,.21,.08,.06,.21,.11,.37,.16,.3,.09,.52,.2,.65,.33,.14,.13,.2,.3,.2,.5,0,.22-.08,.39-.25,.52s-.39,.19-.67,.19c-.2,0-.37-.04-.54-.11-.16-.07-.28-.17-.37-.29-.08-.12-.13-.27-.13-.43h.53c0,.28,.17,.42,.5,.42,.12,0,.22-.03,.29-.08,.07-.05,.1-.12,.1-.21Z" style="fill:#8cc44a;"/><path d="M144.87,197.52s-.04-.1-.05-.17c-.12,.14-.28,.2-.48,.2-.19,0-.34-.05-.46-.16s-.18-.24-.18-.41c0-.2,.07-.35,.22-.46s.36-.16,.64-.16h.23v-.11c0-.09-.02-.16-.07-.21s-.12-.08-.21-.08c-.09,0-.15,.02-.2,.06-.05,.04-.07,.1-.07,.17h-.51c0-.11,.03-.21,.1-.3,.07-.09,.16-.17,.29-.22,.12-.05,.26-.08,.42-.08,.23,0,.42,.06,.56,.18,.14,.12,.21,.28,.21,.49v.82c0,.18,.03,.32,.08,.41v.03h-.51Zm-.42-.35c.07,0,.14-.02,.21-.05,.06-.03,.11-.08,.14-.13v-.33h-.19c-.25,0-.39,.09-.4,.26v.03c0,.06,.02,.11,.06,.16,.04,.04,.1,.06,.18,.06Z" style="fill:#8cc44a;"/></g><g><path d="M159.41,196.85c0-.1-.03-.18-.1-.23s-.2-.11-.38-.17c-.18-.06-.33-.12-.43-.17-.29-.16-.43-.37-.43-.63,0-.14,.04-.26,.12-.37,.08-.11,.19-.19,.33-.25s.31-.09,.49-.09,.34,.03,.49,.1c.14,.07,.25,.16,.33,.28,.08,.12,.12,.26,.12,.41h-.52c0-.12-.04-.21-.11-.27-.07-.06-.18-.1-.31-.1s-.23,.03-.3,.08c-.07,.05-.11,.13-.11,.21,0,.08,.04,.15,.13,.21,.08,.06,.21,.11,.37,.16,.3,.09,.52,.2,.65,.33,.14,.13,.2,.3,.2,.5,0,.22-.08,.39-.25,.52s-.39,.19-.67,.19c-.2,0-.37-.04-.54-.11-.16-.07-.28-.17-.37-.29-.08-.12-.13-.27-.13-.43h.53c0,.28,.17,.42,.5,.42,.12,0,.22-.03,.29-.08,.07-.05,.1-.12,.1-.21Z" style="fill:#8cc44a;"/><path d="M161.39,197.33c-.12,.15-.3,.23-.52,.23-.2,0-.36-.06-.46-.18s-.16-.29-.16-.51v-1.24h.51v1.22c0,.2,.09,.3,.27,.3s.29-.06,.35-.18v-1.34h.51v1.89h-.48v-.19Z" style="fill:#8cc44a;"/></g><g><path d="M91.3,175.6c-.64-.18-1.1-.41-1.39-.68s-.44-.6-.44-.99c0-.44,.18-.81,.53-1.1,.36-.29,.82-.44,1.39-.44,.39,0,.73,.08,1.04,.23s.54,.36,.71,.62c.17,.26,.25,.55,.25,.87h-.75c0-.34-.11-.61-.33-.81-.22-.2-.52-.29-.92-.29-.37,0-.65,.08-.86,.24s-.31,.39-.31,.67c0,.23,.1,.43,.29,.58,.2,.16,.53,.31,1,.44s.84,.28,1.1,.44,.46,.34,.59,.56,.19,.46,.19,.75c0,.46-.18,.82-.54,1.1-.36,.28-.83,.41-1.43,.41-.39,0-.75-.07-1.09-.22-.34-.15-.6-.35-.78-.61-.18-.26-.27-.55-.27-.88h.75c0,.34,.13,.61,.38,.81,.25,.2,.59,.3,1.01,.3,.39,0,.69-.08,.9-.24,.21-.16,.31-.38,.31-.66s-.1-.49-.29-.64-.55-.3-1.06-.45Z" style="fill:#8cc44a;"/><path d="M95.98,178.2c-.57,0-1.03-.19-1.39-.56s-.54-.87-.54-1.5v-.13c0-.42,.08-.79,.24-1.12,.16-.33,.38-.58,.67-.77,.29-.18,.6-.28,.93-.28,.55,0,.97,.18,1.27,.54,.3,.36,.45,.87,.45,1.54v.3h-2.84c.01,.41,.13,.75,.36,1,.23,.25,.53,.38,.88,.38,.25,0,.47-.05,.64-.16,.18-.1,.33-.24,.46-.41l.44,.34c-.35,.54-.88,.81-1.58,.81Zm-.09-3.76c-.29,0-.53,.11-.73,.32-.2,.21-.32,.51-.36,.89h2.1v-.05c-.02-.36-.12-.65-.29-.85s-.41-.3-.71-.3Z" style="fill:#8cc44a;"/><path d="M99.22,178.12h-.72v-5.96h.72v5.96Z" style="fill:#8cc44a;"/><path d="M102.11,178.2c-.57,0-1.03-.19-1.39-.56s-.54-.87-.54-1.5v-.13c0-.42,.08-.79,.24-1.12,.16-.33,.38-.58,.67-.77,.29-.18,.6-.28,.93-.28,.55,0,.97,.18,1.27,.54,.3,.36,.45,.87,.45,1.54v.3h-2.84c.01,.41,.13,.75,.36,1,.23,.25,.53,.38,.88,.38,.25,0,.47-.05,.64-.16,.18-.1,.33-.24,.46-.41l.44,.34c-.35,.54-.88,.81-1.58,.81Zm-.09-3.76c-.29,0-.53,.11-.73,.32-.2,.21-.32,.51-.36,.89h2.1v-.05c-.02-.36-.12-.65-.29-.85s-.41-.3-.71-.3Z" style="fill:#8cc44a;"/><path d="M106.26,177.61c.26,0,.48-.08,.67-.23s.3-.35,.32-.58h.68c-.01,.24-.1,.47-.25,.69s-.36,.39-.61,.52-.52,.19-.81,.19c-.57,0-1.03-.19-1.36-.57-.34-.38-.51-.9-.51-1.57v-.12c0-.41,.08-.77,.23-1.09,.15-.32,.37-.57,.65-.74s.61-.26,.99-.26c.47,0,.86,.14,1.17,.42,.31,.28,.48,.65,.5,1.1h-.68c-.02-.27-.12-.49-.31-.67-.19-.17-.41-.26-.68-.26-.36,0-.65,.13-.85,.39-.2,.26-.3,.64-.3,1.14v.14c0,.48,.1,.86,.3,1.12,.2,.26,.48,.39,.85,.39Z" style="fill:#8cc44a;"/><path d="M109.71,172.91v1.02h.78v.55h-.78v2.61c0,.17,.03,.29,.1,.38,.07,.08,.19,.13,.36,.13,.08,0,.2-.02,.34-.05v.58c-.19,.05-.37,.08-.55,.08-.32,0-.56-.1-.73-.29-.16-.19-.24-.47-.24-.83v-2.6h-.76v-.55h.76v-1.02h.72Z" style="fill:#8cc44a;"/><path d="M115.89,178.12c-.04-.08-.08-.23-.1-.44-.33,.35-.73,.52-1.19,.52-.41,0-.75-.12-1.02-.35-.27-.23-.4-.53-.4-.89,0-.44,.17-.78,.5-1.02,.33-.24,.8-.36,1.4-.36h.7v-.33c0-.25-.07-.45-.23-.6-.15-.15-.37-.22-.66-.22-.26,0-.47,.06-.64,.19-.17,.13-.26,.29-.26,.47h-.72c0-.21,.07-.41,.22-.61,.15-.2,.35-.35,.61-.46s.53-.17,.84-.17c.48,0,.86,.12,1.14,.36,.27,.24,.42,.57,.43,1v1.93c0,.39,.05,.69,.15,.92v.06h-.75Zm-1.19-.55c.23,0,.44-.06,.64-.17,.2-.12,.35-.27,.44-.45v-.86h-.56c-.88,0-1.32,.26-1.32,.77,0,.22,.07,.4,.23,.53,.15,.13,.34,.19,.58,.19Z" style="fill:#8cc44a;"/><path d="M119.41,175.99c0-.64,.15-1.16,.46-1.55,.31-.39,.7-.59,1.2-.59s.88,.17,1.17,.5v-2.19h.72v5.96h-.66l-.04-.45c-.29,.35-.69,.53-1.2,.53s-.88-.2-1.19-.6c-.31-.4-.46-.92-.46-1.56v-.05Zm.72,.08c0,.48,.1,.85,.29,1.12,.2,.27,.47,.4,.81,.4,.46,0,.79-.2,1-.61v-1.93c-.21-.4-.54-.59-.99-.59-.35,0-.63,.14-.82,.41-.2,.27-.29,.67-.29,1.21Z" style="fill:#8cc44a;"/><path d="M126.66,178.12c-.04-.08-.08-.23-.1-.44-.33,.35-.73,.52-1.19,.52-.41,0-.75-.12-1.02-.35-.27-.23-.4-.53-.4-.89,0-.44,.17-.78,.5-1.02,.33-.24,.8-.36,1.4-.36h.7v-.33c0-.25-.07-.45-.23-.6-.15-.15-.37-.22-.66-.22-.26,0-.47,.06-.64,.19-.17,.13-.26,.29-.26,.47h-.72c0-.21,.07-.41,.22-.61,.15-.2,.35-.35,.61-.46s.53-.17,.84-.17c.48,0,.86,.12,1.14,.36,.27,.24,.42,.57,.43,1v1.93c0,.39,.05,.69,.15,.92v.06h-.75Zm-1.19-.55c.23,0,.44-.06,.64-.17,.2-.12,.35-.27,.44-.45v-.86h-.56c-.88,0-1.32,.26-1.32,.77,0,.22,.07,.4,.23,.53,.15,.13,.34,.19,.58,.19Z" style="fill:#8cc44a;"/><path d="M129.36,172.91v1.02h.78v.55h-.78v2.61c0,.17,.03,.29,.1,.38,.07,.08,.19,.13,.36,.13,.08,0,.2-.02,.34-.05v.58c-.19,.05-.37,.08-.55,.08-.32,0-.56-.1-.73-.29-.16-.19-.24-.47-.24-.83v-2.6h-.76v-.55h.76v-1.02h.72Z" style="fill:#8cc44a;"/><path d="M132.73,178.2c-.57,0-1.03-.19-1.39-.56s-.54-.87-.54-1.5v-.13c0-.42,.08-.79,.24-1.12,.16-.33,.38-.58,.67-.77,.29-.18,.6-.28,.93-.28,.55,0,.97,.18,1.27,.54,.3,.36,.45,.87,.45,1.54v.3h-2.84c.01,.41,.13,.75,.36,1,.23,.25,.53,.38,.88,.38,.25,0,.47-.05,.64-.16,.18-.1,.33-.24,.46-.41l.44,.34c-.35,.54-.88,.81-1.58,.81Zm-.09-3.76c-.29,0-.53,.11-.73,.32-.2,.21-.32,.51-.36,.89h2.1v-.05c-.02-.36-.12-.65-.29-.85s-.41-.3-.71-.3Z" style="fill:#8cc44a;"/></g><g><path d="M105.02,184.69v.25c.17-.19,.39-.29,.67-.29,.31,0,.52,.12,.63,.36,.07-.11,.17-.19,.29-.26,.12-.07,.26-.1,.42-.1,.48,0,.73,.26,.74,.77v1.48h-.38v-1.46c0-.16-.04-.28-.11-.35-.07-.08-.19-.12-.36-.12-.14,0-.26,.04-.35,.13-.09,.08-.15,.2-.16,.34v1.47h-.38v-1.45c0-.32-.16-.48-.47-.48-.25,0-.42,.11-.51,.32v1.61h-.38v-2.21h.36Z" style="fill:#8cc44a;"/><path d="M108.68,184.69v.25c.17-.19,.39-.29,.67-.29,.31,0,.52,.12,.63,.36,.07-.11,.17-.19,.29-.26,.12-.07,.26-.1,.42-.1,.48,0,.73,.26,.74,.77v1.48h-.38v-1.46c0-.16-.04-.28-.11-.35-.07-.08-.19-.12-.36-.12-.14,0-.26,.04-.35,.13-.09,.08-.15,.2-.16,.34v1.47h-.38v-1.45c0-.32-.16-.48-.47-.48-.25,0-.42,.11-.51,.32v1.61h-.38v-2.21h.36Z" style="fill:#8cc44a;"/><path d="M113.75,186.35l.51-1.65h.4l-.89,2.55c-.14,.37-.36,.55-.66,.55h-.07s-.14-.03-.14-.03v-.31h.1c.13,0,.23-.02,.3-.07,.07-.05,.13-.15,.18-.28l.08-.22-.79-2.18h.41l.55,1.65Z" style="fill:#8cc44a;"/><path d="M115.72,186.35l.51-1.65h.4l-.89,2.55c-.14,.37-.36,.55-.66,.55h-.07s-.14-.03-.14-.03v-.31h.1c.13,0,.23-.02,.3-.07,.07-.05,.13-.15,.18-.28l.08-.22-.79-2.18h.41l.55,1.65Z" style="fill:#8cc44a;"/></g><path d="M123.8,186.48l-.3-.3,.77-.77-.82-.82,.3-.3,.97,.97c.08,.08,.08,.22,0,.3l-.92,.92Z" style="fill:#8cc44a;"/><path d="M96.79,186.48l-.92-.92c-.08-.08-.08-.22,0-.3l.97-.97,.3,.3-.82,.82,.77,.77-.3,.3Z" style="fill:#add583;"/><g><g><rect x="108.62" y="212.84" width="3.34" height="3.34" rx="1.45" ry="1.45" style="fill:#8cc44a;"/><rect x="125.1" y="212.84" width="3.34" height="3.34" rx="1.45" ry="1.45" style="fill:#8cc44a;"/><rect x="108.62" y="223.47" width="3.34" height="3.34" rx="1.45" ry="1.45" style="fill:#8cc44a;"/><rect x="92.14" y="223.47" width="3.34" height="3.34" rx="1.45" ry="1.45" style="fill:#8cc44a;"/><rect x="59.19" y="223.47" width="3.34" height="3.34" rx="1.45" ry="1.45" style="fill:#8cc44a;"/><rect x="125.1" y="223.47" width="3.34" height="3.34" rx="1.45" ry="1.45" style="fill:#8cc44a;"/></g><g><rect x="109.03" y="202.62" width="2.53" height="2.53" rx="1.1" ry="1.1" style="fill:#d0e7b8;"/><rect x="92.55" y="202.62" width="2.53" height="2.53" rx="1.1" ry="1.1" style="fill:#d0e7b8;"/><rect x="125.5" y="202.62" width="2.53" height="2.53" rx="1.1" ry="1.1" style="fill:#d0e7b8;"/><rect x="141.98" y="202.62" width="2.53" height="2.53" rx="1.1" ry="1.1" style="fill:#d0e7b8;"/><rect x="158.46" y="202.62" width="2.53" height="2.53" rx="1.1" ry="1.1" style="fill:#d0e7b8;"/><rect x="92.55" y="213.24" width="2.53" height="2.53" rx="1.1" ry="1.1" style="fill:#d0e7b8;"/><rect x="76.07" y="213.24" width="2.53" height="2.53" rx="1.1" ry="1.1" style="fill:#d0e7b8;"/><rect x="59.59" y="213.24" width="2.53" height="2.53" rx="1.1" ry="1.1" style="fill:#d0e7b8;"/><rect x="141.98" y="213.24" width="2.53" height="2.53" rx="1.1" ry="1.1" style="fill:#d0e7b8;"/><rect x="158.46" y="213.24" width="2.53" height="2.53" rx="1.1" ry="1.1" style="fill:#d0e7b8;"/><rect x="76.07" y="223.87" width="2.53" height="2.53" rx="1.1" ry="1.1" style="fill:#d0e7b8;"/><rect x="141.98" y="223.87" width="2.53" height="2.53" rx="1.1" ry="1.1" style="fill:#d0e7b8;"/><rect x="158.46" y="223.87" width="2.53" height="2.53" rx="1.1" ry="1.1" style="fill:#d0e7b8;"/><rect x="109.03" y="234.49" width="2.53" height="2.53" rx="1.1" ry="1.1" style="fill:#d0e7b8;"/><rect x="92.55" y="234.49" width="2.53" height="2.53" rx="1.1" ry="1.1" style="fill:#d0e7b8;"/><rect x="76.07" y="234.49" width="2.53" height="2.53" rx="1.1" ry="1.1" style="fill:#d0e7b8;"/><rect x="59.59" y="234.49" width="2.53" height="2.53" rx="1.1" ry="1.1" style="fill:#d0e7b8;"/><rect x="125.5" y="234.49" width="2.53" height="2.53" rx="1.1" ry="1.1" style="fill:#d0e7b8;"/><rect x="141.98" y="234.49" width="2.53" height="2.53" rx="1.1" ry="1.1" style="fill:#d0e7b8;"/><rect x="158.46" y="234.49" width="2.53" height="2.53" rx="1.1" ry="1.1" style="fill:#d0e7b8;"/><rect x="109.03" y="245.11" width="2.53" height="2.53" rx="1.1" ry="1.1" style="fill:#d0e7b8;"/><rect x="92.55" y="245.11" width="2.53" height="2.53" rx="1.1" ry="1.1" style="fill:#d0e7b8;"/><rect x="76.07" y="245.11" width="2.53" height="2.53" rx="1.1" ry="1.1" style="fill:#d0e7b8;"/><rect x="59.59" y="245.11" width="2.53" height="2.53" rx="1.1" ry="1.1" style="fill:#d0e7b8;"/></g></g></g></g><g><g style="opacity:.6;"><rect x="24.93" y="105.27" width="44.32" height="104.67" rx="3.48" ry="3.48" style="fill:#8cc44a;"/></g><rect x="24.27" y="104.37" width="44.32" height="104.67" rx="3.49" ry="3.49" style="fill:#fff;"/><g><g><rect x="32.09" y="139.62" width="28.54" height="9.99" style="fill:#fff;"/><path d="M60.75,149.73H31.97v-10.23h28.78v10.23Zm-28.54-.24h28.31v-9.75h-28.31v9.75Z" style="fill:#8cc44a;"/></g><g><rect x="32.09" y="151.08" width="28.54" height="9.99" style="fill:#fff;"/><path d="M60.75,161.19H31.97v-10.23h28.78v10.23Zm-28.54-.24h28.31v-9.75h-28.31v9.75Z" style="fill:#8cc44a;"/></g><g><rect x="32.09" y="162.53" width="28.54" height="9.99" style="fill:#fff;"/><path d="M60.75,172.64H31.97v-10.23h28.78v10.23Zm-28.54-.24h28.31v-9.75h-28.31v9.75Z" style="fill:#8cc44a;"/></g><g><rect x="32.09" y="173.99" width="28.54" height="9.99" style="fill:#fff;"/><path d="M60.75,184.1H31.97v-10.23h28.78v10.23Zm-28.54-.24h28.31v-9.75h-28.31v9.75Z" style="fill:#8cc44a;"/></g><g><rect x="32.09" y="185.44" width="28.54" height="9.99" style="fill:#fff;"/><path d="M60.75,195.55H31.97v-10.23h28.78v10.23Zm-28.54-.24h28.31v-9.75h-28.31v9.75Z" style="fill:#d0e7b8;"/></g><g><rect x="32.09" y="196.89" width="28.54" height="9.99" style="fill:#fff;"/><path d="M60.75,207H31.97v-10.23h28.78v10.23Zm-28.54-.24h28.31v-9.75h-28.31v9.75Z" style="fill:#8cc44a;"/></g><g><path d="M40.08,146.16h-.38v-2.52l-.76,.28v-.34l1.08-.41h.06v2.99Z" style="fill:#8cc44a;"/><path d="M41.22,145.96c0-.07,.02-.12,.06-.16,.04-.04,.1-.07,.17-.07s.14,.02,.18,.07c.04,.04,.06,.1,.06,.16s-.02,.12-.06,.16c-.04,.04-.1,.06-.18,.06s-.14-.02-.17-.06-.06-.09-.06-.16Zm0-1.81c0-.07,.02-.12,.06-.16,.04-.04,.1-.07,.17-.07s.14,.02,.18,.07c.04,.04,.06,.1,.06,.16s-.02,.12-.06,.16-.1,.06-.18,.06-.14-.02-.17-.06-.06-.09-.06-.16Z" style="fill:#8cc44a;"/><path d="M44.07,144.89c0,.44-.08,.77-.23,.99-.15,.22-.39,.32-.71,.32s-.55-.11-.71-.32c-.15-.21-.23-.53-.24-.94v-.51c0-.44,.08-.76,.23-.98,.15-.21,.39-.32,.71-.32s.56,.1,.71,.31c.15,.21,.23,.52,.23,.95v.49Zm-.38-.52c0-.32-.04-.55-.13-.7s-.23-.22-.43-.22-.33,.07-.42,.22c-.09,.15-.13,.37-.14,.67v.61c0,.32,.05,.56,.14,.71,.09,.15,.23,.23,.42,.23s.33-.07,.42-.22,.14-.37,.14-.68v-.62Z" style="fill:#8cc44a;"/><path d="M46.43,144.89c0,.44-.08,.77-.23,.99-.15,.22-.39,.32-.71,.32s-.55-.11-.71-.32c-.15-.21-.23-.53-.24-.94v-.51c0-.44,.08-.76,.23-.98,.15-.21,.39-.32,.71-.32s.56,.1,.71,.31c.15,.21,.23,.52,.23,.95v.49Zm-.38-.52c0-.32-.04-.55-.13-.7s-.23-.22-.43-.22-.33,.07-.42,.22c-.09,.15-.13,.37-.14,.67v.61c0,.32,.05,.56,.14,.71,.09,.15,.23,.23,.42,.23s.33-.07,.42-.22,.14-.37,.14-.68v-.62Z" style="fill:#8cc44a;"/><path d="M48.44,144.99v1.17h-.39v-2.98h1.1c.33,0,.58,.08,.77,.25s.28,.39,.28,.66c0,.29-.09,.51-.27,.67-.18,.16-.44,.23-.78,.23h-.7Zm0-.32h.71c.21,0,.37-.05,.48-.15s.17-.24,.17-.43-.06-.32-.17-.43-.27-.16-.46-.17h-.73v1.17Z" style="fill:#8cc44a;"/><path d="M51.2,143.18l.97,2.43,.97-2.43h.51v2.98h-.39v-1.16l.04-1.25-.98,2.41h-.3l-.98-2.41,.04,1.25v1.16h-.39v-2.98h.51Z" style="fill:#8cc44a;"/></g><g><path d="M40.08,157.6h-.38v-2.52l-.76,.28v-.34l1.08-.41h.06v2.99Z" style="fill:#8cc44a;"/><path d="M41.22,157.41c0-.07,.02-.12,.06-.16,.04-.04,.1-.07,.17-.07s.14,.02,.18,.07c.04,.04,.06,.1,.06,.16s-.02,.12-.06,.16c-.04,.04-.1,.06-.18,.06s-.14-.02-.17-.06-.06-.09-.06-.16Zm0-1.81c0-.07,.02-.12,.06-.16,.04-.04,.1-.07,.17-.07s.14,.02,.18,.07c.04,.04,.06,.1,.06,.16s-.02,.12-.06,.16-.1,.06-.18,.06-.14-.02-.17-.06-.06-.09-.06-.16Z" style="fill:#8cc44a;"/><path d="M42.76,155.93h.28c.18,0,.32-.05,.42-.14,.1-.09,.15-.21,.15-.37,0-.35-.17-.52-.52-.52-.16,0-.29,.05-.39,.14-.1,.09-.15,.22-.15,.37h-.38c0-.24,.09-.43,.26-.59s.39-.23,.66-.23c.28,0,.5,.07,.66,.22,.16,.15,.24,.36,.24,.62,0,.13-.04,.25-.13,.38s-.2,.21-.34,.27c.16,.05,.29,.14,.38,.26,.09,.12,.13,.27,.13,.44,0,.27-.09,.48-.26,.64-.17,.16-.4,.24-.68,.24s-.51-.08-.68-.23c-.18-.15-.26-.35-.26-.6h.38c0,.16,.05,.28,.15,.38,.1,.09,.24,.14,.41,.14,.18,0,.32-.05,.42-.14,.1-.1,.15-.23,.15-.41s-.05-.31-.16-.4-.26-.14-.46-.14h-.28v-.31Z" style="fill:#8cc44a;"/><path d="M46.43,156.33c0,.44-.08,.77-.23,.99-.15,.22-.39,.32-.71,.32s-.55-.11-.71-.32c-.15-.21-.23-.53-.24-.94v-.51c0-.44,.08-.76,.23-.98,.15-.21,.39-.32,.71-.32s.56,.1,.71,.31c.15,.21,.23,.52,.23,.95v.49Zm-.38-.52c0-.32-.04-.55-.13-.7s-.23-.22-.43-.22-.33,.07-.42,.22c-.09,.15-.13,.37-.14,.67v.61c0,.32,.05,.56,.14,.71,.09,.15,.23,.23,.42,.23s.33-.07,.42-.22,.14-.37,.14-.68v-.62Z" style="fill:#8cc44a;"/><path d="M48.44,156.44v1.17h-.39v-2.98h1.1c.33,0,.58,.08,.77,.25s.28,.39,.28,.66c0,.29-.09,.51-.27,.67-.18,.16-.44,.23-.78,.23h-.7Zm0-.32h.71c.21,0,.37-.05,.48-.15s.17-.24,.17-.43-.06-.32-.17-.43-.27-.16-.46-.17h-.73v1.17Z" style="fill:#8cc44a;"/><path d="M51.2,154.63l.97,2.43,.97-2.43h.51v2.98h-.39v-1.16l.04-1.25-.98,2.41h-.3l-.98-2.41,.04,1.25v1.16h-.39v-2.98h.51Z" style="fill:#8cc44a;"/></g><g><path d="M40.79,169.05h-1.95v-.27l1.03-1.15c.15-.17,.26-.31,.32-.42,.06-.11,.09-.22,.09-.34,0-.16-.05-.28-.14-.38-.09-.1-.22-.15-.38-.15-.19,0-.33,.05-.44,.16-.1,.11-.16,.26-.16,.45h-.38c0-.27,.09-.5,.26-.66,.18-.17,.41-.25,.71-.25,.28,0,.5,.07,.66,.22,.16,.15,.24,.34,.24,.58,0,.29-.19,.64-.56,1.05l-.8,.87h1.5v.31Z" style="fill:#8cc44a;"/><path d="M41.22,168.85c0-.07,.02-.12,.06-.16,.04-.04,.1-.07,.17-.07s.14,.02,.18,.07c.04,.04,.06,.1,.06,.16s-.02,.12-.06,.16c-.04,.04-.1,.06-.18,.06s-.14-.02-.17-.06-.06-.09-.06-.16Zm0-1.81c0-.07,.02-.12,.06-.16,.04-.04,.1-.07,.17-.07s.14,.02,.18,.07c.04,.04,.06,.1,.06,.16s-.02,.12-.06,.16-.1,.06-.18,.06-.14-.02-.17-.06-.06-.09-.06-.16Z" style="fill:#8cc44a;"/><path d="M44.07,167.78c0,.44-.08,.77-.23,.99-.15,.22-.39,.32-.71,.32s-.55-.11-.71-.32c-.15-.21-.23-.53-.24-.94v-.51c0-.44,.08-.76,.23-.98,.15-.21,.39-.32,.71-.32s.56,.1,.71,.31c.15,.21,.23,.52,.23,.95v.49Zm-.38-.52c0-.32-.04-.55-.13-.7s-.23-.22-.43-.22-.33,.07-.42,.22c-.09,.15-.13,.37-.14,.67v.61c0,.32,.05,.56,.14,.71,.09,.15,.23,.23,.42,.23s.33-.07,.42-.22,.14-.37,.14-.68v-.62Z" style="fill:#8cc44a;"/><path d="M46.43,167.78c0,.44-.08,.77-.23,.99-.15,.22-.39,.32-.71,.32s-.55-.11-.71-.32c-.15-.21-.23-.53-.24-.94v-.51c0-.44,.08-.76,.23-.98,.15-.21,.39-.32,.71-.32s.56,.1,.71,.31c.15,.21,.23,.52,.23,.95v.49Zm-.38-.52c0-.32-.04-.55-.13-.7s-.23-.22-.43-.22-.33,.07-.42,.22c-.09,.15-.13,.37-.14,.67v.61c0,.32,.05,.56,.14,.71,.09,.15,.23,.23,.42,.23s.33-.07,.42-.22,.14-.37,.14-.68v-.62Z" style="fill:#8cc44a;"/><path d="M48.44,167.89v1.17h-.39v-2.98h1.1c.33,0,.58,.08,.77,.25s.28,.39,.28,.66c0,.29-.09,.51-.27,.67-.18,.16-.44,.23-.78,.23h-.7Zm0-.32h.71c.21,0,.37-.05,.48-.15s.17-.24,.17-.43-.06-.32-.17-.43-.27-.16-.46-.17h-.73v1.17Z" style="fill:#8cc44a;"/><path d="M51.2,166.07l.97,2.43,.97-2.43h.51v2.98h-.39v-1.16l.04-1.25-.98,2.41h-.3l-.98-2.41,.04,1.25v1.16h-.39v-2.98h.51Z" style="fill:#8cc44a;"/></g><g><path d="M40.79,180.5h-1.95v-.27l1.03-1.15c.15-.17,.26-.31,.32-.42,.06-.11,.09-.22,.09-.34,0-.16-.05-.28-.14-.38-.09-.1-.22-.15-.38-.15-.19,0-.33,.05-.44,.16-.1,.11-.16,.26-.16,.45h-.38c0-.27,.09-.5,.26-.66,.18-.17,.41-.25,.71-.25,.28,0,.5,.07,.66,.22,.16,.15,.24,.34,.24,.58,0,.29-.19,.64-.56,1.05l-.8,.87h1.5v.31Z" style="fill:#8cc44a;"/><path d="M41.22,180.3c0-.07,.02-.12,.06-.16,.04-.04,.1-.07,.17-.07s.14,.02,.18,.07c.04,.04,.06,.1,.06,.16s-.02,.12-.06,.16c-.04,.04-.1,.06-.18,.06s-.14-.02-.17-.06-.06-.09-.06-.16Zm0-1.81c0-.07,.02-.12,.06-.16,.04-.04,.1-.07,.17-.07s.14,.02,.18,.07c.04,.04,.06,.1,.06,.16s-.02,.12-.06,.16-.1,.06-.18,.06-.14-.02-.17-.06-.06-.09-.06-.16Z" style="fill:#8cc44a;"/><path d="M42.76,178.82h.28c.18,0,.32-.05,.42-.14,.1-.09,.15-.21,.15-.37,0-.35-.17-.52-.52-.52-.16,0-.29,.05-.39,.14-.1,.09-.15,.22-.15,.37h-.38c0-.24,.09-.43,.26-.59s.39-.23,.66-.23c.28,0,.5,.07,.66,.22,.16,.15,.24,.36,.24,.62,0,.13-.04,.25-.13,.38s-.2,.21-.34,.27c.16,.05,.29,.14,.38,.26,.09,.12,.13,.27,.13,.44,0,.27-.09,.48-.26,.64-.17,.16-.4,.24-.68,.24s-.51-.08-.68-.23c-.18-.15-.26-.35-.26-.6h.38c0,.16,.05,.28,.15,.38,.1,.09,.24,.14,.41,.14,.18,0,.32-.05,.42-.14,.1-.1,.15-.23,.15-.41s-.05-.31-.16-.4-.26-.14-.46-.14h-.28v-.31Z" style="fill:#8cc44a;"/><path d="M46.43,179.23c0,.44-.08,.77-.23,.99-.15,.22-.39,.32-.71,.32s-.55-.11-.71-.32c-.15-.21-.23-.53-.24-.94v-.51c0-.44,.08-.76,.23-.98,.15-.21,.39-.32,.71-.32s.56,.1,.71,.31c.15,.21,.23,.52,.23,.95v.49Zm-.38-.52c0-.32-.04-.55-.13-.7s-.23-.22-.43-.22-.33,.07-.42,.22c-.09,.15-.13,.37-.14,.67v.61c0,.32,.05,.56,.14,.71,.09,.15,.23,.23,.42,.23s.33-.07,.42-.22,.14-.37,.14-.68v-.62Z" style="fill:#8cc44a;"/><path d="M48.44,179.33v1.17h-.39v-2.98h1.1c.33,0,.58,.08,.77,.25s.28,.39,.28,.66c0,.29-.09,.51-.27,.67-.18,.16-.44,.23-.78,.23h-.7Zm0-.32h.71c.21,0,.37-.05,.48-.15s.17-.24,.17-.43-.06-.32-.17-.43-.27-.16-.46-.17h-.73v1.17Z" style="fill:#8cc44a;"/><path d="M51.2,177.52l.97,2.43,.97-2.43h.51v2.98h-.39v-1.16l.04-1.25-.98,2.41h-.3l-.98-2.41,.04,1.25v1.16h-.39v-2.98h.51Z" style="fill:#8cc44a;"/></g><g><path d="M39.39,190.27h.28c.18,0,.32-.05,.42-.14,.1-.09,.15-.21,.15-.37,0-.35-.17-.52-.52-.52-.16,0-.29,.05-.39,.14-.1,.09-.15,.22-.15,.37h-.38c0-.24,.09-.43,.26-.59s.39-.23,.66-.23c.28,0,.5,.07,.66,.22,.16,.15,.24,.36,.24,.62,0,.13-.04,.25-.13,.38s-.2,.21-.34,.27c.16,.05,.29,.14,.38,.26,.09,.12,.13,.27,.13,.44,0,.27-.09,.48-.26,.64-.17,.16-.4,.24-.68,.24s-.51-.08-.68-.23c-.18-.15-.26-.35-.26-.6h.38c0,.16,.05,.28,.15,.38,.1,.09,.24,.14,.41,.14,.18,0,.32-.05,.42-.14,.1-.1,.15-.23,.15-.41s-.05-.31-.16-.4-.26-.14-.46-.14h-.28v-.31Z" style="fill:#ddeeca;"/><path d="M41.22,191.75c0-.07,.02-.12,.06-.16,.04-.04,.1-.07,.17-.07s.14,.02,.18,.07c.04,.04,.06,.1,.06,.16s-.02,.12-.06,.16c-.04,.04-.1,.06-.18,.06s-.14-.02-.17-.06-.06-.09-.06-.16Zm0-1.81c0-.07,.02-.12,.06-.16,.04-.04,.1-.07,.17-.07s.14,.02,.18,.07c.04,.04,.06,.1,.06,.16s-.02,.12-.06,.16-.1,.06-.18,.06-.14-.02-.17-.06-.06-.09-.06-.16Z" style="fill:#ddeeca;"/><path d="M44.07,190.67c0,.44-.08,.77-.23,.99-.15,.22-.39,.32-.71,.32s-.55-.11-.71-.32c-.15-.21-.23-.53-.24-.94v-.51c0-.44,.08-.76,.23-.98,.15-.21,.39-.32,.71-.32s.56,.1,.71,.31c.15,.21,.23,.52,.23,.95v.49Zm-.38-.52c0-.32-.04-.55-.13-.7s-.23-.22-.43-.22-.33,.07-.42,.22c-.09,.15-.13,.37-.14,.67v.61c0,.32,.05,.56,.14,.71,.09,.15,.23,.23,.42,.23s.33-.07,.42-.22,.14-.37,.14-.68v-.62Z" style="fill:#ddeeca;"/><path d="M46.43,190.67c0,.44-.08,.77-.23,.99-.15,.22-.39,.32-.71,.32s-.55-.11-.71-.32c-.15-.21-.23-.53-.24-.94v-.51c0-.44,.08-.76,.23-.98,.15-.21,.39-.32,.71-.32s.56,.1,.71,.31c.15,.21,.23,.52,.23,.95v.49Zm-.38-.52c0-.32-.04-.55-.13-.7s-.23-.22-.43-.22-.33,.07-.42,.22c-.09,.15-.13,.37-.14,.67v.61c0,.32,.05,.56,.14,.71,.09,.15,.23,.23,.42,.23s.33-.07,.42-.22,.14-.37,.14-.68v-.62Z" style="fill:#ddeeca;"/><path d="M48.44,190.78v1.17h-.39v-2.98h1.1c.33,0,.58,.08,.77,.25s.28,.39,.28,.66c0,.29-.09,.51-.27,.67-.18,.16-.44,.23-.78,.23h-.7Zm0-.32h.71c.21,0,.37-.05,.48-.15s.17-.24,.17-.43-.06-.32-.17-.43-.27-.16-.46-.17h-.73v1.17Z" style="fill:#ddeeca;"/><path d="M51.2,188.97l.97,2.43,.97-2.43h.51v2.98h-.39v-1.16l.04-1.25-.98,2.41h-.3l-.98-2.41,.04,1.25v1.16h-.39v-2.98h.51Z" style="fill:#ddeeca;"/></g><g><path d="M39.39,201.72h.28c.18,0,.32-.05,.42-.14,.1-.09,.15-.21,.15-.37,0-.35-.17-.52-.52-.52-.16,0-.29,.05-.39,.14-.1,.09-.15,.22-.15,.37h-.38c0-.24,.09-.43,.26-.59s.39-.23,.66-.23c.28,0,.5,.07,.66,.22,.16,.15,.24,.36,.24,.62,0,.13-.04,.25-.13,.38s-.2,.21-.34,.27c.16,.05,.29,.14,.38,.26,.09,.12,.13,.27,.13,.44,0,.27-.09,.48-.26,.64-.17,.16-.4,.24-.68,.24s-.51-.08-.68-.23c-.18-.15-.26-.35-.26-.6h.38c0,.16,.05,.28,.15,.38,.1,.09,.24,.14,.41,.14,.18,0,.32-.05,.42-.14,.1-.1,.15-.23,.15-.41s-.05-.31-.16-.4-.26-.14-.46-.14h-.28v-.31Z" style="fill:#8cc44a;"/><path d="M41.22,203.19c0-.07,.02-.12,.06-.16,.04-.04,.1-.07,.17-.07s.14,.02,.18,.07c.04,.04,.06,.1,.06,.16s-.02,.12-.06,.16c-.04,.04-.1,.06-.18,.06s-.14-.02-.17-.06-.06-.09-.06-.16Zm0-1.81c0-.07,.02-.12,.06-.16,.04-.04,.1-.07,.17-.07s.14,.02,.18,.07c.04,.04,.06,.1,.06,.16s-.02,.12-.06,.16-.1,.06-.18,.06-.14-.02-.17-.06-.06-.09-.06-.16Z" style="fill:#8cc44a;"/><path d="M42.76,201.72h.28c.18,0,.32-.05,.42-.14,.1-.09,.15-.21,.15-.37,0-.35-.17-.52-.52-.52-.16,0-.29,.05-.39,.14-.1,.09-.15,.22-.15,.37h-.38c0-.24,.09-.43,.26-.59s.39-.23,.66-.23c.28,0,.5,.07,.66,.22,.16,.15,.24,.36,.24,.62,0,.13-.04,.25-.13,.38s-.2,.21-.34,.27c.16,.05,.29,.14,.38,.26,.09,.12,.13,.27,.13,.44,0,.27-.09,.48-.26,.64-.17,.16-.4,.24-.68,.24s-.51-.08-.68-.23c-.18-.15-.26-.35-.26-.6h.38c0,.16,.05,.28,.15,.38,.1,.09,.24,.14,.41,.14,.18,0,.32-.05,.42-.14,.1-.1,.15-.23,.15-.41s-.05-.31-.16-.4-.26-.14-.46-.14h-.28v-.31Z" style="fill:#8cc44a;"/><path d="M46.43,202.12c0,.44-.08,.77-.23,.99-.15,.22-.39,.32-.71,.32s-.55-.11-.71-.32c-.15-.21-.23-.53-.24-.94v-.51c0-.44,.08-.76,.23-.98,.15-.21,.39-.32,.71-.32s.56,.1,.71,.31c.15,.21,.23,.52,.23,.95v.49Zm-.38-.52c0-.32-.04-.55-.13-.7s-.23-.22-.43-.22-.33,.07-.42,.22c-.09,.15-.13,.37-.14,.67v.61c0,.32,.05,.56,.14,.71,.09,.15,.23,.23,.42,.23s.33-.07,.42-.22,.14-.37,.14-.68v-.62Z" style="fill:#8cc44a;"/><path d="M48.44,202.23v1.17h-.39v-2.98h1.1c.33,0,.58,.08,.77,.25s.28,.39,.28,.66c0,.29-.09,.51-.27,.67-.18,.16-.44,.23-.78,.23h-.7Zm0-.32h.71c.21,0,.37-.05,.48-.15s.17-.24,.17-.43-.06-.32-.17-.43-.27-.16-.46-.17h-.73v1.17Z" style="fill:#8cc44a;"/><path d="M51.2,200.41l.97,2.43,.97-2.43h.51v2.98h-.39v-1.16l.04-1.25-.98,2.41h-.3l-.98-2.41,.04,1.25v1.16h-.39v-2.98h.51Z" style="fill:#8cc44a;"/></g><g><path d="M37.25,131.82h-1.54l-.35,.96h-.5l1.4-3.67h.42l1.4,3.67h-.5l-.35-.96Zm-1.39-.4h1.25l-.62-1.72-.62,1.72Z" style="fill:#462e3b;"/><path d="M38.75,132.78v-2.37h-.43v-.36h.43v-.28c0-.29,.08-.52,.23-.68,.16-.16,.38-.24,.66-.24,.11,0,.21,.01,.32,.04l-.03,.38c-.08-.02-.16-.02-.25-.02-.15,0-.27,.04-.35,.13-.08,.09-.12,.22-.12,.38v.29h.58v.36h-.58v2.37h-.47Z" style="fill:#462e3b;"/><path d="M40.94,129.4v.66h.51v.36h-.51v1.69c0,.11,.02,.19,.07,.25,.05,.05,.12,.08,.23,.08,.05,0,.13-.01,.22-.03v.38c-.12,.03-.24,.05-.36,.05-.21,0-.37-.06-.47-.19s-.16-.3-.16-.54v-1.69h-.5v-.36h.5v-.66h.47Z" style="fill:#462e3b;"/><path d="M43.12,132.83c-.37,0-.67-.12-.9-.36s-.35-.57-.35-.97v-.09c0-.27,.05-.51,.15-.72,.1-.21,.25-.38,.43-.5,.19-.12,.39-.18,.6-.18,.35,0,.63,.12,.83,.35,.2,.23,.29,.57,.29,1v.19h-1.85c0,.27,.09,.49,.24,.65,.15,.17,.34,.25,.57,.25,.16,0,.3-.03,.42-.1,.11-.07,.21-.16,.3-.27l.28,.22c-.23,.35-.57,.53-1.03,.53Zm-.06-2.44c-.19,0-.35,.07-.47,.21-.13,.14-.21,.33-.24,.58h1.37v-.04c-.01-.24-.08-.42-.19-.55-.11-.13-.27-.2-.46-.2Z" style="fill:#462e3b;"/><path d="M46.04,130.47c-.07-.01-.15-.02-.23-.02-.31,0-.51,.13-.62,.39v1.93h-.47v-2.73h.45v.32c.16-.24,.38-.37,.66-.37,.09,0,.16,.01,.21,.04v.43Z" style="fill:#462e3b;"/><path d="M46.91,130.06l.02,.34c.21-.26,.48-.39,.82-.39,.58,0,.87,.33,.87,.98v1.8h-.47v-1.8c0-.2-.05-.34-.13-.44-.09-.09-.23-.14-.41-.14-.15,0-.28,.04-.4,.12-.11,.08-.2,.19-.27,.32v1.94h-.47v-2.73h.44Z" style="fill:#462e3b;"/><path d="M49.2,131.39c0-.27,.05-.51,.16-.72,.1-.21,.25-.38,.44-.49s.4-.17,.64-.17c.37,0,.67,.13,.9,.39s.34,.6,.34,1.03v.03c0,.27-.05,.5-.15,.71-.1,.21-.25,.37-.44,.49-.19,.12-.41,.18-.65,.18-.37,0-.67-.13-.9-.39-.23-.26-.34-.6-.34-1.02v-.03Zm.47,.06c0,.3,.07,.55,.21,.73,.14,.18,.33,.27,.56,.27s.42-.09,.56-.28c.14-.19,.21-.45,.21-.78,0-.3-.07-.54-.21-.73-.14-.19-.33-.28-.57-.28s-.42,.09-.56,.27c-.14,.18-.21,.45-.21,.79Z" style="fill:#462e3b;"/><path d="M52.14,131.39c0-.27,.05-.51,.16-.72,.1-.21,.25-.38,.44-.49s.4-.17,.64-.17c.37,0,.67,.13,.9,.39s.34,.6,.34,1.03v.03c0,.27-.05,.5-.15,.71-.1,.21-.25,.37-.44,.49-.19,.12-.41,.18-.65,.18-.37,0-.67-.13-.9-.39-.23-.26-.34-.6-.34-1.02v-.03Zm.47,.06c0,.3,.07,.55,.21,.73,.14,.18,.33,.27,.56,.27s.42-.09,.56-.28c.14-.19,.21-.45,.21-.78,0-.3-.07-.54-.21-.73-.14-.19-.33-.28-.57-.28s-.42,.09-.56,.27c-.14,.18-.21,.45-.21,.79Z" style="fill:#462e3b;"/><path d="M55.65,130.06l.02,.34c.21-.26,.48-.39,.82-.39,.58,0,.87,.33,.87,.98v1.8h-.47v-1.8c0-.2-.05-.34-.13-.44-.09-.09-.23-.14-.41-.14-.15,0-.28,.04-.4,.12-.11,.08-.2,.19-.27,.32v1.94h-.47v-2.73h.44Z" style="fill:#462e3b;"/></g><g><path d="M46.36,117.59c-1.7,0-3.09-1.39-3.09-3.09s1.39-3.09,3.09-3.09,3.09,1.39,3.09,3.09-1.39,3.09-3.09,3.09Zm0-5.71c-1.44,0-2.62,1.17-2.62,2.62s1.17,2.62,2.62,2.62,2.62-1.17,2.62-2.62-1.17-2.62-2.62-2.62Z" style="fill:#462e3b;"/><rect x="46.13" y="108.13" width=".47" height="2.31" style="fill:#462e3b;"/><rect x="42.44" y="109.66" width=".47" height="2.31" transform="translate(-65.86 62.64) rotate(-45)" style="fill:#462e3b;"/><rect x="40" y="114.27" width="2.31" height=".47" style="fill:#462e3b;"/><rect x="41.52" y="117.95" width="2.31" height=".47" transform="translate(-71.07 64.79) rotate(-45)" style="fill:#462e3b;"/><rect x="46.13" y="118.56" width=".47" height="2.31" style="fill:#462e3b;"/><rect x="49.81" y="117.04" width=".47" height="2.31" transform="translate(-68.91 70) rotate(-45)" style="fill:#462e3b;"/><rect x="50.43" y="114.27" width="2.31" height=".47" style="fill:#462e3b;"/><rect x="48.9" y="110.58" width="2.31" height=".47" transform="translate(-63.7 67.85) rotate(-45)" style="fill:#462e3b;"/></g></g></g><g><path d="M256.59,181.84l-1.32,.96c-5.26,3.83-9,7.2-16.53,6.59-5.34-.44-10.67-3.53-15.42-7.15-2.26-1.72-4.44-3.57-6.64-5.4-2.2-1.83-4.38-3.68-6.64-5.4-4.75-3.62-10.08-6.71-15.42-7.15-7.54-.61-11.28,2.75-16.53,6.59l-1.32,.96" style="fill:none; stroke:#462e3b; stroke-miterlimit:10; stroke-width:.75px;"/><circle cx="257.78" cy="180.97" r="1.64" style="fill:#fff; stroke:#462e3b; stroke-miterlimit:10; stroke-width:.75px;"/><circle cx="176.76" cy="171.82" r="1.64" style="fill:#fff; stroke:#462e3b; stroke-miterlimit:10; stroke-width:.75px;"/></g></svg>