<?xml version="1.0" encoding="UTF-8"?><svg xmlns="http://www.w3.org/2000/svg" xmlns:xlink="http://www.w3.org/1999/xlink" viewBox="0 0 464 261"><defs><linearGradient id="w" x1="3.3" y1="60.13" x2="446.54" y2="197.37" gradientUnits="userSpaceOnUse"><stop offset="0" stop-color="#404040"/><stop offset=".26" stop-color="#393f45"/><stop offset=".62" stop-color="#283e54"/><stop offset="1" stop-color="#0f3d6c"/></linearGradient></defs><g style="isolation:isolate;"><g id="v"><g><rect width="464" height="261.88" style="fill:url(#w);"/><g><ellipse cx="363.45" cy="7.76" rx="13.56" ry="6.61" style="fill:#e5e5e5; opacity:.5;"/><path d="M433.24,6.43c4.37,0,7.97-2.88,8.52-6.61h-17.04c.55,3.73,4.15,6.61,8.52,6.61Z" style="fill:#e5e5e5; opacity:.5;"/><g style="opacity:.5;"><path d="M455.98,67.88c.12,.17,.24,.35,.37,.52-.13-.17-.25-.34-.37-.52Z" style="fill:none;"/><path d="M453.43,62.16c.05,.21,.1,.41,.16,.61-.05-.2-.11-.41-.16-.61Z" style="fill:none;"/><path d="M453.84,63.67c.07,.21,.15,.42,.23,.63-.08-.21-.16-.42-.23-.63Z" style="fill:none;"/><path d="M458.21,70.44c-.19-.16-.37-.34-.56-.51,.17,.18,.35,.36,.53,.54,0,0,.02-.02,.02-.03Z" style="fill:none;"/><path d="M457.02,69.22c.11,.13,.22,.27,.34,.4-.12-.13-.22-.26-.34-.4Z" style="fill:none;"/><path d="M454.4,65.12c.09,.21,.19,.41,.29,.62-.1-.2-.2-.41-.29-.62Z" style="fill:none;"/><path d="M455.12,66.53c.11,.2,.22,.39,.34,.58-.12-.19-.23-.39-.34-.58Z" style="fill:none;"/><path d="M458.47,70.75c.25,.23,.48,.47,.74,.68-.26-.22-.5-.45-.74-.68h0Z" style="fill:none;"/><path d="M453.17,60.61c.02,.18,.06,.35,.08,.53-.03-.18-.06-.35-.08-.53Z" style="fill:none;"/><path d="M458.47,70.75c-.1-.09-.2-.18-.3-.27,0,0,0-.01,.01-.02-.18-.18-.36-.36-.53-.54-.06-.06-.12-.11-.19-.17-.04-.04-.07-.09-.11-.13-.12-.13-.22-.26-.34-.4-.23-.27-.46-.54-.67-.82-.13-.17-.25-.34-.37-.52-.18-.26-.35-.51-.52-.78-.12-.19-.23-.39-.34-.58-.15-.26-.29-.52-.42-.79-.1-.2-.2-.41-.29-.62-.12-.27-.23-.55-.34-.82-.08-.21-.16-.42-.23-.63-.1-.29-.18-.59-.26-.89-.05-.2-.11-.41-.16-.61-.07-.34-.12-.68-.17-1.02-.03-.18-.06-.35-.08-.53-.06-.52-.09-1.05-.09-1.59,0-6.73,4.52-12.57,11.13-15.51V-.18h-22.46c-.55,3.73-4.15,6.61-8.52,6.61s-7.97-2.88-8.52-6.61H228.39c3.77,67.85,59.98,121.71,128.78,121.71,41.5,0,78.41-19.6,102.01-50.05-.24-.24-.48-.48-.7-.73h0ZM363.45,1.14c7.49,0,13.56,2.96,13.56,6.61s-6.07,6.61-13.56,6.61-13.56-2.96-13.56-6.61,6.07-6.61,13.56-6.61Zm-49.94,23.81c0-2.92,2.52-5.29,5.62-5.29s5.62,2.37,5.62,5.29-2.52,5.29-5.62,5.29-5.62-2.37-5.62-5.29Zm26.79,53.58c-10.41,0-18.85-4.89-18.85-10.91s8.44-10.91,18.85-10.91,18.85,4.89,18.85,10.91-8.44,10.91-18.85,10.91Zm23.15-37.04c-3.47,0-6.28-.89-6.28-1.98s2.81-1.98,6.28-1.98,6.28,.89,6.28,1.98-2.81,1.98-6.28,1.98Zm22.49,60.85c-7.12,0-12.9-3.55-12.9-7.94s5.77-7.94,12.9-7.94,12.9,3.55,12.9,7.94-5.77,7.94-12.9,7.94Zm35.06-27.12c-3.11,0-5.62-2.07-5.62-4.63s2.52-4.63,5.62-4.63,5.62,2.07,5.62,4.63-2.52,4.63-5.62,4.63Zm-5.62-28.44c-10.96,0-19.84-4.74-19.84-10.58s8.88-10.58,19.84-10.58,19.84,4.74,19.84,10.58-8.88,10.58-19.84,10.58Z" style="fill:#fff;"/><ellipse cx="415.38" cy="36.2" rx="19.84" ry="10.58" style="fill:#e5e5e5;"/><ellipse cx="421" cy="70.6" rx="5.62" ry="4.63" style="fill:#e5e5e5;"/><path d="M363.45,37.52c-3.47,0-6.28,.89-6.28,1.98s2.81,1.98,6.28,1.98,6.28-.89,6.28-1.98-2.81-1.98-6.28-1.98Z" style="fill:#e5e5e5;"/><path d="M453.08,59.02c0,.54,.03,1.07,.09,1.59,.02,.18,.06,.35,.08,.53,.05,.34,.1,.68,.17,1.02,.05,.21,.1,.41,.16,.61,.08,.3,.16,.6,.26,.89,.07,.21,.15,.42,.23,.63,.11,.28,.21,.55,.34,.82,.09,.21,.19,.41,.29,.62,.13,.27,.27,.53,.42,.79,.11,.2,.22,.39,.34,.58,.16,.26,.34,.52,.52,.78,.12,.17,.24,.35,.37,.52,.21,.28,.44,.55,.67,.82,.11,.13,.22,.27,.34,.4,.09,.1,.2,.2,.3,.3,.18,.17,.36,.35,.56,.51,0,0-.02,.02-.02,.03,.1,.09,.18,.2,.28,.29,.24,.23,.48,.47,.74,.68,1.74-2.25,3.41-4.56,5-6.93v-21c-6.62,2.94-11.13,8.77-11.13,15.51Z" style="fill:#e5e5e5;"/><path d="M454.7,65.74c.13,.27,.27,.53,.42,.79-.15-.26-.29-.52-.42-.79Z" style="fill:#e5e5e5;"/><path d="M455.46,67.11c.16,.26,.34,.52,.52,.78-.18-.26-.35-.51-.52-.78Z" style="fill:#e5e5e5;"/><path d="M454.07,64.3c.11,.28,.21,.55,.34,.82-.12-.27-.23-.55-.34-.82Z" style="fill:#e5e5e5;"/><path d="M453.08,59.02c0,.54,.03,1.07,.09,1.59-.06-.52-.09-1.05-.09-1.59Z" style="fill:#e5e5e5;"/><path d="M453.58,62.78c.08,.3,.16,.6,.26,.89-.1-.29-.18-.59-.26-.89Z" style="fill:#e5e5e5;"/><path d="M457.66,69.92c-.1-.1-.2-.2-.3-.3,.04,.04,.07,.09,.11,.13,.06,.06,.12,.11,.19,.17Z" style="fill:#e5e5e5;"/><path d="M453.25,61.14c.05,.34,.1,.68,.17,1.02-.07-.34-.12-.68-.17-1.02Z" style="fill:#e5e5e5;"/><path d="M458.47,70.75c-.1-.09-.19-.19-.28-.29,0,0,0,.01-.01,.02,.1,.09,.2,.18,.3,.27Z" style="fill:#e5e5e5;"/><path d="M456.35,68.4c.21,.28,.44,.55,.67,.82-.23-.27-.46-.54-.67-.82Z" style="fill:#e5e5e5;"/><path d="M459.18,71.48s.02-.03,.04-.04c-.26-.22-.49-.45-.74-.68,.23,.25,.46,.49,.7,.73Z" style="fill:#e5e5e5;"/><ellipse cx="385.94" cy="94.41" rx="12.9" ry="7.94" style="fill:#e5e5e5;"/><ellipse cx="340.3" cy="67.62" rx="18.85" ry="10.91" style="fill:#e5e5e5;"/><ellipse cx="319.13" cy="24.95" rx="5.62" ry="5.29" style="fill:#e5e5e5;"/></g></g><g><g><rect x="200.63" y="104.22" width="227.54" height="142.76" style="fill:#fff;"/><g><rect x="339.31" y="222.59" width="17.54" height="4.79" rx="2.39" ry="2.39" style="fill:#eceaeb;"/><rect x="339.31" y="231.79" width="17.54" height="4.79" rx="2.39" ry="2.39" style="fill:#eceaeb;"/><path d="M413.41,222.59h-43.8c-1.27,0-2.39,.96-2.47,2.23-.09,1.39,1.01,2.55,2.39,2.55h43.88c1.32,0,2.39-1.07,2.39-2.39h0c0-1.32-1.07-2.39-2.39-2.39Z" style="fill:#eceaeb;"/><rect x="367.13" y="231.79" width="48.67" height="4.79" rx="2.39" ry="2.39" style="fill:#eceaeb;"/></g><rect x="214.36" y="125.67" width="87.08" height="16.7" rx="8.35" ry="8.35" style="fill:#eceaeb;"/><g><path d="M394.01,129.86c10.04,0,18.21,8.17,18.21,18.21v14.16c0,10.04-8.17,18.21-18.21,18.21h-33.07c-10.04,0-18.21-8.17-18.21-18.21v-14.16c0-10.04,8.17-18.21,18.21-18.21h33.07m0-4.19h-33.07c-12.37,0-22.4,10.03-22.4,22.4v14.16c0,12.37,10.03,22.4,22.4,22.4h33.07c12.37,0,22.4-10.03,22.4-22.4v-14.16c0-12.37-10.03-22.4-22.4-22.4h0Z" style="fill:#eceaeb;"/><g><path d="M390.81,163.46l-8.84,13.52-16.76-25.63,6.22-9.52c1.28-1.96,3.95-1.96,5.23,0l14.14,21.63Z" style="fill:#dad5d8;"/><path d="M408.02,177.9h-26.65l.6-.91,1.52-2.32,7.32-11.2,3.7-5.66c1.01-1.55,3.12-1.55,4.13,0l10.96,16.76c.91,1.39,0,3.33-1.58,3.33Z" style="fill:#eceaeb;"/><path d="M383.48,174.66l-1.52,2.32-.6,.91h-36.71c-1.58,0-2.49-1.94-1.58-3.33l17.65-26.99c1.23-1.88,3.8-1.88,5.04,0l2.47,3.78,15.24,23.31Z" style="fill:#eceaeb;"/><ellipse cx="392.69" cy="140.37" rx="3.99" ry="4.35" style="fill:#dad5d8;"/></g></g><g><rect x="214.36" y="154.58" width="99.13" height="5.26" rx="2.63" ry="2.63" style="fill:#eceaeb;"/><rect x="214.36" y="165.65" width="93.44" height="5.26" rx="2.63" ry="2.63" style="fill:#eceaeb;"/><rect x="214.36" y="176.72" width="74.94" height="5.26" rx="2.63" ry="2.63" style="fill:#eceaeb;"/></g><path d="M318.13-13.09h0V214.45h0c-4.12,0-7.46-3.34-7.46-7.46V-5.63c0-4.12,3.34-7.46,7.46-7.46Z" transform="translate(415.08 -213.72) rotate(90)" style="fill:#f2692c;"/><g><circle cx="421.84" cy="100.68" r="1.5" style="fill:#f3f9ec;"/><circle cx="416.79" cy="100.68" r="1.5" style="fill:#f3f9ec;"/><circle cx="411.74" cy="100.68" r="1.5" style="fill:#f3f9ec;"/></g></g><path d="M270.87,133.45c-2.25,0-4.24,1.25-5.48,3.17,.65-12.86,3.65-16.05,3.65-32.22h-67.14v74.42h64.01c1.63,0,2.94-1.34,2.9-2.97-.34-14.25-3.1-16.14-3.5-30.09,1.23,2,3.27,3.31,5.57,3.31,3.77,0,7.55-3.5,7.55-7.82s-3.78-7.82-7.55-7.82Z" style="fill:#462e3b; opacity:.2;"/><path d="M269.6,132.14c-2.25,0-4.24,1.25-5.48,3.17,.65-12.86,3.45-14.73,3.45-30.9h-66.94s0,73.11,0,73.11h64.01c1.63,0,2.94-1.34,2.9-2.97-.34-14.25-3.1-16.14-3.5-30.09,1.23,2,3.27,3.31,5.57,3.31,3.77,0,7.55-3.5,7.55-7.82s-3.78-7.82-7.55-7.82Z" style="fill:#462e3b;"/><path d="M251.29,132.4c0-1.82-1.29-4.06-2.87-4.96l-12.36-7.14c-1.57-.92-4.15-.92-5.73,0l-12.37,7.14c-1.58,.91-2.87,3.14-2.87,4.96v14.28c0,1.82,1.28,4.05,2.87,4.96l12.37,7.14c1.57,.92,4.15,.92,5.73,0l12.37-7.14c1.57-.91,2.87-3.14,2.87-4.96v-14.28Z" style="fill:#462e3b; mix-blend-mode:multiply; opacity:.4;"/><g><path d="M250.8,145.89c0,1.82-1.29,4.06-2.87,4.96l-12.37,7.14c-1.58,.92-4.16,.92-5.73,0l-12.37-7.14c-1.58-.92-2.87-3.14-2.87-4.96v-14.28c0-1.82,1.28-4.06,2.87-4.96l12.37-7.14c1.58-.92,4.16-.92,5.73,0l12.36,7.14c1.58,.91,2.87,3.14,2.87,4.96v14.28h0Z" style="fill:#f15a2b;"/><path d="M228.48,134.68h16.92v-4.75h-16.88c-2.42,0-4.42,.83-5.95,2.45-3.69,3.92-3.78,13.81-3.78,13.81h26.49v-8.94h-4.75v4.18h-16.65c.11-1.56,.82-4.34,2.18-5.79,.61-.66,1.38-.96,2.43-.96h0Z" style="fill:#fff;"/></g><path d="M431.48,200.47c-1.78,0-3.4,.78-4.61,2.06-.02,.02-.05,.04-.07,.06v-29.84h-63.36c0,15.02-2.42,17.69-3.28,28.31-.03,.38,.37,.62,.7,.43,1.1-.65,2.32-1.02,3.55-1.02,3.76,0,6.82,3.5,6.82,7.82s-3.05,7.82-6.82,7.82c-1.28,0-2.56-.4-3.69-1.1-.32-.2-.73,.04-.71,.42,.69,12.45,3.43,14.47,3.43,30.43h63.36v-31.89c1.22,1.33,2.87,2.14,4.68,2.14,3.77,0,7.55-3.5,7.55-7.82s-3.78-7.82-7.55-7.82Z" style="fill:#462e3b; opacity:.2;"/><g><path d="M428.17,173.88v73.11h-63.36c0-15.97-2.74-17.98-3.43-30.43-.02-.37,.39-.61,.71-.42,1.13,.7,2.41,1.1,3.69,1.1,3.76,0,6.82-3.5,6.82-7.82s-3.05-7.82-6.82-7.82c-1.23,0-2.45,.37-3.55,1.02-.32,.19-.73-.06-.7-.43,.86-10.62,3.28-13.29,3.28-28.31h63.36Z" style="fill:#8cc44a;"/><path d="M427.34,215.38c-.02-.42,.51-.65,.79-.34,1.23,1.35,2.89,2.18,4.72,2.18,3.77,0,7.55-3.5,7.55-7.82s-3.78-7.82-7.55-7.82c-1.78,0-3.4,.78-4.61,2.06-.29,.31-.82,.07-.79-.35l-.12,12.08Z" style="fill:#8cc44a;"/><g><path d="M414.4,193.33c-.13-.24-.29-.43-.48-.55,.23,.05,.38,.22,.48,.55Z" style="fill:#f2692c; opacity:.4;"/><path d="M419.05,213.16c-1.3-3.81-1.95-7.67-4.56-11.77h0c1.61-2.2,2.75-6.94,1.41-9.42-.53-.98-.79-1.82-2.41-1.29-2.2,.72-5.17,2.15-6.24,4.56-2.04-.82-4.58-1.35-7.72-1.27-1.71,.05-3.24,.19-4.62,.44v8.2h-10.66c-1.39,2.66-2.56,6.06-4.05,10.14-.29,.8-.43,1.44-.04,1.9,.5,.93,1.88,1.47,2.91,1.88,1.49,.6,4.28,2.38,7.04,4.45,2.08,1.56,4.14,3.29,5.64,4.83,2.38,2.11,5.09,2.17,7.18-.25,1.91-2.22,4.45-4.41,6.94-6.26,3.58-2.67,7.04-4.65,8.36-5.03,.57-.15,1.04-.45,.81-1.11Z" style="fill:#462e3b; opacity:.4;"/><g><path d="M402.23,224.84c1.91-2.22,4.45-4.41,6.94-6.26,3.58-2.67,7.05-4.65,8.36-5.03-1.5-2.04-3.54-3.52-5.94-4-4.22-.84-8.7,.27-10.36,6-.61,2.11-.69,4.83-.6,7.01h0c.37,.6,.37,1.19-.23,1.8-.87,.89-1.9,.79-2.81,.52-.86-.25-1.58-1.19-1.06-2.27,.01-.01,.03-.02,.04-.03-.09-3.06-.31-5.05-1.02-7.57-1.32-4.71-6.63-6.57-10.84-4.74-2,.87-3.78,1.94-5.24,3.65,.5,.93,1.88,1.47,2.91,1.88,1.49,.6,4.28,2.38,7.04,4.45,2.08,1.56,4.14,3.29,5.64,4.82,2.38,2.11,5.09,2.17,7.18-.25Zm5.05-13.34c.65-.02,1.66,.24,1.83,1.25,.08,1.38-.49,2.16-1.79,2.28-1.01,.09-1.66-.57-1.87-1.4-.28-1.13,.36-2.09,1.83-2.13Zm-19.63,2.27c0-1.12,.49-2.03,1.74-2.04,.97,0,1.98,.44,1.99,1.7,0,1.2-.77,1.78-1.9,1.96-1.06-.04-1.83-.72-1.83-1.61Z" style="fill:#fff8f0;"/><path d="M391.38,213.43c0-1.26-1.02-1.71-1.99-1.7-1.26,.01-1.74,.92-1.74,2.04,0,.89,.78,1.58,1.83,1.61,1.12-.18,1.9-.76,1.9-1.96Z" style="fill:#462d3b;"/><path d="M407.31,215.03c1.3-.12,1.87-.9,1.79-2.28-.16-1.01-1.18-1.26-1.83-1.25-1.48,.04-2.11,1-1.83,2.13,.21,.83,.85,1.49,1.87,1.4Z" style="fill:#462d3b;"/><path d="M384.69,210.28c4.21-1.83,9.52,.03,10.84,4.74,.71,2.52,.93,4.52,1.02,7.57,1.12-1.01,3.04-.81,3.84-.33,.08,.1,.15,.2,.22,.3h0c-.09-2.18-.01-4.9,.6-7.01,1.66-5.73,6.14-6.85,10.36-6,2.4,.48,4.44,1.95,5.94,4,.57-.15,1.04-.44,.81-1.11-1.3-3.81-1.95-7.67-4.56-11.77-.64,0-1.07-.62-1.15-1.32-.42-1.13-2.9-3.14-4.55-3.66-.01,.03-.03,.06-.04,.09-.51,.01-1.34-.26-1.57-1.09,.02-.06,.05-.12,.08-.17-2.04-.82-4.58-1.35-7.72-1.27-2.77,.08-5.05,.4-7,1.04,0,0,0,0,0,.01-.23,.83-1.06,1.1-1.57,1.09,0,0,0-.02-.01-.02-1.63,.61-3.93,2.58-4.33,3.67-.08,.7-.85,1.31-1.49,1.32-.08,.13-.17,.25-.25,.39-1.69,2.8-2.98,6.6-4.69,11.28-.29,.8-.43,1.44-.04,1.9,1.46-1.7,3.24-2.78,5.24-3.65Z" style="fill:#f3682a;"/><path d="M386.1,192.06c-1.21,.15-1.16,1.77-1.26,2.85-.13,1.37,.25,2.9,1.09,4.12,.4-1.09,2.7-3.06,4.33-3.67-.25-.61-2.37-3.52-4.15-3.3Z" style="fill:#fff8f0;"/><path d="M396.55,222.59s-.03,.02-.04,.03c-.52,1.08,.21,2.02,1.06,2.27,.91,.26,1.94,.36,2.81-.52,.6-.61,.6-1.2,.23-1.8-.06-.1-.13-.2-.22-.3-.8-.48-2.73-.68-3.84,.33Z" style="fill:#462d3b;"/><path d="M385.92,199.04c-.84-1.22-1.22-2.76-1.09-4.12,.11-1.08,.05-2.7,1.26-2.85,1.8-.22,3.96,2.77,4.16,3.33h0c.51,.01,1.34-.26,1.57-1.09,0,0,0,0,0-.01-1-2.51-2.92-2.98-4.99-4.12-1.01-.56-2.11,.06-2.79,.95-1.71,2.24-1.23,7.04,.37,9.23,0,0,0,0,0,0,.64,0,1.4-.62,1.49-1.32Z" style="fill:#462d3b;"/><path d="M413.89,194.53c-.03-.92-.08-1.53-.2-1.92-.07-.26-.21-.51-.48-.55-.15-.03-.32-.02-.54,.03-1.73,.38-4.11,2.48-4.6,3.6,1.65,.52,4.13,2.54,4.55,3.66,.84-1.22,1.32-3.45,1.27-4.82Z" style="fill:#fff8f0;"/><path d="M408.03,195.77h0c.4-1.09,2.86-3.29,4.63-3.69,.22-.05,.39-.06,.54-.03,.23,.05,.38,.22,.48,.55,.12,.39,.17,1,.2,1.92,.05,1.37-.43,3.6-1.27,4.82,.08,.7,.52,1.32,1.15,1.32,0,0,0,0,0,0,1.61-2.2,2.74-6.94,1.41-9.42-.53-.98-.79-1.82-2.4-1.29-2.2,.72-5.17,2.15-6.24,4.56-.03,.06-.06,.11-.08,.17,.23,.82,1.06,1.1,1.57,1.09Z" style="fill:#462d3b;"/></g></g></g><rect x="278.69" y="143.29" width="71.41" height="64.63" style="fill:#fff; opacity:.4;"/><g><g><rect x="284.06" y="196.18" width="60.68" height="5.21" rx="2.61" ry="2.61" style="fill:#f6a480;"/><path d="M330.53,196.18v5.21h-43.87c-1.44,0-2.61-1.17-2.61-2.61h0c0-1.44,1.17-2.61,2.61-2.61h43.87Z" style="fill:#f2692c;"/><g><polygon points="288.09 201.39 286.4 201.39 289.07 196.18 290.76 196.18 288.09 201.39" style="fill:#f37743;"/><polygon points="293.35 201.39 291.67 201.39 294.34 196.18 296.02 196.18 293.35 201.39" style="fill:#f37743;"/><polygon points="298.62 201.39 296.94 201.39 299.6 196.18 301.29 196.18 298.62 201.39" style="fill:#f37743;"/><polygon points="303.88 201.39 302.2 201.39 304.87 196.18 306.55 196.18 303.88 201.39" style="fill:#f37743;"/><polygon points="309.15 201.39 307.47 201.39 310.14 196.18 311.82 196.18 309.15 201.39" style="fill:#f37743;"/><polygon points="314.42 201.39 312.73 201.39 315.4 196.18 317.09 196.18 314.42 201.39" style="fill:#f37743;"/><polygon points="319.68 201.39 318 201.39 320.67 196.18 322.35 196.18 319.68 201.39" style="fill:#f37743;"/><polygon points="324.95 201.39 323.26 201.39 325.93 196.18 327.62 196.18 324.95 201.39" style="fill:#f37743;"/><polygon points="330.53 197.5 328.53 201.39 330.21 201.39 330.53 200.78 330.53 197.5" style="fill:#f37743;"/></g></g><g><path d="M316.22,181.7l.81,1.69c.09,.18,.05,.4-.09,.55l-1.93,1.93c-.14,.14-.37,.18-.55,.09l-1.69-.81-2.37,1.21-.34,1.85c-.04,.2-.2,.36-.4,.39l-2.7,.43c-.2,.03-.4-.07-.5-.25l-.89-1.65-2.63-.42-1.36,1.3c-.15,.14-.37,.17-.55,.08l-2.44-1.24c-.18-.09-.29-.29-.26-.49l.25-1.86-1.88-1.88-1.86,.25c-.2,.03-.4-.08-.49-.26l-1.24-2.44c-.09-.18-.06-.4,.08-.55l1.3-1.36-.42-2.63-1.65-.89c-.18-.1-.28-.3-.25-.5l.43-2.7c.03-.2,.19-.36,.39-.4l1.85-.34,1.21-2.37-.81-1.69c-.09-.18-.05-.4,.09-.55l1.93-1.93c.14-.14,.37-.18,.55-.09l1.69,.81,2.37-1.21,.34-1.85c.04-.2,.2-.36,.4-.39l2.7-.43c.2-.03,.4,.07,.5,.25l.89,1.65,2.63,.42,1.36-1.3c.15-.14,.37-.17,.55-.08l2.44,1.24c.18,.09,.29,.29,.26,.49l-.25,1.86,1.88,1.88,1.86-.25c.2-.03,.4,.08,.49,.26l1.24,2.44c.09,.18,.06,.4-.08,.55l-1.3,1.36,.42,2.63,1.65,.89c.18,.1,.28,.3,.25,.5l-.43,2.7c-.03,.2-.19,.36-.39,.4l-1.85,.34-1.21,2.37Zm-3.98-12.74c-3.37-3.37-8.84-3.37-12.21,0-3.37,3.37-3.37,8.84,0,12.21,3.37,3.37,8.84,3.37,12.21,0,3.37-3.37,3.37-8.84,0-12.21Z" style="fill:#f2692c;"/><path d="M334.1,166.25l.52,1.17c.06,.14,.03,.31-.08,.42l-1.46,1.46c-.11,.11-.28,.14-.42,.08l-1.17-.52-1.82,.85-.35,1.23c-.04,.15-.17,.26-.33,.27l-2.06,.18c-.15,.01-.3-.07-.37-.21l-.56-1.15-1.94-.52-1.06,.71c-.13,.09-.3,.09-.43,0l-1.69-1.18c-.13-.09-.19-.25-.15-.4l.31-1.24-1.15-1.65-1.27-.13c-.15-.02-.28-.13-.32-.28l-.53-1.99c-.04-.15,.02-.31,.14-.4l1.03-.75,.18-2-.89-.92c-.11-.11-.14-.28-.07-.42l.87-1.87c.07-.14,.21-.23,.37-.22l1.28,.09,1.42-1.42-.09-1.28c-.01-.16,.08-.3,.22-.37l1.87-.87c.14-.07,.31-.04,.42,.07l.92,.89,2-.18,.75-1.03c.09-.13,.25-.18,.4-.14l1.99,.53c.15,.04,.26,.17,.28,.32l.13,1.27,1.65,1.15,1.24-.31c.15-.04,.31,.02,.4,.15l1.18,1.69c.09,.13,.09,.3,0,.43l-.71,1.06,.52,1.94,1.15,.56c.14,.07,.22,.22,.21,.37l-.18,2.06c-.01,.15-.12,.29-.27,.33l-1.23,.35-.85,1.82Zm-3.31-8c-2.01-2.01-5.28-2.01-7.29,0-2.01,2.01-2.01,5.28,0,7.29s5.28,2.01,7.29,0,2.01-5.28,0-7.29Z" style="fill:#f37743;"/><path d="M331.08,183.98l-.05,.98c0,.12-.09,.23-.21,.26l-1.58,.43c-.12,.03-.24-.01-.31-.12l-.54-.82-1.51-.28-.8,.57c-.1,.07-.23,.07-.33,0l-1.33-.97c-.1-.07-.14-.2-.1-.32l.3-.93-.73-1.36-.94-.27c-.12-.03-.2-.14-.21-.26l-.07-1.64c0-.12,.07-.23,.18-.28l.92-.35,.61-1.41-.38-.9c-.05-.11-.02-.24,.08-.32l1.24-1.08c.09-.08,.23-.09,.33-.03l.84,.5,1.48-.41,.47-.86c.06-.11,.18-.17,.3-.14l1.61,.29c.12,.02,.21,.12,.23,.24l.13,.97,1.24,.91,.96-.17c.12-.02,.24,.04,.3,.15l.78,1.45c.06,.11,.04,.24-.04,.33l-.67,.71,.07,1.54,.73,.65c.09,.08,.12,.21,.07,.32l-.65,1.51c-.05,.11-.16,.18-.29,.17l-.98-.08-1.16,1.01Zm.26-4.92c-.43-1.57-2.05-2.49-3.62-2.06s-2.49,2.05-2.06,3.62,2.05,2.49,3.62,2.06c1.57-.43,2.49-2.05,2.06-3.62Z" style="fill:#f2692c;"/></g></g><path d="M421.04,108.1h-14.35c-1.27,0-2.3,1.03-2.3,2.3s1.03,2.3,2.3,2.3h14.35c1.27,0,2.3-1.03,2.3-2.3s-1.03-2.3-2.3-2.3h0Z" style="fill:#eceaeb;"/><path d="M396.73,108.1h-9.86c-1.27,0-2.3,1.03-2.3,2.3s1.03,2.3,2.3,2.3h9.86c1.27,0,2.3-1.03,2.3-2.3s-1.03-2.3-2.3-2.3h0Z" style="fill:#eceaeb;"/><path d="M376.92,108.1h-13.37c-1.27,0-2.3,1.03-2.3,2.3s1.03,2.3,2.3,2.3h13.37c1.27,0,2.3-1.03,2.3-2.3s-1.03-2.3-2.3-2.3h0Z" style="fill:#eceaeb;"/><rect x="214.6" y="193.24" width="48.86" height="12.5" rx="6.25" ry="6.25" style="fill:#dad5d8;"/><g><rect x="214.46" y="222.59" width="17.54" height="4.79" rx="2.39" ry="2.39" style="fill:#eceaeb;"/><rect x="214.46" y="231.79" width="17.54" height="4.79" rx="2.39" ry="2.39" style="fill:#eceaeb;"/><rect x="242.28" y="222.59" width="55.22" height="4.79" rx="2.39" ry="2.39" style="fill:#eceaeb;"/><rect x="242.28" y="231.79" width="71.21" height="4.79" rx="2.39" ry="2.39" style="fill:#eceaeb;"/></g><rect x="200.77" y="104.21" width="66.78" height="1.52" style="fill:#462e3b; opacity:.2;"/><g><circle cx="207.29" cy="170.91" r="2.01" style="fill:#7d6c75;"/><line x1="214.6" y1="170.91" x2="238.01" y2="170.91" style="fill:none; stroke:#7d6c75; stroke-linecap:round; stroke-miterlimit:10; stroke-width:6px;"/><line x1="246.19" y1="170.91" x2="257.9" y2="170.91" style="fill:none; stroke:#7d6c75; stroke-linecap:round; stroke-miterlimit:10; stroke-width:6px;"/></g><g><circle cx="422.4" cy="242.22" r="2.01" style="fill:#add583;"/><line x1="415.09" y1="242.22" x2="391.68" y2="242.22" style="fill:none; stroke:#add583; stroke-linecap:round; stroke-miterlimit:10; stroke-width:6px;"/><line x1="383.5" y1="242.22" x2="371.79" y2="242.22" style="fill:none; stroke:#add583; stroke-linecap:round; stroke-miterlimit:10; stroke-width:6px;"/></g></g><g><path d="M19.68,104.77v-14.83h4.11c3.37,0,4.77,2.71,4.77,5.29s-1.57,5.4-5.17,5.4h-.95v4.13h-2.75Zm3.79-6.78c1.57,0,2.35-1.27,2.35-2.71s-.8-2.71-2.37-2.71h-1.02v5.42h1.04Z" style="fill:#fff;"/><path d="M30.82,104.77v-14.83h2.75v12.18h4.32v2.65h-7.07Z" style="fill:#fff;"/><path d="M46.37,89.94h2.75v9.89c0,3.58-1.93,5.15-4.51,5.15s-4.6-1.57-4.6-5.17v-9.87h2.75v10.02c0,1.46,.53,2.37,1.8,2.37,1.33,0,1.8-.95,1.8-2.39v-10Z" style="fill:#fff;"/><path d="M53.6,100.47c.36,1.12,1.29,1.86,2.35,1.86s1.95-.51,1.95-1.65c0-2.41-6.12-2.39-6.12-6.9,0-2.29,1.67-4.04,4.09-4.04s3.79,1.33,4.51,3.2l-2.39,1.48c-.36-1.23-1-2.03-2.12-2.03-.78,0-1.33,.49-1.33,1.31,0,2.63,6.12,2.1,6.12,6.99,0,2.63-1.95,4.3-4.7,4.3-2.29,0-3.96-1.19-4.7-2.92l2.35-1.59Z" style="fill:#fff;"/></g><g><path d="M20.78,39.76c.43,1.34,1.54,2.22,2.8,2.22s2.32-.61,2.32-1.97c0-2.87-7.28-2.85-7.28-8.22,0-2.72,1.99-4.81,4.86-4.81s4.51,1.59,5.37,3.81l-2.85,1.76c-.43-1.46-1.18-2.42-2.52-2.42-.93,0-1.59,.58-1.59,1.56,0,3.13,7.28,2.5,7.28,8.32,0,3.13-2.32,5.12-5.59,5.12-2.72,0-4.71-1.41-5.6-3.48l2.8-1.89Z" style="fill:#f2f2f2;"/><rect x="32.1" y="27.23" width="3.28" height="17.64" style="fill:#f2f2f2;"/><path d="M49.95,44.88v-10.86c0-.5,.02-1.21,.02-1.21h-.05s-.3,.6-.55,1.01l-3.02,5.09h-.05l-2.97-5.04c-.23-.4-.61-1.11-.61-1.11h-.05s.02,.73,.02,1.26v10.86h-3.28V27.23h3.63l2.67,4.74c.23,.4,.58,1.11,.58,1.11h.05s.38-.71,.61-1.14l2.65-4.71h3.63v17.64h-3.28Z" style="fill:#f2f2f2;"/><path d="M57.26,44.88V27.23h4.89c4.01,0,5.67,3.23,5.67,6.3s-1.87,6.43-6.15,6.43h-1.13v4.92h-3.28Zm4.51-8.07c1.87,0,2.8-1.51,2.8-3.23s-.96-3.23-2.82-3.23h-1.21v6.45h1.24Z" style="fill:#f2f2f2;"/><polygon points="70.53 44.88 70.53 27.23 73.8 27.23 73.8 41.73 78.94 41.73 78.94 44.88 70.53 44.88" style="fill:#f2f2f2;"/><path d="M87.31,44.88h-3.3v-4.97l-4.26-12.68h3.68l1.76,6.33c.25,.93,.45,2.22,.45,2.22h.05c.02-.25,.2-1.29,.45-2.22l1.74-6.33h3.7l-4.28,12.83v4.81Z" style="fill:#f2f2f2;"/><path d="M101.64,39.76c.43,1.34,1.54,2.22,2.8,2.22s2.32-.61,2.32-1.97c0-2.87-7.28-2.85-7.28-8.22,0-2.72,1.99-4.81,4.86-4.81s4.51,1.59,5.37,3.81l-2.85,1.76c-.43-1.46-1.18-2.42-2.52-2.42-.93,0-1.59,.58-1.59,1.56,0,3.13,7.28,2.5,7.28,8.32,0,3.13-2.32,5.12-5.6,5.12-2.72,0-4.71-1.41-5.6-3.48l2.8-1.89Z" style="fill:#f2f2f2;"/><path d="M123.39,41.65c-.88,2.07-2.52,3.48-5.24,3.48-4.86,0-6.2-4.49-6.2-9.07s1.34-9.07,6.2-9.07c2.87,0,4.51,1.59,5.37,3.81l-2.85,1.76c-.43-1.46-1.18-2.42-2.52-2.42-2.24,0-2.92,2.75-2.92,5.92s.68,5.92,2.92,5.92c1.26,0,2.02-.88,2.44-2.22l2.8,1.89Z" style="fill:#f2f2f2;"/><polygon points="133.88 44.88 133.88 38.25 129.34 38.25 129.34 44.88 126.07 44.88 126.07 27.23 129.34 27.23 129.34 35.1 133.88 35.1 133.88 27.23 137.16 27.23 137.16 44.88 133.88 44.88" style="fill:#f2f2f2;"/><polygon points="141.19 44.88 141.19 27.23 150.57 27.23 150.57 30.38 144.47 30.38 144.47 34.9 149.61 34.9 149.61 38.05 144.47 38.05 144.47 41.73 150.57 41.73 150.57 44.88 141.19 44.88" style="fill:#f2f2f2;"/><path d="M154.38,44.88V27.23h4.56c4.86,0,6.45,4.24,6.45,8.82s-1.59,8.82-6.45,8.82h-4.56Zm4.56-3.15c2.24,0,3.18-2.5,3.18-5.67s-.93-5.67-3.18-5.67h-1.29v11.34h1.29Z" style="fill:#f2f2f2;"/><path d="M176.13,27.23h3.28v11.77c0,4.26-2.29,6.12-5.37,6.12s-5.47-1.87-5.47-6.15v-11.75h3.28v11.92c0,1.74,.63,2.82,2.14,2.82,1.59,0,2.14-1.13,2.14-2.85v-11.9Z" style="fill:#f2f2f2;"/><polygon points="183.45 44.88 183.45 27.23 186.72 27.23 186.72 41.73 191.86 41.73 191.86 44.88 183.45 44.88" style="fill:#f2f2f2;"/><polygon points="194.39 44.88 194.39 27.23 203.76 27.23 203.76 30.38 197.67 30.38 197.67 34.9 202.81 34.9 202.81 38.05 197.67 38.05 197.67 41.73 203.76 41.73 203.76 44.88 194.39 44.88" style="fill:#f2f2f2;"/><path d="M26.57,69.37l-.27-2.08h-3.45l-.21,2.08h-4.65l4.01-18.71h5.24l4.01,18.71h-4.68Zm-1.63-11.6c-.16-1.07-.29-2.59-.29-2.59h-.05s-.16,1.52-.32,2.59l-.75,5.61h2.17l-.75-5.61Z" style="fill:#f2f2f2;"/><path d="M35.33,69.37v-18.71h5.56c4.28,0,6.04,3.69,6.04,6.66,0,3.58-2,6.84-6.23,6.84h-.94v5.21h-4.44Zm5.27-9.2c1.39,0,1.92-1.36,1.92-2.78,0-1.52-.56-2.78-1.95-2.78h-.8v5.56h.83Z" style="fill:#f2f2f2;"/><path d="M51.21,69.37v-18.71h5.56c4.28,0,6.04,3.69,6.04,6.66,0,3.58-2.01,6.84-6.23,6.84h-.94v5.21h-4.44Zm5.27-9.2c1.39,0,1.92-1.36,1.92-2.78,0-1.52-.56-2.78-1.95-2.78h-.8v5.56h.83Z" style="fill:#f2f2f2;"/><path d="M66.28,60.01c0-4.97,1.15-9.73,6.34-9.73s6.34,4.76,6.34,9.73-1.12,9.73-6.34,9.73-6.34-4.76-6.34-9.73m8.23,0c0-3.42-.24-5.45-1.9-5.45s-1.9,2.03-1.9,5.45,.29,5.45,1.9,5.45,1.9-2.03,1.9-5.45" style="fill:#f2f2f2;"/><rect x="83.5" y="50.66" width="4.44" height="18.71" style="fill:#f2f2f2;"/><path d="M101.81,69.37l-3.21-7.16c-.61-1.36-1.15-3.07-1.15-3.07h-.05s.05,1.79,.05,3.31v6.92h-4.17v-18.71h4.54l2.91,6.42c.61,1.34,1.28,3.21,1.28,3.21h.05s-.05-1.92-.05-3.5v-6.12h4.2v18.71h-4.41Z" style="fill:#f2f2f2;"/><polygon points="113.51 69.37 113.51 54.93 110.76 54.93 110.76 50.66 120.73 50.66 120.73 54.93 117.98 54.93 117.98 69.37 113.51 69.37" style="fill:#f2f2f2;"/><path d="M135.94,69.37v-9.52c0-1.18,.08-2.25,.08-2.25h-.05s-.4,.8-1.12,1.79l-2.09,2.86h-.11l-2.09-2.86c-.72-.99-1.1-1.79-1.1-1.79h-.05s.03,1.1,.03,2.25v9.52h-4.17v-18.71h4.44l1.66,2.38c.8,1.15,1.31,2.06,1.31,2.06h.05s.56-.91,1.34-2.06l1.63-2.38h4.41v18.71h-4.17Z" style="fill:#f2f2f2;"/><polygon points="145.46 69.37 145.46 50.66 155.85 50.66 155.85 54.72 149.89 54.72 149.89 58.3 154.87 58.3 154.87 62.2 149.89 62.2 149.89 65.3 155.85 65.3 155.85 69.37 145.46 69.37" style="fill:#f2f2f2;"/><path d="M169.46,69.37l-3.21-7.16c-.61-1.36-1.15-3.07-1.15-3.07h-.05s.05,1.79,.05,3.31v6.92h-4.17v-18.71h4.54l2.91,6.42c.61,1.34,1.28,3.21,1.28,3.21h.05s-.05-1.92-.05-3.5v-6.12h4.2v18.71h-4.41Z" style="fill:#f2f2f2;"/><polygon points="181.17 69.37 181.17 54.93 178.41 54.93 178.41 50.66 188.38 50.66 188.38 54.93 185.63 54.93 185.63 69.37 181.17 69.37" style="fill:#f2f2f2;"/><path d="M195.65,63.62c.45,1.15,1.44,1.92,2.54,1.92,.91,0,1.39-.53,1.39-1.2,0-2.57-7.27-3.15-7.27-8.63,0-3.07,2.3-5.43,5.72-5.43,2.65,0,4.65,1.42,5.64,4.04l-3.53,2.09c-.29-1.23-1.15-2.19-2.19-2.19-.78,0-1.28,.54-1.28,1.23,0,2.65,7.35,2.73,7.35,8.69,0,3.5-2.57,5.61-5.99,5.61-3.02,0-4.97-1.66-6.09-3.88l3.72-2.25Z" style="fill:#f2f2f2;"/><rect x="18" y="16.02" width="186.1" height="5.25" style="fill:#f2f2f2;"/><rect x="18" y="75.24" width="186.1" height="5.25" style="fill:#f2f2f2;"/></g><g><path d="M204.25,142.02l-21.06,33.65c-.64,1.02-2.24,.6-2.49-.65l-2.14-10.56-1.09-5.4c-.08-.39-.31-.74-.65-.97l-13.83-9.39c-1.06-.72-.83-2.31,.36-2.5l39.42-6.36c1.17-.19,2.11,1.19,1.49,2.18Z" style="fill:#fff;"/><path d="M163.9,173.49l17.07-11.56c.48-.32,.57-1.01,.21-1.53l-4.06-5.82c-.33-.47-.93-.65-1.41-.42l-18.45,9.02c-.56,.27-.72,1-.35,1.56l5.44,8.35c.35,.54,1.05,.72,1.54,.39Z" style="fill:#fff;"/></g><polygon points="224.56 69.27 227.41 74.49 232.63 77.34 227.41 80.19 224.56 85.41 221.7 80.19 216.49 77.34 221.7 74.49 224.56 69.27" style="fill:#fff9c4; opacity:.5;"/><polygon points="452.76 126.16 455.62 131.37 460.83 134.23 455.62 137.08 452.76 142.3 449.91 137.08 444.69 134.23 449.91 131.37 452.76 126.16" style="fill:#fff9c4; opacity:.5;"/><polygon points="142.76 200.68 145.61 205.9 150.83 208.75 145.61 211.61 142.76 216.82 139.9 211.61 134.69 208.75 139.9 205.9 142.76 200.68" style="fill:#fff9c4; opacity:.5;"/><g><path d="M93.2,166.8c1.17,.12,2.32,.33,3.45,.62-1.13-.29-2.28-.51-3.46-.63-9.33-.98-18.79,1.47-23.82,10.57,5.04-9.1,14.49-11.54,23.83-10.56Z" style="fill:none;"/><path d="M42.11,254.52c-.87-.71-1.88-1.32-3.04-1.82-1.72-.74-3.55-1.16-5.13-1.28,1.59,.12,3.42,.55,5.14,1.29,1.15,.5,2.16,1.1,3.03,1.81Z" style="fill:none;"/><path d="M29.63,253.11c0-.13,.02-.26,.06-.37-.04,.12-.06,.25-.06,.39,0,.68,.38,.8,1.01,.86-.63-.06-1.01-.19-1-.87Z" style="fill:none;"/><path d="M46.4,261.16c-.46-1.42-1.05-2.73-1.83-3.9,.77,1.17,1.37,2.47,1.83,3.9h0Z" style="fill:none;"/><path d="M30.68,253.99s0,0,0,0c0,0,0,0,0,0Z" style="fill:none;"/><path d="M44.31,256.86s.02,.03,.04,.05c-.01-.02-.02-.03-.04-.05Z" style="fill:none;"/><path d="M94.63,120c-.36-.9-.82-1.32-1.47-1.4,.56,.3,1.05,.78,1.47,1.4Z" style="fill:none;"/><path d="M86.65,261.16c.66-.24,1.25-.48,1.73-.67l12.07-5c1.61-.66,3.93-1.63,5.38-1.71,.92,3.46,4,6.07,7.76,6.22,4.61,.2,8.52-3.41,8.71-8.03,.31-7.57-4.87-13.34-13.18-14.71-6.06-1-11.49,1.26-15.09,2.75l-11.73,4.86c-1.23-1.68-2.34-3.47-3.32-5.33,0,5.71,.05,13.48,.37,21.63h7.29Z" style="fill:#462e3b;"/><path d="M42.54,261.16h3.86c-.46-1.42-1.05-2.73-1.83-3.9-.08-.12-.15-.24-.23-.35-.01-.02-.02-.03-.04-.05-.62-.87-1.35-1.65-2.2-2.34-.87-.7-1.87-1.31-3.03-1.81-1.72-.75-3.55-1.17-5.14-1.29-2.18-.16-3.9,.27-4.25,1.31-.04,.12-.06,.24-.06,.37,0,.69,.37,.81,1,.87,.01,0,.02,0,.04,0,0,0,0,0,0,0,.39,.03,.87,.05,1.41,.17,4.68,.28,8.39,2.91,10.46,7Z" style="fill:#b84425;"/><path d="M56.77,211.31s-.01,0-.02-.01c0,0,.01,0,.02,.01Z" style="fill:#f3682a;"/><path d="M76.1,261.16c-1.22-.52-2.3-1.17-3.23-1.92,.1,.64,.19,1.28,.3,1.92h2.93Z" style="fill:#f3682a;"/><path d="M65.42,211.11c-1.15,.94-2.43,1.32-3.73,1.39,1.3-.07,2.58-.45,3.73-1.39Z" style="fill:#f3682a;"/><path d="M55.39,206.35s.06-.06,.09-.1c-.77-6.34-1.61-10.98-3.1-15.79,1.48,4.8,2.32,9.44,3.09,15.78-.02,.03-.04,.07-.09,.11-.23,.64-.31,1.24-.29,1.81-.02-.57,.06-1.17,.3-1.81Z" style="fill:#f3682a;"/><path d="M66.76,205.43c.06,.1,.14,.19,.19,.29-.06-.1-.13-.19-.19-.29Z" style="fill:#f3682a;"/><path d="M56.88,211.39c.59,.44,1.28,.74,1.98,.88,.22,.04,.44,.08,.66,.11-.22-.03-.44-.07-.65-.11-.71-.14-1.4-.44-1.99-.88Z" style="fill:#f3682a;"/><path d="M78.98,239.53c0-4.53,0-7.78-.09-8.87,.22-8.57-.36-16.93,.25-25.47,.09-1.21,.07-2.35-.03-3.45-2.77,3.01-5.36,6.11-7.56,9.19-5.07,7.15-12.51,7.67-19.53,2.52-6.28-5.29-15.67-11.4-23.78-15.91-3.06-1.69-5.92-3.15-8.38-4.27-4.62,4.94-8.66,12.85-11.16,18.42C1.84,227.13-.13,244.4-.46,261.16H42.54c-2.07-4.09-5.77-6.72-10.46-7-.54-.11-1.02-.13-1.41-.17,0,0,0,0,0,0-.01,0-.02,0-.04,0-.63-.06-1.01-.18-1.01-.86,0-.14,.02-.27,.06-.39,.33-1.04,2.06-1.47,4.25-1.31,1.59,.12,3.41,.54,5.13,1.28,1.16,.5,2.17,1.11,3.04,1.82,.86,.69,1.58,1.47,2.2,2.34,.01,.02,.02,.03,.04,.05,.08,.11,.15,.24,.23,.35,.77,1.17,1.37,2.47,1.83,3.9h15.37c.28-4.82,.95-9.65,2.05-14.48,.82-3.56,1.86-7.13,3.17-10.69,.02-.06,.06-.1,.09-.16,.35-.7,1.08-.94,1.72-.78,.56,.14,1.05,.56,1.13,1.27,.63,5.45,1.58,13.91,2.94,22.92,.93,.75,2.01,1.4,3.23,1.92h3.26c-.33-8.15-.37-15.91-.37-21.63Z" style="fill:#f3682a;"/><path d="M30.67,253.99s-.02,0-.04,0c.01,0,.02,0,.04,0Z" style="fill:#f3682a;"/><path d="M44.35,256.91c.08,.11,.15,.24,.23,.35-.08-.12-.15-.24-.23-.35Z" style="fill:#f3682a;"/><path d="M32.09,254.16c-.54-.11-1.02-.13-1.41-.17,.39,.04,.87,.06,1.41,.17,4.68,.28,8.39,2.91,10.46,7h0c-2.07-4.09-5.77-6.72-10.46-7Z" style="fill:#f3682a;"/><path d="M44.31,256.86c-.62-.87-1.35-1.65-2.2-2.34,.86,.69,1.58,1.48,2.2,2.34Z" style="fill:#f3682a;"/><path d="M33.94,251.42c-2.19-.16-3.91,.27-4.25,1.31,.35-1.04,2.07-1.47,4.25-1.31Z" style="fill:#f3682a;"/><path d="M72.87,259.24c-1.36-9.01-2.31-17.47-2.94-22.92-.08-.7-.57-1.13-1.13-1.27-.65-.16-1.38,.08-1.72,.78-.03,.06-.07,.1-.09,.16-1.3,3.57-2.35,7.13-3.17,10.69-1.1,4.83-1.77,9.65-2.05,14.48h11.4c-.1-.64-.2-1.28-.3-1.92Z" style="fill:#462d3b;"/><path d="M96.65,167.42c-1.13-.29-2.28-.5-3.45-.62-9.33-.97-18.78,1.46-23.83,10.56-1.31,2.36-2.32,5.16-2.95,8.47-.02,.12-.04,.26-.06,.38-1.04,5.87-.57,13.12,.21,18.92,0,0,0,0,0,0,.07,.1,.13,.19,.19,.29,.06,.1,.14,.19,.19,.29,.79,1.36,.75,2.81-.55,4.4-.31,.39-.64,.71-.98,.99-1.14,.95-2.42,1.33-3.73,1.39-.73,.04-1.46-.02-2.17-.13-.22-.03-.44-.07-.66-.11-.7-.14-1.39-.44-1.98-.88-.04-.03-.08-.05-.11-.08,0,0-.01,0-.02-.01-.94-.74-1.6-1.83-1.66-3.14-.03-.57,.06-1.17,.29-1.81,.05-.04,.07-.07,.09-.11-.77-6.34-1.6-10.97-3.09-15.78-.47-1.51-1-3.04-1.62-4.64-.39-1.01-.85-1.96-1.36-2.86-3.86-6.74-11.04-10.21-18.39-10.18-3.78,.02-7.61,.96-11.06,2.86-5.25,2.9-9.84,6.27-13.38,11.3,1.6,2.39,5.52,3.54,8.43,4.41,1.29,.38,2.96,1.05,4.86,1.92,2.46,1.12,5.32,2.58,8.38,4.27,8.11,4.51,17.5,10.62,23.78,15.91,7.02,5.15,14.46,4.63,19.53-2.52,2.21-3.08,4.79-6.18,7.56-9.19,2.1-2.29,4.31-4.52,6.55-6.65,10.14-9.66,20.89-17.36,24.78-18.9-3.81-4.28-8.52-7.41-13.79-8.77Zm-61.51,21.1c-2.11,.14-3.9-.71-4.81-2.13-.33-.52-.55-1.1-.61-1.75-.31-3.05,.76-5.65,4.17-6.03,2.63-.29,5.51,.65,5.87,4.06,.05,.44,.04,.85,0,1.24-.22,2.48-2.03,3.92-4.62,4.6Zm49.19-6.65c-2.88,.2-5.18-1.45-5.42-3.87-.31-3.05,.76-5.65,4.17-6.03,2.63-.29,5.51,.65,5.87,4.06,.34,3.25-1.61,5.05-4.61,5.84Z" style="fill:#fff8f0;"/><path d="M112.39,172.97c-4.66-10.39-5.3-20.25-14.07-31.13-.11,0-.23-.06-.37-.13-.03,.06-.06,.12-.09,.17-1.74,.16-4.01-1.32-4.42-3.22-1.43-2.97-8.73-7.83-13.36-8.85-.03,.08-.07,.17-.09,.25-1.38,.16-3.72-.38-4.56-2.57,.05-.16,.11-.31,.16-.46-5.75-1.74-12.8-2.57-21.39-1.52-7.54,.92-13.7,2.39-18.85,4.64,0,.01,.01,.02,.02,.03-.42,2.31-2.62,3.28-4,3.37,0-.02-.03-.05-.04-.06-4.31,2.09-10.06,8.06-10.89,11.13-.05,1.93-1.99,3.8-3.72,3.98-.19,.38-.39,.74-.58,1.13-3.9,8.08-6.45,18.78-9.93,32.02-.59,2.25-.8,4.04,.37,5.2,3.54-5.02,8.14-8.41,13.38-11.3,3.45-1.9,7.28-2.84,11.07-2.86,7.36-.04,14.53,3.43,18.4,10.18,.51,.9,.98,1.85,1.36,2.86,.61,1.6,1.14,3.13,1.61,4.64,1.49,4.81,2.33,9.45,3.1,15.79,2.79-3.05,8.11-2.98,10.42-1.89,.25,.25,.47,.51,.66,.77,0,0,0,0,0,0-.77-5.8-1.25-13.05-.21-18.91,.02-.12,.03-.26,.06-.38,.64-3.31,1.65-6.11,2.96-8.47,5.04-9.1,14.49-11.55,23.82-10.57,1.18,.12,2.33,.34,3.46,.63,5.28,1.35,9.98,4.48,13.8,8.77,0,0,0,0,0,0,0,0,0,0,0,0,1.53-.55,2.71-1.48,1.93-3.23Z" style="fill:#f3682a;"/><path d="M96.65,167.42c5.27,1.36,9.98,4.49,13.79,8.77,0,0,0,0,0,0-3.82-4.29-8.52-7.42-13.8-8.77Z" style="fill:#f3682a;"/><path d="M49.41,182.97s0,0,0,0c-3.86-6.74-11.04-10.21-18.4-10.18,7.35-.03,14.53,3.44,18.39,10.18Z" style="fill:#f3682a;"/><path d="M69.37,177.37c-1.31,2.36-2.32,5.16-2.96,8.47-.02,.12-.04,.25-.06,.38,0,0,0,0,0,0,.02-.13,.04-.26,.06-.38,.63-3.31,1.65-6.11,2.95-8.47Z" style="fill:#f3682a;"/><path d="M66.56,205.13s0,0,0,0c0,0,0,0,0,0,0,0,0,0,0,0-.78-5.8-1.26-13.05-.21-18.92,0,0,0,0,0,0-1.04,5.86-.56,13.11,.21,18.91Z" style="fill:#f3682a;"/><path d="M49.41,182.97s0,0,0,0c.51,.9,.98,1.84,1.36,2.86,.62,1.6,1.15,3.13,1.62,4.64-.47-1.51-1-3.04-1.61-4.64-.39-1.01-.85-1.96-1.36-2.86Z" style="fill:#f3682a;"/><path d="M19.13,125.53c-3.26,.71-2.71,5.12-2.72,8.11-.02,3.76,1.42,7.87,4.02,10.99,.83-3.07,6.58-9.04,10.89-11.13-.84-1.6-7.38-9.02-12.19-7.96Z" style="fill:#fff8f0;"/><path d="M65.9,204.37c-2.31-1.1-7.63-1.17-10.42,1.89-.03,.03-.06,.06-.09,.1-.24,.64-.32,1.24-.3,1.81,.06,1.31,.72,2.4,1.66,3.14,0,0,.01,0,.02,.01,.04,.03,.07,.05,.11,.08,.59,.44,1.28,.74,1.99,.88,.22,.04,.43,.08,.65,.11,.72,.11,1.45,.16,2.17,.13,1.3-.07,2.58-.45,3.73-1.39,.34-.28,.66-.6,.97-.99,1.29-1.59,1.35-3.04,.56-4.4-.06-.1-.13-.19-.19-.29-.07-.1-.12-.2-.2-.29-.2-.26-.41-.51-.66-.77Z" style="fill:#462d3b;"/><path d="M55.1,208.16c.06,1.31,.72,2.4,1.66,3.14-.94-.74-1.6-1.83-1.66-3.14Z" style="fill:#462d3b;"/><path d="M56.88,211.39s-.08-.05-.11-.08c.04,.03,.07,.05,.11,.08Z" style="fill:#462d3b;"/><path d="M59.52,212.38c.72,.11,1.45,.16,2.17,.13-.72,.04-1.45-.02-2.17-.13Z" style="fill:#462d3b;"/><path d="M66.76,205.43c-.06-.1-.12-.19-.19-.29,0,0,0,0,0,0,.07,.1,.13,.2,.2,.29Z" style="fill:#462d3b;"/><path d="M66.39,210.12c-.31,.39-.64,.71-.97,.99,.34-.28,.67-.6,.98-.99,1.3-1.6,1.34-3.04,.55-4.4,.79,1.37,.73,2.81-.56,4.4Z" style="fill:#462d3b;"/><path d="M20.43,144.63c-2.6-3.12-4.03-7.22-4.02-10.99,.01-2.99-.54-7.4,2.72-8.11,4.81-1.06,11.35,6.36,12.19,7.96,0,.02,.03,.05,.04,.06,1.39-.1,3.59-1.06,4-3.37,0-.01-.01-.02-.02-.03-3.38-6.6-8.75-7.4-14.68-9.99-2.89-1.26-5.74,.72-7.36,3.32-4.09,6.56-1.57,19.54,3.38,25.13,0,0,.01,0,.02,0,1.74-.18,3.68-2.05,3.72-3.98Z" style="fill:#462d3b;"/><path d="M95.67,125.18c-.32-2.5-.62-4.15-1.04-5.18-.42-.61-.91-1.1-1.47-1.4-.4-.05-.88,.03-1.45,.21-4.62,1.49-10.58,7.83-11.63,11.01,4.63,1.01,11.93,5.88,13.36,8.85,1.97-3.55,2.72-9.76,2.24-13.49Z" style="fill:#fff8f0;"/><path d="M79.99,130.07c.02-.08,.06-.17,.09-.25,1.05-3.17,7.01-9.52,11.63-11.01,.58-.18,1.05-.26,1.45-.21,.65,.08,1.11,.5,1.47,1.4,.42,1.03,.72,2.68,1.04,5.18,.48,3.73-.27,9.94-2.24,13.49,.41,1.89,2.68,3.38,4.42,3.22,.03-.05,.06-.12,.09-.17,3.75-6.47,4.68-19.46,.43-25.84-1.7-2.55-2.63-4.77-6.9-2.92-5.82,2.52-13.59,7.2-15.89,14.08-.05,.15-.12,.3-.16,.46,.84,2.19,3.18,2.74,4.56,2.57Z" style="fill:#462d3b;"/><path d="M83.08,171.97c-3.41,.38-4.48,2.98-4.17,6.03,.24,2.42,2.54,4.07,5.42,3.87,3-.79,4.96-2.58,4.61-5.84-.36-3.41-3.24-4.35-5.87-4.06Z" style="fill:#462d3b;"/><path d="M39.76,182.68c-.36-3.41-3.24-4.35-5.87-4.06-3.41,.38-4.48,2.98-4.17,6.03,.07,.65,.29,1.23,.61,1.75,.91,1.42,2.69,2.27,4.81,2.13,2.6-.68,4.4-2.12,4.62-4.6,.03-.39,.04-.8,0-1.24Z" style="fill:#462d3b;"/></g></g></g></g></svg>