<svg viewBox="0 0 464 261" xmlns="http://www.w3.org/2000/svg"><path d="m0 0h464v261h-464z" fill="#fff"/><path d="m-.04.06h464v178.21h-464z" fill="#56acca" opacity=".5"/><g opacity=".5"><rect fill="#8ec2e7" height="9.06" rx="1.13" width="26.67" x="292.18" y="47.25"/><path d="m317.72 56.81h-24.4c-.9 0-1.63-.73-1.63-1.63v-6.79c0-.9.73-1.63 1.63-1.63h24.4c.9 0 1.63.73 1.63 1.63v6.79c0 .9-.73 1.63-1.63 1.63zm-24.4-9.06c-.35 0-.63.28-.63.63v6.79c0 .35.28.63.63.63h24.4c.35 0 .63-.28.63-.63v-6.79c0-.35-.28-.63-.63-.63z" fill="#5dbdcb"/><rect fill="#8ec2e7" height="9.06" rx="1.13" width="26.67" x="305.52" y="38.19"/><path d="m331.05 47.75h-24.4c-.9 0-1.63-.73-1.63-1.63v-6.79c0-.9.73-1.63 1.63-1.63h24.4c.9 0 1.63.73 1.63 1.63v6.79c0 .9-.73 1.63-1.63 1.63zm-24.4-9.06c-.35 0-.63.28-.63.63v6.79c0 .35.28.63.63.63h24.4c.35 0 .63-.28.63-.63v-6.79c0-.35-.28-.63-.63-.63z" fill="#5dbdcb"/><path d="m455.06 27.82h-24.4c-.63 0-1.13-.51-1.13-1.13v-6.79c0-.63.51-1.13 1.13-1.13h24.4c.63 0 1.13.51 1.13 1.13v6.79c0 .63-.51 1.13-1.13 1.13z" fill="#8ec2e7"/><path d="m455.06 28.32h-24.4c-.9 0-1.63-.73-1.63-1.63v-6.79c0-.9.73-1.63 1.63-1.63h24.4c.9 0 1.63.73 1.63 1.63v6.79c0 .9-.73 1.63-1.63 1.63zm-24.4-9.06c-.35 0-.63.28-.63.63v6.79c0 .35.28.63.63.63h24.4c.35 0 .63-.28.63-.63v-6.79c0-.35-.28-.63-.63-.63z" fill="#5dbdcb"/><rect fill="#8ec2e7" height="9.06" rx="1.13" width="26.67" x="420.75" y="101.09"/><path d="m446.28 110.64h-24.4c-.9 0-1.63-.73-1.63-1.63v-6.79c0-.9.73-1.63 1.63-1.63h24.4c.9 0 1.63.73 1.63 1.63v6.79c0 .9-.73 1.63-1.63 1.63zm-24.4-9.06c-.35 0-.63.28-.63.63v6.79c0 .35.28.63.63.63h24.4c.35 0 .63-.28.63-.63v-6.79c0-.35-.28-.63-.63-.63z" fill="#5dbdcb"/><rect fill="#8ec2e7" height="9.06" rx="1.13" width="26.67" x="184.03" y="87.98"/><path d="m209.57 97.54h-24.4c-.9 0-1.63-.73-1.63-1.63v-6.79c0-.9.73-1.63 1.63-1.63h24.4c.9 0 1.63.73 1.63 1.63v6.79c0 .9-.73 1.63-1.63 1.63zm-24.4-9.06c-.35 0-.63.28-.63.63v6.79c0 .35.28.63.63.63h24.4c.35 0 .63-.28.63-.63v-6.79c0-.35-.28-.63-.63-.63z" fill="#5dbdcb"/><rect fill="#8ec2e7" height="9.06" rx="1.13" width="26.67" x="206.5" y="116.29"/><path d="m232.04 125.85h-24.4c-.9 0-1.63-.73-1.63-1.63v-6.79c0-.9.73-1.63 1.63-1.63h24.4c.9 0 1.63.73 1.63 1.63v6.79c0 .9-.73 1.63-1.63 1.63zm-24.4-9.06c-.35 0-.63.28-.63.63v6.79c0 .35.28.63.63.63h24.4c.35 0 .63-.28.63-.63v-6.79c0-.35-.28-.63-.63-.63z" fill="#5dbdcb"/><rect fill="#8ec2e7" height="9.06" rx="1.13" width="26.67" x="51.54" y="134.08"/><path d="m77.08 143.64h-24.4c-.9 0-1.63-.73-1.63-1.63v-6.79c0-.9.73-1.63 1.63-1.63h24.4c.9 0 1.63.73 1.63 1.63v6.79c0 .9-.73 1.63-1.63 1.63zm-24.4-9.06c-.35 0-.63.28-.63.63v6.79c0 .35.28.63.63.63h24.4c.35 0 .63-.28.63-.63v-6.79c0-.35-.28-.63-.63-.63z" fill="#5dbdcb"/></g><path d="m0 178.21h464v82.79h-464z" fill="#462e3b" opacity=".8"/><g fill="#462e3b" opacity=".6"><path d="m456.37 177.69h2v83.84h-2z" opacity=".6" transform="matrix(.98741381 -.15815807 .15815807 .98741381 -28.97 75.08)"/><path d="m347.55 218.61h83.42v2h-83.42z" opacity=".6" transform="matrix(.12308188 -.99239652 .99239652 .12308188 123.42 578.88)"/><path d="m276.44 218.61h89.42v2h-89.42z" opacity=".6" transform="matrix(.37800238 -.92580463 .92580463 .37800238 -3.54 433.94)"/><path d="m202.69 218.61h100.71v2h-100.71z" opacity=".6" transform="matrix(.56927952 -.82214404 .82214404 .56927952 -71.55 302.64)"/><path d="m127.07 218.61h115.73v2h-115.73z" opacity=".6" transform="matrix(.69903958 -.71508298 .71508298 .69903958 -101.38 198.35)"/><path d="m50.21 218.61h133.24v2h-133.24z" opacity=".6" transform="matrix(.78347659 -.6214213 .6214213 .78347659 -111.16 120.13)"/><path d="m-12 214.04h135.56v2h-135.56z" opacity=".6" transform="matrix(.83980942 -.54288133 .54288133 .83980942 -107.81 64.74)"/><path d="m-4.73 192.81h65.06v2h-65.06z" opacity=".6" transform="matrix(.87764857 -.47930469 .47930469 .87764857 -89.5 37.04)"/></g><path d="m0 172.94h464v5.28h-464z" fill="#462e3b"/><path d="m293.53 103.38c1.1 0 2.02-.38 2.57-.61l4.29-1.78c.57-.24 1.4-.58 1.91-.61.33 1.23 1.42 2.16 2.76 2.21 1.64.07 3.03-1.21 3.1-2.85.11-2.69-1.73-4.74-4.68-5.23-2.15-.35-4.08.45-5.36.98l-4.17 1.73c-.46-.63-.88-1.31-1.25-2.01-.75-1.46-2.55-2.04-4.01-1.29s-2.04 2.55-1.29 4.01c.55 1.08 1.2 2.11 1.93 3.06.65.86 1.59 1.89 3.12 2.26.38.09.74.13 1.08.13z" fill="#462e3b"/><path d="m280.45 105.52c-.15-2.83-1.87-4.85-4.36-5-.52-.11-.88.02-.87-.37 0-.77 1.81-.81 3.36-.14 2.19.95 2.84 2.98 3.06 5.51.25 2.85-1.53 5.56-1.56 7.97-.46-.1-.91-.24-1.31-.41.04-1.56 1.79-4.9 1.68-7.56z" fill="#b84425"/><path d="m280.07 113.49c1.41.31 2.96.34 3.79.42 2.97.31 4.27 1.91 3.94 4.95-4.02.29-6.73.26-10.75 0-.05-2.47.68-3.9 1.71-5.79.4.18.84.31 1.31.41z" fill="#462d3b"/><path d="m240.29 70.78c3.82 1.57 6.62 3.71 8.68 7.79-.39.76-.91 1.43-1.83 1.44-.85.01-1.08.54-1.39 1.17-1.07 2.17-3.6 2.75-5.53 1.24-.59-.46-.93-1.05-1.85-.46-1.78 1.16-3.55.66-5.26-.3.55-3.8 2.07-7.29 4.35-10.27.72-.94 1.71-1.07 2.81-.62z" fill="#fff8f0"/><path d="m264.44 118.33c.64.02 1.26.04 1.9.06 1.77.1 4.82.22 7.43.33 1.21.07 2.37.11 3.29.15-.05-2.46.68-3.89 1.72-5.79.04-1.56 1.79-4.9 1.68-7.55-.15-2.84-1.87-4.85-4.36-5-.52-.11-.87.03-.87-.37 0-.77 1.81-.81 3.35-.15 2.19.95 2.85 2.98 3.06 5.52.25 2.85-1.52 5.56-1.56 7.96 1.41.32 2.97.34 3.79.43 2.98.31 4.28 1.91 3.94 4.95.66-.02 1.31-.04 1.97-.06 5.03.26 5.93 0 4.65-3.93-2.07-6.35-1.55-21.09-1.69-22.7.08-3.05-.13-6.01.09-9.05.5-6.78-8.04-8.57-13.23-7.69-2.73.46-4.91.97-7.07 2.73-1.96 1.6-3.71 4.99-4.73 7.28-2.62 5.89-3.24 12.53-3.28 18.89v.52.48c0 .77 0 1.55.03 2.32l.03.03c.08 1.74.23 3.78.54 5.24 0 0-.14.13-.5.13l-.16 5.29z" fill="#f3682a"/><path d="m288.49 94.07c.19-.53.98-.44 1.05.12.53 4.62 1.72 15.34 3.99 20.3 1.72 3.75.86 4.12-4.16 4.43-3.11-8.27-3.9-16.56-.87-24.85z" fill="#462d3b"/><path d="m239.1 105.63c5.56 8.39 13.11 12.27 22.55 12.66.77.03 1.57.04 2.36.03h.43l.16-5.29c-.25 0-.61-.06-1.09-.28-.66-.31-1.28-.67-1.86-1.08-3.41-2.46-5.22-6.59-6.05-10.57-1.15-5.5-1.26-9.27-2.96-14.69-1.11-3.57-2.6-6.03-3.66-7.83-.39.76-.91 1.42-1.83 1.44-.85 0-1.08.54-1.39 1.17-1.07 2.17-3.6 2.75-5.53 1.24-.59-.47-.93-1.05-1.85-.46-1.78 1.16-3.55.66-5.26-.3 0 0-.32 1.74-.37 2.62-.46 7.87 1.98 14.76 6.34 21.32z" fill="#f3682a"/><path d="m267.03 76.65c.57.85 1.96 1.26 3 1.57 1.06.31 2.78 1.14 4.7 2.2 2.88 1.6 6.22 3.77 8.45 5.65 2.5 1.83 5.14 1.64 6.94-.9 1.38-1.93 3.17-3.87 5.01-5.63 3.6-3.43 7.42-6.17 8.81-6.72-1.65-1.85-3.76-3.09-6.13-3.33-4.18-.44-8.42 1.05-9.52 6.76-.4 2.1-.23 4.75.05 6.85.42.55.47 1.13-.06 1.77-.75.94-1.76.93-2.68.76-.85-.17-1.63-1.01-1.23-2.1.02-.01.02-.03.03-.04-.36-2.96-.76-4.88-1.67-7.25-1.71-4.46-7.03-5.78-10.95-3.62-1.86 1.03-3.5 2.23-4.75 4.02z" fill="#fff8f0"/><path d="m297.81 69.48c-4.18-.44-8.42 1.05-9.51 6.77-.4 2.11-.23 4.75.05 6.86-.07-.09-.15-.18-.24-.27-.82-.39-2.71-.42-3.7.67-.36-2.96-.76-4.88-1.68-7.26-1.71-4.45-7.03-5.78-10.95-3.61-1.86 1.03-3.5 2.23-4.75 4.02-.41-.41-.34-1.05-.13-1.85 1.24-4.71 2.14-8.51 3.53-11.38.07-.14.14-.27.21-.4.62-.06 1.31-.73 1.32-1.41.3-1.09 2.34-3.21 3.87-3.96 0 0 .01.02.01.02.49-.03 1.27-.38 1.42-1.2 1.83-.8 4.02-1.32 6.7-1.65 3.05-.37 5.56-.08 7.6.54-.02.05-.04.11-.06.16.3.78 1.13.97 1.62.91 0-.03.02-.06.03-.09 1.64.36 4.24 2.09 4.75 3.14.14.67.95 1.2 1.57 1.14.01-.02.02-.04.03-.06.05.02.09.04.13.04 3.12 3.87 3.35 7.37 5 11.06.28.62-.14.95-.69 1.15-1.65-1.85-3.76-3.09-6.13-3.34z" fill="#f3682a"/><path d="m270.52 57.7c0-1.06-.19-2.63.97-2.88 1.71-.38 4.03 2.26 4.33 2.83-1.53.74-3.57 2.86-3.87 3.96-.92-1.11-1.43-2.57-1.43-3.9z" fill="#fff8f0"/><path d="m288.11 82.83c.09.09.17.18.24.27.41.55.47 1.12-.06 1.77-.76.94-1.77.94-2.68.76-.85-.16-1.64-1.01-1.23-2.1.01-.01.02-.02.03-.03.99-1.08 2.88-1.06 3.7-.67z" fill="#462d3b"/><path d="m275.83 57.67s-.01-.02-.01-.02c-.3-.57-2.62-3.2-4.33-2.83-1.16.25-.96 1.82-.97 2.88 0 1.34.51 2.8 1.43 3.9-.02.69-.71 1.35-1.32 1.41-1.76-1.99-2.66-6.6-1.2-8.93.58-.92 1.59-1.63 2.62-1.18 2.11.92 4.02 1.21 5.22 3.55-.15.82-.93 1.16-1.42 1.2z" fill="#462d3b"/><path d="m297.28 52.43c.2-.07.37-.09.52-.08.2.11.37.28.52.5.15.37.25.95.37 1.84.17 1.33-.09 3.53-.8 4.79-.51-1.05-3.1-2.78-4.75-3.14.37-1.13 2.49-3.38 4.13-3.91z" fill="#fff8f0"/><path d="m297.89 59.49c.7-1.26.97-3.47.8-4.79-.11-.89-.22-1.47-.37-1.84-.13-.32-.29-.47-.52-.5-.14-.02-.31.01-.52.08-1.64.53-3.76 2.78-4.13 3.91 0 .03-.02.06-.03.09-.49.06-1.32-.13-1.62-.91.02-.06.04-.11.06-.16.82-2.45 3.58-4.11 5.65-5 1.52-.66 1.85.13 2.45 1.04 1.51 2.27 1.18 6.88-.15 9.18-.01.02-.02.04-.03.06-.62.06-1.43-.47-1.57-1.14z" fill="#462d3b"/><path d="m296.3 72.76c-.13-1.21-1.15-1.55-2.08-1.44-1.21.13-1.59 1.06-1.48 2.14.09.86.9 1.45 1.93 1.38 1.07-.28 1.76-.92 1.64-2.07z" fill="#462d3b"/><path d="m278.82 75.13c-.13-1.21-1.15-1.55-2.08-1.44-1.21.13-1.59 1.06-1.48 2.14.09.86.9 1.45 1.93 1.38 1.07-.28 1.76-.92 1.64-2.07z" fill="#462d3b"/><g fill="#462e3b"><path d="m20.78 39.76c.43 1.34 1.54 2.22 2.8 2.22s2.32-.61 2.32-1.97c0-2.87-7.28-2.85-7.28-8.22 0-2.72 1.99-4.81 4.86-4.81s4.51 1.59 5.37 3.81l-2.85 1.76c-.43-1.46-1.18-2.42-2.52-2.42-.93 0-1.59.58-1.59 1.56 0 3.13 7.28 2.5 7.28 8.32 0 3.13-2.32 5.12-5.59 5.12-2.72 0-4.71-1.41-5.6-3.48z"/><path d="m32.1 27.23h3.28v17.64h-3.28z"/><path d="m49.95 44.88v-10.86c0-.5.02-1.21.02-1.21h-.05s-.3.6-.55 1.01l-3.02 5.09h-.05l-2.97-5.04c-.23-.4-.61-1.11-.61-1.11h-.05s.02.73.02 1.26v10.86h-3.28v-17.65h3.63l2.67 4.74c.23.4.58 1.11.58 1.11h.05s.38-.71.61-1.14l2.65-4.71h3.63v17.64h-3.28z"/><path d="m57.26 44.88v-17.65h4.89c4.01 0 5.67 3.23 5.67 6.3s-1.87 6.43-6.15 6.43h-1.13v4.92zm4.51-8.07c1.87 0 2.8-1.51 2.8-3.23s-.96-3.23-2.82-3.23h-1.21v6.45h1.24z"/><path d="m70.53 44.88v-17.65h3.27v14.5h5.14v3.15z"/><path d="m87.31 44.88h-3.3v-4.97l-4.26-12.68h3.68l1.76 6.33c.25.93.45 2.22.45 2.22h.05c.02-.25.2-1.29.45-2.22l1.74-6.33h3.7l-4.28 12.83v4.81z"/><path d="m101.64 39.76c.43 1.34 1.54 2.22 2.8 2.22s2.32-.61 2.32-1.97c0-2.87-7.28-2.85-7.28-8.22 0-2.72 1.99-4.81 4.86-4.81s4.51 1.59 5.37 3.81l-2.85 1.76c-.43-1.46-1.18-2.42-2.52-2.42-.93 0-1.59.58-1.59 1.56 0 3.13 7.28 2.5 7.28 8.32 0 3.13-2.32 5.12-5.6 5.12-2.72 0-4.71-1.41-5.6-3.48l2.8-1.89z"/><path d="m123.39 41.65c-.88 2.07-2.52 3.48-5.24 3.48-4.86 0-6.2-4.49-6.2-9.07s1.34-9.07 6.2-9.07c2.87 0 4.51 1.59 5.37 3.81l-2.85 1.76c-.43-1.46-1.18-2.42-2.52-2.42-2.24 0-2.92 2.75-2.92 5.92s.68 5.92 2.92 5.92c1.26 0 2.02-.88 2.44-2.22z"/><path d="m133.88 44.88v-6.63h-4.54v6.63h-3.27v-17.65h3.27v7.87h4.54v-7.87h3.28v17.65z"/><path d="m141.19 44.88v-17.65h9.38v3.15h-6.1v4.52h5.14v3.15h-5.14v3.68h6.1v3.15z"/><path d="m154.38 44.88v-17.65h4.56c4.86 0 6.45 4.24 6.45 8.82s-1.59 8.82-6.45 8.82h-4.56zm4.56-3.15c2.24 0 3.18-2.5 3.18-5.67s-.93-5.67-3.18-5.67h-1.29v11.34z"/><path d="m176.13 27.23h3.28v11.77c0 4.26-2.29 6.12-5.37 6.12s-5.47-1.87-5.47-6.15v-11.75h3.28v11.92c0 1.74.63 2.82 2.14 2.82 1.59 0 2.14-1.13 2.14-2.85v-11.9z"/><path d="m183.45 44.88v-17.65h3.27v14.5h5.14v3.15z"/><path d="m194.39 44.88v-17.65h9.37v3.15h-6.09v4.52h5.14v3.15h-5.14v3.68h6.09v3.15z"/><path d="m26.57 69.37-.27-2.08h-3.45l-.21 2.08h-4.65l4.01-18.71h5.24l4.01 18.71zm-1.63-11.6c-.16-1.07-.29-2.59-.29-2.59h-.05s-.16 1.52-.32 2.59l-.75 5.61h2.17l-.75-5.61z"/><path d="m35.33 69.37v-18.71h5.56c4.28 0 6.04 3.69 6.04 6.66 0 3.58-2 6.84-6.23 6.84h-.94v5.21h-4.44zm5.27-9.2c1.39 0 1.92-1.36 1.92-2.78 0-1.52-.56-2.78-1.95-2.78h-.8v5.56z"/><path d="m51.21 69.37v-18.71h5.56c4.28 0 6.04 3.69 6.04 6.66 0 3.58-2.01 6.84-6.23 6.84h-.94v5.21h-4.44zm5.27-9.2c1.39 0 1.92-1.36 1.92-2.78 0-1.52-.56-2.78-1.95-2.78h-.8v5.56z"/><path d="m66.28 60.01c0-4.97 1.15-9.73 6.34-9.73s6.34 4.76 6.34 9.73-1.12 9.73-6.34 9.73-6.34-4.76-6.34-9.73m8.23 0c0-3.42-.24-5.45-1.9-5.45s-1.9 2.03-1.9 5.45.29 5.45 1.9 5.45 1.9-2.03 1.9-5.45"/><path d="m83.5 50.66h4.44v18.71h-4.44z"/><path d="m101.81 69.37-3.21-7.16c-.61-1.36-1.15-3.07-1.15-3.07h-.05s.05 1.79.05 3.31v6.92h-4.17v-18.71h4.54l2.91 6.42c.61 1.34 1.28 3.21 1.28 3.21h.05s-.05-1.92-.05-3.5v-6.12h4.2v18.71h-4.41z"/><path d="m113.51 69.37v-14.44h-2.75v-4.27h9.97v4.27h-2.75v14.44z"/><path d="m135.94 69.37v-9.52c0-1.18.08-2.25.08-2.25h-.05s-.4.8-1.12 1.79l-2.09 2.86h-.11l-2.09-2.86c-.72-.99-1.1-1.79-1.1-1.79h-.05s.03 1.1.03 2.25v9.52h-4.17v-18.71h4.44l1.66 2.38c.8 1.15 1.31 2.06 1.31 2.06h.05s.56-.91 1.34-2.06l1.63-2.38h4.41v18.71z"/><path d="m145.46 69.37v-18.71h10.39v4.06h-5.96v3.58h4.98v3.9h-4.98v3.1h5.96v4.07z"/><path d="m169.46 69.37-3.21-7.16c-.61-1.36-1.15-3.07-1.15-3.07h-.05s.05 1.79.05 3.31v6.92h-4.17v-18.71h4.54l2.91 6.42c.61 1.34 1.28 3.21 1.28 3.21h.05s-.05-1.92-.05-3.5v-6.12h4.2v18.71h-4.41z"/><path d="m181.17 69.37v-14.44h-2.76v-4.27h9.97v4.27h-2.75v14.44z"/><path d="m195.65 63.62c.45 1.15 1.44 1.92 2.54 1.92.91 0 1.39-.53 1.39-1.2 0-2.57-7.27-3.15-7.27-8.63 0-3.07 2.3-5.43 5.72-5.43 2.65 0 4.65 1.42 5.64 4.04l-3.53 2.09c-.29-1.23-1.15-2.19-2.19-2.19-.78 0-1.28.54-1.28 1.23 0 2.65 7.35 2.73 7.35 8.69 0 3.5-2.57 5.61-5.99 5.61-3.02 0-4.97-1.66-6.09-3.88l3.72-2.25z"/><path d="m18 16.02h186.1v5.25h-186.1z"/><path d="m18 75.24h186.1v5.25h-186.1z"/></g><path d="m19.74 102.2v-15.32h4.25c3.48 0 4.92 2.8 4.92 5.47s-1.62 5.58-5.34 5.58h-.98v4.27h-2.84zm3.92-7c1.62 0 2.43-1.31 2.43-2.8s-.83-2.8-2.45-2.8h-1.05v5.6z" fill="#fff"/><path d="m37.64 102.2-1.9-4.73c-.22.02-.44.02-.66.02h-.98v4.7h-2.84v-15.32h4.25c3.48 0 4.92 2.58 4.92 5.25 0 1.68-.66 3.37-2.06 4.4l2.3 5.67h-3.02zm-2.47-7.44c1.62 0 2.43-1.09 2.43-2.58s-.83-2.58-2.45-2.58h-1.05v5.16z" fill="#fff"/><path d="m42.63 94.54c0-4.2 1.27-7.88 5.27-7.88s5.27 3.68 5.27 7.88-1.27 7.88-5.27 7.88-5.27-3.68-5.27-7.88zm7.7 0c0-3.2-.68-5.14-2.43-5.14s-2.43 1.95-2.43 5.14.7 5.14 2.43 5.14 2.43-1.95 2.43-5.14z" fill="#fff"/><rect fill="#8cc44a" height="8.26" rx="1.18" width="45.05" x="385.21" y="146.22"/><path d="m397.14 238.31h-.01c-.71 0-1.28-.59-1.25-1.3l2.93-82.57h4.57l-4.99 82.69c-.04.66-.59 1.18-1.25 1.18z" fill="#462e3b" opacity=".16"/><path d="m389.08 238.31c-.71 0-1.28-.59-1.25-1.31l3.63-82.59h4.57l-5.69 82.73c-.05.66-.59 1.17-1.25 1.17z" fill="#8cc44a"/><path d="m426.22 238.31c-.64 0-1.18-.49-1.25-1.12l-8.54-82.77h4.57l6.47 82.54c.06.73-.52 1.35-1.25 1.35z" fill="#462e3b" opacity=".16"/><path d="m430.88 238.31c-.64 0-1.17-.48-1.24-1.11l-9.49-82.78h4.57l7.41 82.53c.07.73-.51 1.36-1.25 1.36z" fill="#8cc44a"/><path d="m397.14 238.31h-.01c-.71 0-1.28-.59-1.25-1.3l2.93-82.57h4.57l-4.99 82.69c-.04.66-.59 1.18-1.25 1.18z" fill="#8cc44a"/><path d="m397.14 238.31h-.01c-.71 0-1.28-.59-1.25-1.3l2.93-82.57h4.57l-4.99 82.69c-.04.66-.59 1.18-1.25 1.18z" fill="#462e3b" opacity=".16"/><path d="m393.3 180.78c1.02 2.88 3.27 5.11 5.56 7.17.39.35 1.06 1.47.82 1.93l-6.09 12.02c-.93 1.84-3.24 2.45-5.19 3.17-1.22.45-2.62.55-3.78-.04s-1.95-1.96-1.6-3.21c.41-1.49 2.08-2.17 3.27-3.15 1.81-1.48 1.69-3.47 1.75-5.8s-.81-4.72-1.55-6.94" fill="#f2692c"/><path d="m399.68 189.89-6.09 12.01c-.93 1.84-3.24 2.45-5.18 3.18-1.22.45-2.62.54-3.79-.04-.49-.24-.91-.64-1.21-1.09.14.1.28.18.43.26 1.17.59 2.57.49 3.79.04 1.95-.72 4.26-1.32 5.19-3.16l6.09-12.02c.18-.34-.11-1-.44-1.47.13.12.27.24.4.36.38.35 1.06 1.46.82 1.94z" fill="#462e3b"/><path d="m389.08 238.31c-.71 0-1.28-.59-1.25-1.31l3.63-82.59h4.57l-5.69 82.73c-.05.66-.59 1.17-1.25 1.17z" fill="#8cc44a"/><path d="m397.33 181.39c-.18-.12-3.66-5.53-3.66-5.53l-6.66 7.42 1.42 6.3 8.89-8.18z" fill="#462e3b"/><path d="m426.22 238.31c-.64 0-1.18-.49-1.25-1.12l-8.54-82.77h4.57l6.47 82.54c.06.73-.52 1.35-1.25 1.35z" fill="#8cc44a"/><path d="m426.22 238.31c-.64 0-1.18-.49-1.25-1.12l-8.54-82.77h4.57l6.47 82.54c.06.73-.52 1.35-1.25 1.35z" fill="#462e3b" opacity=".16"/><path d="m430.88 238.31c-.64 0-1.17-.48-1.24-1.11l-9.49-82.78h4.57l7.41 82.53c.07.73-.51 1.36-1.25 1.36z" fill="#8cc44a"/><path d="m396.01 154.42-.19 2.73h-4.49l.12-2.73z" fill="#462e3b" opacity=".2"/><path d="m403.37 154.44-.16 2.71h-4.5l.09-2.71z" fill="#462e3b" opacity=".2"/><path d="m424.96 157.15h-4.49l-.32-2.73h4.57z" fill="#462e3b" opacity=".2"/><path d="m420.47 157.15h-3.76l-.27-2.73h3.71z" fill="#462e3b" opacity=".2"/><path d="m390.37 203.95h37.16v1.49h-37.16z" fill="#8cc44a"/><path d="m393.49 218.07c-.09 3.49 1.4 6.79 2.99 9.92.27.53.53 2 .08 2.4l-11.42 10.32c-1.75 1.58-4.45 1.28-6.83 1.25-1.48-.02-3.02-.49-4.02-1.59s-1.28-2.89-.39-4.08c1.05-1.42 3.1-1.47 4.78-2.02 2.53-.84 3.22-3.01 4.24-5.47s1.07-5.37 1.19-8.03" fill="#f2692c"/><path d="m396.56 230.4-11.41 10.31c-1.75 1.58-4.46 1.28-6.83 1.27-1.49-.02-3.02-.5-4.02-1.59-.43-.46-.71-1.05-.84-1.66.1.16.23.31.35.45 1.01 1.11 2.54 1.57 4.02 1.59 2.37.03 5.08.33 6.83-1.25l11.41-10.32c.33-.29.29-1.11.14-1.75.09.18.19.37.28.55.27.53.53 1.99.07 2.41z" fill="#462e3b"/><path d="m379.23 170.43c-.94 1.28-1.5 2.85-1.53 4.56l4.16 47.59 13.73-1.28-1.75-41.4c5.1-5.1 8.01-8.15 13.1-13.25 4.3-4.3 6.56-11.05 11.53-14.55 3.09-2.18 8.15-3.94 9.92-7.32.01-.03.03-.06.04-.08 2.43-4.75 1.27-11.15-2.59-14.8-4.45-4.2-13.88-7.32-17.72-2.06-2.38 3.26-4.54 5.79-6.91 9.05-6.61 9.06-12.74 19.91-19.36 28.97l-2.63 4.56z" fill="#462e3b"/><path d="m365.68 128.8-.86.06c-1.18.08-2.37.43-3.47 1.06-3.86 2.23-5.19 7.17-2.96 11.03l24.03 41.64 14.03-8.1c-2.67-3.08-5.01-6.36-7.14-9.75-2.11-3.41-4.25-6.8-5.71-10.58l-2.21-5.66c-.37-.91-.76-1.8-1.17-2.68l6.69.31c3.63.16 7.26.21 10.89.32l5.45.14 5.45.04.69-20.7-43.71 2.88z" fill="#462e3b"/><rect fill="#fff" height="3.7" opacity=".3" rx=".5" transform="matrix(.74687035 -.66496969 .66496969 .74687035 22.85 312.9)" width="1.5" x="421.65" y="124.59"/><path d="m397.77 86.72-19.61 19.61-.45.45c-1.99 1.99-5.22 1.99-7.21 0-.19-.19-.39-.42-.54-.64 0 0-14.35-20.08-14.35-20.08-.89-1.25-.6-2.99.64-3.88 1.07-.76 2.49-.66 3.44.16l18.66 16.15-8.21-.19 19.61-19.61c5.52-5.11 13.14 2.48 8.02 8.02z" fill="#f6b0a4"/><path d="m414.69 130.41c6.42 0 11.53-5.26 11.49-11.69 0-.04 0-.08 0-.12-.04-8.03.52-16.06 1.67-24.01.5-3.49 1.63-6.77.49-10.2-.88-2.66-2.88-4.51-5.22-5.94-5.51-3.36-12.44-3.32-18.67-2.92-4.26.28-9.13-.4-13.01 1.78-5.08 2.86-3.5 9.41-2.78 14.5l2.1 13.23c.05.31.09.62.11.93.13 1.68.58 7.64.99 13.6.41 6.1 5.48 10.84 11.59 10.84z" fill="#f2692c"/><rect fill="#fff" height="3.7" opacity=".3" rx=".5" width="1.5" x="413.76" y="115.17"/><path d="m362.74 224.69c0 .56-.44 1.04-1.04 1.04h-61.59c-.73 0-1.23-.72-.97-1.4 0-.02 0-.03.01-.05.67-1.55 1.78-2.83 3.12-3.71 1.36-.89 2.97-1.4 4.66-1.4h47.94c3.38 0 6.43 2.01 7.78 5.11.01.02.01.03.02.05.04.11.06.25.06.36z" fill="#462e3b"/><path d="m362.74 224.69c0 .56-.44 1.04-1.04 1.04h-61.59c-.73 0-1.23-.72-.97-1.4h63.53c.04.11.06.25.06.36z" fill="#462e3b" opacity=".6"/><path d="m328.73 126.06h4.35v93.11h-4.35z" fill="#462e3b"/><path d="m316.28 150.15c-.06 0-.11 0-.17-.03-.26-.09-.4-.38-.3-.64.92-2.58 3.75-5.18 7.38-6.78.25-.11.55 0 .66.25s0 .55-.25.66c-3.39 1.5-6.01 3.88-6.84 6.21-.07.21-.27.33-.47.33z" fill="#f2692c"/><path d="m326.48 146.48h-.06c-2.28-.02-4.5-1.41-5.53-3.45-.23-.45-.04-1 .41-1.22s1-.04 1.22.41c.73 1.45 2.3 2.43 3.92 2.45h.04c1.6 0 3.18-.95 3.93-2.36.23-.45.79-.61 1.23-.38.45.24.62.79.38 1.23-1.06 2-3.28 3.33-5.54 3.33z" fill="#462e3b"/><path d="m329.73 174.99h2.35c1.25 0 2.27 1.02 2.27 2.27v41.91h-6.89v-41.91c0-1.25 1.02-2.27 2.27-2.27z" fill="#462e3b"/><path d="m307.59 126.04h46.56v1.48c0 1.19-.97 2.16-2.16 2.16h-42.25c-1.19 0-2.16-.97-2.16-2.16v-1.48z" fill="#462e3b"/><path d="m407.09 121.64v.53c0 .42-.06.82-.2 1.2-.5 1.56-1.96 2.67-3.68 2.67h-144.59c-1.73 0-3.19-1.11-3.69-2.67-.13-.38-.2-.78-.2-1.2v-.53c0-2.14 1.74-3.88 3.89-3.88h144.59c2.14 0 3.88 1.74 3.88 3.88z" fill="#8cc44a"/><path d="m328.73 129.68h4.35v2.43h-4.35z" fill="#462e3b" opacity=".6"/><path d="m308.26 126.04h45.9v.85h-45.9z" fill="#462e3b" opacity=".6"/><path d="m407.09 121.64v.53c0 .42-.06.82-.2 1.2-.5 1.56-1.96 2.67-3.68 2.67h-144.59c-1.73 0-3.19-1.11-3.69-2.67-.13-.38-.2-.78-.2-1.2v-.53c0-2.14 1.74-3.88 3.89-3.88h144.59c2.14 0 3.88 1.74 3.88 3.88z" fill="#8cc44a"/><path d="m407.08 122.42c-.02.34-.08.65-.19.96-.5 1.56-1.96 2.67-3.68 2.67h-144.59c-1.73 0-3.19-1.11-3.69-2.67-.1-.31-.16-.62-.19-.96.7 1.05 1.9 1.74 3.27 1.74h145.81c1.36 0 2.56-.69 3.26-1.74z" fill="#462e3b" opacity=".3"/><rect fill="#fff" height="3.7" opacity=".3" rx=".5" transform="matrix(.92407978 -.38219964 .38219964 .92407978 -16.61 160.82)" width="1.5" x="395.7" y="120.36"/><path d="m428.12 90.8 12.82 26.3.21.44c1.07 2.2.16 4.85-2.04 5.92 0 .04-23.55 11.28-23.56 11.31-3.26 1.45-5.75-2.92-2.86-4.99 0 0 21.65-14.6 21.65-14.6l-1.85 6.37-14.41-25.47c-1.54-2.73-.58-6.19 2.14-7.74 2.83-1.61 6.48-.48 7.9 2.45z" fill="#f6b0a4"/><path d="m430.27 90.08 11.32 25.5c1.22 2.74.36 5.87-1.9 7.65l-.64.5-10.82 8.5-6.04-10.85 10.85-8.46-2.54 8.15-13.4-24.47z" fill="#f2692c"/><path d="m431.01 91.95-3.07-8.8c-.07-.19-.14-.39-.23-.57-1.65-3.71-6-5.38-9.71-3.73s-5.38 6-3.73 9.71l3.14 7.05" fill="#f2692c"/><rect fill="#fff" height="3.7" opacity=".3" rx=".5" transform="matrix(-.41976893 -.90763101 .90763101 -.41976893 521.82 500.92)" width="1.5" x="420.26" y="81.83"/><path d="m427.24 132.27c-.05 0-.1-.03-.13-.07l-6.1-10.86 6.76-5.29-7.07-13.4c-.04-.07-.01-.16.06-.2s.16-.01.2.06l7.18 13.62-6.76 5.28 5.98 10.64c.04.07.01.16-.06.2-.02.01-.05.02-.07.02z" fill="#462e3b" opacity=".8"/><path d="m399.7 88.65-21.24 17.97c-2.33 1.97-5.63 2.03-8.01.34l-.87-.62-10.47-7.46 11.03-9.71 8.27 9.39-8.27-.26 19.61-19.61 9.95 9.95z" fill="#f2692c"/><rect fill="#fff" height="3.7" opacity=".3" rx=".5" transform="matrix(.95191575 -.30635994 .30635994 .95191575 -13.21 118.47)" width="1.5" x="370.1" y="99.48"/><path d="m355.95 86.55c-1.74-2.01-5.48-2.12-7.92-2.31-3.33-.26-6.3-.68-9.62-1.19-.1-.02-.21-.03-.31-.05-.51-.09-1.11-.26-1.27-.76-.2-.61.34-1.68.8-2.07 1.17-1.01 2.47-1.31 3.98-1.39 1.97-.11 3.95-.14 5.92-.08 1.12.04 2.2.06 3.32.03 2.17-.06 4.22.45 6.12 1.39 1.3.64 2.1 1.5 3.57 2.95" fill="#f6b0a4"/><path d="m347.46 76.21c.46.29 1.01.49 1.44.83 1.1.86 1.24 2.37 1.94 3.5.77 1.22 2.05 2.11 3.46 2.39.78.15 1.71.13 2.37-.38.61-.47.99-1.4.69-2.14-.14-.34-.4-.62-.67-.87-.67-.65-1.38-1.15-2.11-1.7s-1.55-1.12-2.44-1.49c-1.83-.77-3.58-1.68-5.23-2.73-.57.63-.53 1.65.11 2.27.13.13.28.24.43.33z" fill="#f6b0a4"/><path d="m353.35 82.75c-1.07-.43-1.99-1.19-2.6-2.16-.27-.43-.46-.91-.64-1.39-.06-.14-.11-.28-.17-.43l.2-.08c.06.14.11.29.17.43.18.46.36.94.62 1.35.58.92 1.47 1.66 2.49 2.07l-.08.2z" fill="#f6b0a4"/><path d="m416.12 134.85c-.94 1.18-2.05 2.28-3.39 3.02s-2.99 1.07-4.46 1.57c-3.27 1.11-6.47 2.41-9.57 3.91-.31.15-.62.3-.93.45-.37.18-.84.36-1.16.11-.23-.18-.27-.5-.27-.79.02-1.84 1.2-3.51 2.66-4.66s2.7-2.07 4.34-2.94c2.56-1.36 6.14-2.34 8.24-4.34" fill="#f6b0a4"/><rect fill="#fff" height="3.7" opacity=".3" rx=".5" transform="matrix(-.8493404 -.52784551 .52784551 -.8493404 670.16 407.95)" width="1.5" x="392.54" y="106.5"/><circle cx="393.13" cy="102.32" fill="#f2692c" r="6.03"/><path d="m413.08 108.49h-19.95c-3.4 0-6.18-2.77-6.18-6.18 0-2.19 1.17-4.23 3.06-5.33l-.22-3.61c0-.08.06-.15.14-.15s.15.06.15.14l.23 3.79-.08.04c-1.84 1.04-2.99 3.01-2.99 5.12 0 3.24 2.64 5.88 5.88 5.88h19.95c.08 0 .15.07.15.15s-.07.15-.15.15z" fill="#462e3b" opacity=".8"/><path d="m343.6 82.24c-1.14-.09-2.28-.23-3.41-.34-1.13-.09-2.27-.28-3.4-.12 1.11-.33 2.29-.17 3.43-.09 1.14.12 2.27.29 3.39.55z" fill="#f6b0a4" opacity=".8"/><path d="m344.14 79.83c-2.13.12-4.27-.06-6.38.23 1.02-.35 2.12-.35 3.18-.38 1.07 0 2.14.03 3.2.16z" fill="#f6b0a4" opacity=".8"/><path d="m344.55 80.67c-1.79.05-3.78-.03-5.58-.05-.54 0-1.08-.02-1.62.07-.07.02-.15.03-.21.09.24-.21.59-.2.89-.26.93-.1 1.87-.11 2.8-.09 1.22.03 2.5.11 3.72.24z" fill="#f6b0a4" opacity=".8"/><rect fill="#fff" height="3.7" opacity=".3" rx=".5" width="1.5" x="393.77" y="88.4"/><rect fill="#fff" height="3.7" opacity=".3" rx=".5" transform="matrix(.88579894 -.46406922 .46406922 .88579894 -2.27 196.54)" width="1.5" x="397.51" y="101.03"/><rect fill="#fff" height="3.7" opacity=".3" rx=".5" transform="matrix(.2721123 -.9622655 .9622655 .2721123 211.9 454.47)" width="1.5" x="405.61" y="85.32"/><rect fill="#fff" height="3.7" opacity=".3" rx=".5" transform="matrix(-.64772107 -.76187756 .76187756 -.64772107 597.49 468.81)" width="1.5" x="406.37" y="94.44"/><rect fill="#fff" height="3.7" opacity=".3" rx=".5" transform="matrix(-.05495018 -.9984891 .9984891 -.05495018 338.73 535.39)" width="1.5" x="421.97" y="105.56"/><rect fill="#fff" height="3.7" opacity=".3" rx=".5" transform="matrix(-.9622655 -.2721123 .2721123 -.9622655 793.53 306.23)" width="1.5" x="417.24" y="96.24"/><path d="m394.32 76.2-.67 1.7c-.15.39.04.82.43.97s.82-.04.97-.43l.8-2.04c.06-.15.05-.35.01-.5-.5.07-1.02.17-1.55.29z" fill="#fff" opacity=".3"/><rect fill="#fff" height="3.7" opacity=".3" rx=".5" transform="matrix(.93099212 .36503928 -.36503928 .93099212 66.27 -150.98)" width="1.5" x="431.78" y="97.96"/><rect fill="#fff" height="3.7" opacity=".3" rx=".5" transform="matrix(.2721123 -.9622655 .9622655 .2721123 199.63 498.73)" width="1.5" x="428.73" y="115.56"/><rect fill="#fff" height="3.7" opacity=".3" rx=".5" transform="matrix(.70710678 .70710678 -.70710678 .70710678 213.28 -261.19)" width="1.5" x="421.17" y="125.01"/><rect fill="#fff" height="3.7" opacity=".3" rx=".5" transform="matrix(.36763767 -.92996911 .92996911 .36763767 161.6 415.11)" width="1.5" x="385.27" y="86.88"/><rect fill="#fff" height="3.7" opacity=".3" rx=".5" transform="matrix(.36763767 -.92996911 .92996911 .36763767 146.37 448.06)" width="1.5" x="401.89" y="114.55"/><path d="m376.29 92.15.21.54c.15.39.59.58.97.43s.58-.59.43-.97l-.46-1.16z" fill="#fff" opacity=".3"/><rect fill="#fff" height="3.7" opacity=".3" rx=".5" transform="matrix(.9622655 .2721123 -.2721123 .9622655 41.32 -100.5)" width="1.5" x="382.26" y="96.87"/><rect fill="#fff" height="3.7" opacity=".3" rx=".5" transform="matrix(-.5 -.8660254 .8660254 -.5 465.66 461.42)" width="1.5" x="365.28" y="94.44"/><path d="m390.94 55.01s0 .03.01.04c1.16-1.74 2.31-3.48 3.46-5.22.94-1.42 1.91-2.93 1.98-4.63.03-.72-.15-1.52-.74-1.93-.48-.34-1.14-.35-1.7-.14s-1.01.61-1.41 1.04c-1.25 1.34-2.08 3.07-2.33 4.89-.27 1.99.23 4.04.73 5.95z" fill="#462e3b"/><path d="m391.39 63.34c.43 2.1 1.11 4.17 2.05 6.2.55 1.17 1.28 2.41 2.51 2.81 1.52.5 3.17-.22 4.51-.91 1.46-.74 2.93-1.51 4.34-2.34 2.66-1.56 5.1-3.64 6.35-6.52.08-.18.15-.36.22-.54 1.44-3.84 1.58-8.3.16-12.17-1.26-3.43-3.85-6.18-7.37-7.31-2.15-.69-4.55-.98-6.7-.12-4.16 1.67-5.6 6.53-6.25 10.55-.57 3.5-.53 6.96.17 10.34z" fill="#f6b0a4"/><ellipse cx="393.59" cy="58.41" fill="#462e3b" rx=".75" ry="1.32"/><ellipse cx="400.12" cy="58.28" fill="#462e3b" rx=".75" ry="1.32"/><path d="m397.02 64.87c-.68 0-1.36-.16-1.97-.46-.2-.1-.44-.25-.51-.51-.07-.27.08-.54.19-.73.92-1.59 1.35-3.48 1.23-5.31l.29-.02c.13 1.89-.32 3.83-1.26 5.47-.09.16-.2.35-.16.5s.21.25.36.32c.68.34 1.47.48 2.23.41l.03.29c-.14.01-.28.02-.42.02z" fill="#f5b1a5"/><path d="m401.78 55.79c-.83-.85-2.16-1.2-3.3-.86l-.08-.28c1.24-.37 2.69.01 3.59.94z" fill="#462e3b"/><path d="m392.3 55.44-.19-.22c.81-.68 2.01-.84 2.98-.41l-.12.27c-.87-.38-1.94-.24-2.68.37z" fill="#462e3b"/><circle cx="401.69" cy="61.54" fill="#f6b0a4" opacity=".6" r="1.53"/><path d="m390.89 59.48c.22-.12.47-.19.74-.19.84 0 1.53.68 1.53 1.53s-.68 1.53-1.53 1.53c-.15 0-.29-.02-.43-.06-.15-.92-.25-1.86-.31-2.8z" fill="#f6b0a4" opacity=".6"/><path d="m408.36 66.1 1.17 10.35c.32 2.42-1.57 4.56-4 4.56-2.29 0-4.12-1.9-4.03-4.18l.25-6.99z" fill="#f6b0a4"/><path d="m408.76 67.01c.37.17.56.57.79.91s.57.67.99.61c.34-.05.6-.33.83-.59.72-.83 1.45-1.65 2.17-2.48.13-.15.28-.32.3-.52.06-.38-.32-.64-.65-.8-.35-.17-.71-.34-1.07-.49l-3.37 3.35z" fill="#f2692c"/><path d="m415.72 57.91c1.32-5.66-1.37-13-6.77-15.54-3.19-1.5-6.88-1.94-10.35-1.27-2.59.51-4.99 2.06-3.79 5 1.66 4.06 4.56 7.69 8.68 9.34.92.37 1.9.64 2.66 1.27 1.13.93 1.57 2.52 1.36 3.96-.12.83-.07 1.74-.06 2.58.03 1.47.52 2.85 1.06 4.26.02-.27.6-.58.8-.73 2.8-2.18 5.58-5.34 6.41-8.87z" fill="#462e3b"/><path d="m408.69 58.36-.16-.02c.5-4.61-1.95-9.23-6.39-12.06-.41-.26-.85-.51-1.26-.74-1.08-.61-2.19-1.24-3.05-2.24l.12-.1c.83.98 1.89 1.58 3 2.21.42.24.85.48 1.27.75 4.49 2.86 6.97 7.54 6.46 12.21z" fill="#fff" opacity=".2"/><path d="m396.53 45.2c.94 2.99 3 5.61 5.71 7.19 1.33.82 2.89 1.21 4.25 2.02 1.33.77 2.53 2.25 2.22 3.87.25-1.61-.97-3.02-2.28-3.76-1.35-.78-2.91-1.17-4.27-1.99-2.72-1.6-4.8-4.28-5.63-7.33z" fill="#fff" opacity=".2"/><path d="m398.26 42.14c2.53.15 5 1 7.12 2.37 5.56 3.46 8.07 10.29 6.38 16.57-.33 1.22-.81 2.4-1.44 3.5.61-1.11 1.06-2.29 1.37-3.51 2.36-9.17-4.04-18.06-13.43-18.93z" fill="#fff" opacity=".2"/><path d="m408.76 67.15c-.15.1-.31.2-.47.29-.03.03-.07.05-.11.07.1-.73.21-1.55.28-2.4.24-2.66.16-5.67-1.64-7.49" fill="none"/><path d="m399.38 65.88c.01.23-.04.46-.15.67-.18.37-.51.68-.87.87-.46.24-1.02.34-1.57.28-.9-.08-1.76-.57-2.09-1.43.38.05.76.18 1.15.23.9.1 1.84 0 2.71-.29.09-.03.81-.26.81-.33z" fill="#462e3b"/><path d="m399.23 66.54c-.18.37-.51.68-.87.87-.46.24-1.02.34-1.57.28v-.18c0-.41.34-.75.75-.75l1.68-.23z" fill="#f2692c"/><path d="m406.75 58.29c.06-.69 1.25-1.21 1.89-1.04.72.19 1.32.67 1.51 1.42.2.79-.07 1.68-.38 2.41-.26.61-.46 1.25-.94 1.73s-1.26.76-1.9.48" fill="#f6b0a4"/><path d="m409.42 58.77c-.19-.49-.86-.67-1.3-.5-.63.25-.75.98-.67 1.59.03.22 0 .5.21.6.13.04.34.14.38.3.06.18.02.34-.05.48-.12.24-.37.41-.34.69.01.12.09.26.23.27-.24.03-.37-.27-.32-.47.05-.3.39-.57.27-.88-.06-.11-.14-.1-.26-.15-.08-.03-.16-.09-.22-.16-.15-.19-.16-.44-.18-.65-.04-.43-.05-.88.19-1.27.23-.38.68-.67 1.14-.59.41.05.87.31.93.75z" fill="#f5b1a5"/><path d="m391.29 52.63c-.05-2.56.01-5.68 1.54-7.74.59-.8 1.7-1.58 2.61-.73.39.37.97 1.19.78 1.7-.27.74-1.07 1.1-1.73 1.53-1.42 1.01-2.7 2.31-3.2 5.23z" fill="#462e3b"/><path d="m413.15 65.22c2.31.58 4.28 2.18 5.67 4.12s2.25 4.21 2.92 6.49c.68 2.33 1.13 5.02-.22 7.04-.05-1.01-.53-1.99-1.29-2.66.33 2.38-.37 4.77-1.21 7.02-.7 1.88-1.56 3.78-3.06 5.1-1.27 1.12-6.38 2.7-5.32-.49 1.06-3.17 1.79-6.26 1.64-9.64-.51.09-1.02-.28-1.26-.74s-.27-1-.29-1.52c-.1-3.08.08-6.18.55-9.23.15-1 .31-2.13-.29-2.95.97-.65 1.68-1.51 2.15-2.56z" fill="#462e3b"/><path d="m413.18 66.44c2.09.36 2.49 4.72 2.88 6.45.05.48.16 1.16.17 1.64 0 0 .05.82.05.82v.82c-.05 5.25-1.97 10.24-3.92 15.04 1.63-4.34 3.29-8.75 3.7-13.4.15-1.89.1-3.84-.26-5.71-.36-1.62-.68-5.26-2.61-5.66z" fill="#fff" opacity=".2"/><path d="m421.46 80.73c-.21-1.47-.29-2.96-.77-4.37.69 1.34.77 2.89.77 4.37z" fill="#fff" opacity=".2"/><path d="m412.41 67.19c.09.08.21.12.27.22s.12.2.17.31c.3.65.33 1.38.31 2.08.01 1.89-.49 3.72-.88 5.55-.22.91-.21 1.85-.23 2.79-.02-.47-.04-.94-.04-1.41.03-1.41.47-2.78.71-4.16.2-.92.27-1.85.31-2.78.03-.69.02-1.41-.23-2.06-.04-.11-.1-.21-.15-.32-.06-.1-.17-.15-.25-.23z" fill="#fff" opacity=".2"/><path d="m349.82 114.56h48.02v1.07c0 1.14-.92 2.06-2.06 2.06h-45.96z" fill="#462e3b"/><path d="m329.78 90.66h41.25c1.01 0 1.89.7 2.13 1.68l6.01 25.35h-45.74l-5.77-24.34c-.33-1.37.72-2.69 2.13-2.69z" fill="#462e3b"/><ellipse cx="352.19" cy="105.44" fill="#fff" opacity=".2" rx="3.03" ry="3.93" transform="matrix(.65050914 -.75949842 .75949842 .65050914 43.02 304.36)"/><path d="m146.24 156.73v73.99c0 2.42-2.19 4.38-4.89 4.38h-109.49c-2.71 0-4.9-1.96-4.9-4.38v-73.99c0-2.42 2.2-4.38 4.9-4.38h109.49c2.71 0 4.89 1.96 4.89 4.38z" fill="#8cc44a" opacity=".6"/><path d="m142.89 152.72v73.99c0 2.42-2.19 4.38-4.89 4.38h-109.49c-2.71 0-4.9-1.96-4.9-4.38v-73.99c0-2.42 2.2-4.38 4.9-4.38h109.49c2.71 0 4.89 1.96 4.89 4.38z" fill="#f1f8e9"/><rect fill="#8cc44a" height="5.14" rx=".83" width="34.14" x="31.37" y="216.9"/><rect fill="#8cc44a" height="5.14" rx=".83" width="49.02" x="67.81" y="216.9"/><rect fill="#8cc44a" height="7.83" opacity=".4" rx="1.41" width="4.24" x="31.37" y="204.85"/><rect fill="#8cc44a" height="7.83" opacity=".4" rx="1.41" width="4.24" x="37.81" y="204.85"/><rect fill="#8cc44a" height="7.83" opacity=".4" rx="1.41" width="4.24" x="44.24" y="204.85"/><rect fill="#8cc44a" height="7.83" opacity=".4" rx="1.41" width="4.24" x="50.67" y="204.85"/><rect fill="#8cc44a" height="7.83" opacity=".4" rx="1.41" width="4.24" x="61.11" y="204.85"/><rect fill="#8cc44a" height="7.83" opacity=".4" rx="1.41" width="4.24" x="67.54" y="204.85"/><rect fill="#8cc44a" height="7.83" opacity=".4" rx="1.41" width="4.24" x="73.98" y="204.85"/><rect fill="#8cc44a" height="7.83" opacity=".4" rx="1.41" width="4.24" x="80.41" y="204.85"/><rect fill="#8cc44a" height="7.83" opacity=".4" rx="1.41" width="4.24" x="90.84" y="204.85"/><rect fill="#8cc44a" height="7.83" opacity=".4" rx="1.41" width="4.24" x="97.28" y="204.85"/><rect fill="#8cc44a" height="7.83" opacity=".4" rx="1.41" width="4.24" x="103.71" y="204.85"/><rect fill="#8cc44a" height="7.83" opacity=".4" rx="1.41" width="4.24" x="110.15" y="204.85"/><circle cx="39.2" cy="163.4" fill="#8cc44a" r="7.47"/><circle cx="49.92" cy="163.37" fill="#8cc44a" opacity=".5" r="7.47"/><g fill="#8cc44a" opacity=".5"><path d="m33.34 192.6c-.09 0-.19-.03-.27-.08-1.82-1.16-2.91-3.15-2.91-5.3 0-2.42 1.35-4.59 3.53-5.65.25-.12.55-.02.67.23s.02.55-.23.67c-1.83.89-2.97 2.72-2.97 4.75 0 1.82.92 3.48 2.45 4.46.23.15.3.46.15.69-.1.15-.26.23-.42.23z"/><path d="m36.33 191.21c-.09 0-.19-.03-.27-.08-1.32-.84-2.11-2.28-2.11-3.84 0-1.75.98-3.32 2.55-4.09.25-.12.55-.02.67.23s.02.55-.23.67c-1.23.6-1.99 1.82-1.99 3.19 0 1.22.61 2.34 1.64 2.99.23.15.3.46.15.69-.1.15-.26.23-.42.23z"/><path d="m38.22 189.48c-.09 0-.19-.03-.27-.08-.74-.47-1.18-1.28-1.18-2.16 0-.97.56-1.87 1.44-2.3.25-.12.55-.02.67.23s.02.55-.23.67c-.54.26-.88.8-.88 1.4 0 .53.27 1.03.72 1.31.23.15.3.46.15.69-.1.15-.26.23-.42.23z"/></g><rect fill="#f2692c" height="13.24" rx=".72" width="17.46" x="42.5" y="180.51"/><path d="m56.01 191.96h-9.85c-.67 0-1.22-.55-1.22-1.22v-7.12c0-.67.55-1.22 1.22-1.22h9.85c.67 0 1.22.55 1.22 1.22v7.12c0 .67-.55 1.22-1.22 1.22zm-9.85-8.57c-.12 0-.22.1-.22.22v7.12c0 .12.1.22.22.22h9.85c.12 0 .22-.1.22-.22v-7.12c0-.12-.1-.22-.22-.22z" fill="#ff7043"/><path d="m52.53 189.42h-2.89c-.67 0-1.22-.55-1.22-1.22v-1.84c0-.67.55-1.22 1.22-1.22h2.89c.67 0 1.22.55 1.22 1.22v1.84c0 .67-.55 1.22-1.22 1.22zm-2.89-3.29c-.12 0-.22.1-.22.22v1.84c0 .12.1.22.22.22h2.89c.12 0 .22-.1.22-.22v-1.84c0-.12-.1-.22-.22-.22z" fill="#ff7043"/><path d="m203.15 106.76v82.74c0 2.71-2.19 4.9-4.89 4.9h-109.49c-2.71 0-4.9-2.2-4.9-4.9v-82.74c0-2.71 2.2-4.9 4.9-4.9h109.49c2.71 0 4.89 2.2 4.89 4.9z" fill="#8cc44a" opacity=".6"/><path d="m199.92 102.53v82.74c0 2.71-2.19 4.9-4.89 4.9h-109.49c-2.71 0-4.9-2.2-4.9-4.9v-82.74c0-2.71 2.2-4.9 4.9-4.9h109.49c2.71 0 4.89 2.2 4.89 4.9z" fill="#fff"/><path d="m199.92 102.53v5.02h-119.29v-5.02c0-2.71 2.2-4.9 4.9-4.9h109.49c2.71 0 4.89 2.2 4.89 4.9z" fill="#f2692c"/><circle cx="87.1" cy="102.38" fill="#fff" r="1.98"/><circle cx="95.22" cy="102.38" fill="#fff" r="1.98"/><circle cx="103.33" cy="102.38" fill="#fff" r="1.98"/><path d="m116.63 173.21h-29.75v-50.15h29.75zm-29.3-.45h28.86v-49.26h-28.86z" fill="#8cc44a" opacity=".6"/><path d="m193.35 173.21h-29.75v-50.15h29.75zm-29.3-.45h28.86v-49.26h-28.86z" fill="#8cc44a" opacity=".6"/><path d="m158.84 179.75h-37.46v-63.24h37.46zm-37.02-.45h36.57v-62.34h-36.57z" fill="#8cc44a"/><path d="m144.64 141.34c0-1.01-.33-1.83-.99-2.47s-1.82-1.26-3.48-1.85c-1.9-.6-3.3-1.33-4.22-2.18-.91-.85-1.37-2.04-1.37-3.59s.46-2.68 1.37-3.61 2.15-1.46 3.72-1.59v-2.77h1.4v2.77c1.6.15 2.83.74 3.71 1.79s1.31 2.47 1.29 4.26l-.04.07h-1.53c0-1.39-.36-2.51-1.1-3.38-.73-.87-1.75-1.3-3.07-1.3s-2.38.35-3.07 1.06c-.7.71-1.05 1.6-1.05 2.68s.31 1.88.93 2.51 1.81 1.24 3.57 1.83c1.89.63 3.29 1.36 4.2 2.2s1.36 2.01 1.36 3.54-.47 2.73-1.42 3.64-2.23 1.43-3.83 1.55v2.6h-1.38v-2.59c-1.65-.1-3.02-.63-4.11-1.58s-1.62-2.39-1.58-4.32l.04-.08h1.53c0 1.63.46 2.8 1.38 3.51.92.72 2.04 1.07 3.34 1.07s2.42-.35 3.21-1.06 1.18-1.61 1.18-2.7z" fill="#8cc44a"/><path d="m141.18 149.24h-1.69v-2.6c-1.62-.12-2.98-.66-4.06-1.61-1.12-.98-1.67-2.47-1.63-4.44l.02-.07.08-.17h1.78v.15c0 1.57.45 2.71 1.32 3.39.89.69 1.98 1.04 3.25 1.04s2.35-.34 3.11-1.03c.75-.68 1.13-1.55 1.13-2.59 0-.96-.32-1.75-.94-2.36-.64-.62-1.79-1.23-3.42-1.82-1.91-.61-3.35-1.35-4.27-2.21-.94-.87-1.42-2.12-1.42-3.7s.48-2.77 1.41-3.72c.91-.93 2.14-1.47 3.68-1.62v-2.78h1.7v2.78c1.57.17 2.8.79 3.67 1.83.9 1.07 1.34 2.54 1.32 4.36v.04s-.11.18-.11.18h-1.77v-.15c0-1.34-.36-2.45-1.06-3.28s-1.69-1.25-2.95-1.25-2.3.34-2.96 1.02c-.67.67-1 1.54-1 2.57s.3 1.8.89 2.41c.6.61 1.78 1.22 3.51 1.79 1.9.63 3.33 1.38 4.25 2.23.94.86 1.41 2.09 1.41 3.65s-.49 2.81-1.47 3.75c-.94.9-2.22 1.43-3.79 1.58v2.61zm-1.38-.31h1.08v-2.59h.14c1.56-.14 2.82-.64 3.74-1.52.91-.87 1.38-2.06 1.38-3.52s-.44-2.63-1.31-3.43c-.89-.82-2.28-1.54-4.14-2.17-1.78-.59-3-1.22-3.63-1.87-.65-.66-.97-1.54-.97-2.62s.37-2.05 1.09-2.78 1.8-1.11 3.18-1.11 2.43.46 3.18 1.36c.72.86 1.1 1.98 1.13 3.33h1.27c0-1.7-.42-3.08-1.25-4.08-.84-1.01-2.06-1.6-3.61-1.74h-.14v-2.77h-1.09v2.75h-.14c-1.53.14-2.75.65-3.63 1.55s-1.33 2.08-1.33 3.51.44 2.66 1.32 3.47c.89.83 2.29 1.55 4.16 2.14 1.68.6 2.87 1.24 3.54 1.89.68.67 1.03 1.54 1.03 2.58 0 1.13-.42 2.08-1.24 2.81-.81.73-1.93 1.1-3.31 1.1s-2.49-.37-3.43-1.11c-.93-.72-1.41-1.89-1.44-3.48h-1.27c-.02 1.84.49 3.23 1.53 4.13 1.06.93 2.41 1.45 4.02 1.54h.14v2.59z" fill="#8cc44a"/><rect fill="#8cc44a" height="5.57" rx="1.68" width="23.79" x="128.22" y="155.98"/><rect fill="#8cc44a" height="2.74" rx=".83" width="27.13" x="126.55" y="165.65"/><rect fill="#8cc44a" height="2.74" rx=".83" width="27.13" x="126.55" y="170.8"/><path d="m105.23 141.57c0-.77-.25-1.41-.76-1.9s-1.4-.97-2.67-1.43c-1.46-.46-2.54-1.02-3.24-1.67s-1.05-1.57-1.05-2.76.35-2.06 1.05-2.78 1.66-1.12 2.86-1.22v-2.13h1.07v2.13c1.23.11 2.18.57 2.85 1.38s1 1.9.99 3.27l-.03.05h-1.18c0-1.07-.28-1.93-.84-2.6s-1.35-1-2.36-1-1.83.27-2.36.82c-.54.54-.81 1.23-.81 2.06s.24 1.44.72 1.93 1.39.96 2.75 1.41c1.45.48 2.53 1.05 3.23 1.69s1.05 1.55 1.05 2.72-.36 2.1-1.09 2.8-1.71 1.1-2.95 1.19v2h-1.06v-1.99c-1.27-.08-2.32-.48-3.16-1.22-.84-.73-1.24-1.84-1.22-3.32l.03-.06h1.18c0 1.25.35 2.15 1.06 2.7s1.56.83 2.57.83 1.86-.27 2.47-.82.91-1.24.91-2.08z" fill="#8cc44a" opacity=".4"/><rect fill="#8cc44a" height="4.66" opacity=".4" rx="1.41" width="15.68" x="93.91" y="153.38"/><rect fill="#8cc44a" height="2.29" opacity=".4" rx=".69" width="22.7" x="90.4" y="161.47"/><rect fill="#8cc44a" height="2.29" opacity=".4" rx=".69" width="13.03" x="95.24" y="165.77"/><path d="m181.95 141.57c0-.77-.25-1.41-.76-1.9s-1.4-.97-2.67-1.43c-1.46-.46-2.54-1.02-3.24-1.67s-1.05-1.57-1.05-2.76.35-2.06 1.05-2.78 1.66-1.12 2.86-1.22v-2.13h1.07v2.13c1.23.11 2.18.57 2.85 1.38s1 1.9.99 3.27l-.03.05h-1.18c0-1.07-.28-1.93-.84-2.6s-1.35-1-2.36-1-1.83.27-2.36.82c-.54.54-.81 1.23-.81 2.06s.24 1.44.72 1.93 1.39.96 2.75 1.41c1.45.48 2.53 1.05 3.23 1.69s1.05 1.55 1.05 2.72-.36 2.1-1.09 2.8-1.71 1.1-2.95 1.19v2h-1.06v-1.99c-1.27-.08-2.32-.48-3.16-1.22-.84-.73-1.24-1.84-1.22-3.32l.03-.06h1.18c0 1.25.35 2.15 1.06 2.7s1.56.83 2.57.83 1.86-.27 2.47-.82.91-1.24.91-2.08z" fill="#8cc44a" opacity=".4"/><rect fill="#8cc44a" height="4.66" opacity=".4" rx="1.41" width="24.27" x="166.34" y="153.38"/><rect fill="#8cc44a" height="2.29" opacity=".4" rx=".69" width="17.41" x="169.77" y="161.47"/><rect fill="#8cc44a" height="2.29" opacity=".4" rx=".69" width="20.62" x="168.16" y="165.77"/><path d="m330.6 35.32c.59 2.47 2.8 4.32 5.46 4.32s4.87-1.84 5.46-4.32z" fill="#fff" opacity=".6"/><path d="m353.37 33.42h-34.63c-.45 0-.82-.37-.82-.82v-.96c0-.25.11-.48.31-.64l14.46-11.9c.15-.12.33-.18.51-.18h5.7c.19 0 .37.06.51.18l14.46 11.9c.19.16.31.39.31.64v.96c0 .45-.37.82-.82.82z" fill="#462e3b"/><path d="m335.6-.21h.91v16.76h-.91z" fill="#462e3b"/><path d="m301.9 161.21-2.16 18.07 27.8 4.01 5.97-31.94z" fill="#fff"/><path d="m301.9 161.21-2.16 18.07 27.8 4.01 5.97-31.94z" fill="#f2692c" opacity=".65"/><path d="m301.38 162.81c-1.53-.07-2.6-1.54-2.21-3.02.99-3.79 3.25-9.97 7.48-10.05 6.1-.12 30.62 0 30.62 0s-4 0-6.03 4.84c-1.29 3.08-2.47 6.07-3.15 7.84-.37.97-1.32 1.58-2.35 1.53l-24.37-1.13z" fill="#fff"/><path d="m301.38 162.81c-1.53-.07-2.6-1.54-2.21-3.02.99-3.79 3.25-9.97 7.48-10.05 6.1-.12 30.62 0 30.62 0s-4 0-6.03 4.84c-1.29 3.08-2.47 6.07-3.15 7.84-.37.97-1.32 1.58-2.35 1.53l-24.37-1.13z" fill="#f2692c" opacity=".4"/><path d="m337.27 149.75s2.26.35 2.2 4.58-1.44 28.97-1.44 28.97h-10.49l5.12-31.08c1.13-1.31 2.56-2.27 4.61-2.47z" fill="#f2692c"/><path d="m308.96 168.22c.06.22.12.44.2.65.29.78.97 1.57 1.88 1.22.69-.27 1.02-1.09 1.26-1.73.31-.83.57-1.69.77-2.55s.45-1.79.28-2.64c-.34-1.71-2.98-1.96-3.97-.66-.63.83-.76 1.92-.74 2.94.02.88.1 1.88.32 2.77z" fill="#462e3b"/><path d="m328.21 150.19c-.25 0-.47-.19-.5-.45-.19-1.86-1.1-4.42-4.39-6.11-.25-.13-.34-.43-.22-.67.13-.25.43-.34.67-.22 3.89 1.99 4.75 5.18 4.93 6.9.03.28-.17.52-.45.55-.02 0-.03 0-.05 0z" fill="#f2692c"/><path d="m303.07 94.72 4.51 6.26s5.28-4.45 8.9-4.2c2.04.14 3.97-.92 5.47-1.88.19-.12 2.71-1.76 2.57-1.95l-4.37-6.32s-3.19 4.04-7.51 3.68-9.58 4.41-9.58 4.41z" fill="#81c784"/><path d="m316.9 92.88c-.29-.82-2.11-.53-3.63-.89-1.66-.39-2.63 1.76-2.35 2.58s1.89 1.28 3.46.63 2.8-1.5 2.51-2.32z" fill="#388e3c"/><path d="m303.06 93.89 6.13 4.69s3.77-5.79 7.31-6.59c1.99-.45 3.54-2.02 4.7-3.38.15-.17 2.08-2.47 1.9-2.61l-6.01-4.79s-1.89 4.79-6.13 5.69-7.9 6.99-7.9 6.99z" fill="#c8e6c9"/><path d="m315.77 88.13c-.51-.7-2.17.1-3.73.2-1.7.1-2.01 2.45-1.5 3.15s2.18.68 3.49-.4 2.25-2.25 1.74-2.94z" fill="#66bb6a"/><path d="m300.96 95.16 7.38 2.26s1.52-6.74 4.56-8.72c1.71-1.11 2.61-3.13 3.23-4.8.08-.21 1.09-3.04.87-3.11l-7.3-2.4s-.1 5.15-3.77 7.47-4.97 9.3-4.97 9.3z" fill="#a5d6a7"/><path d="m310.86 85.34c-.72-.48-2.08.4-3.43 1.48s-1.04 3-.31 3.47 2.28-.12 3.14-1.59 1.33-2.89.6-3.37z" fill="#66bb6a"/><ellipse cx="310.68" cy="80.29" fill="#388e3c" rx=".49" ry=".65"/><ellipse cx="315.48" cy="81.82" fill="#388e3c" rx=".65" ry=".49" transform="matrix(.23921138 -.97096752 .97096752 .23921138 160.55 368.56)"/><ellipse cx="317.28" cy="82.88" fill="#388e3c" rx=".65" ry=".49" transform="matrix(.23921138 -.97096752 .97096752 .23921138 160.89 371.12)"/><ellipse cx="321.18" cy="86.51" fill="#388e3c" rx=".65" ry=".49" transform="matrix(.59355936 -.80479021 .80479021 .59355936 60.91 293.64)"/><ellipse cx="322.91" cy="92.88" fill="#388e3c" rx=".65" ry=".49" transform="matrix(.59355936 -.80479021 .80479021 .59355936 56.49 297.61)"/><ellipse cx="302.27" cy="94.28" fill="#388e3c" rx=".49" ry=".65"/><ellipse cx="307.44" cy="95.98" fill="#388e3c" rx=".65" ry=".49" transform="matrix(.23921138 -.97096752 .97096752 .23921138 140.69 371.53)"/><ellipse cx="307.92" cy="99.35" fill="#388e3c" rx=".65" ry=".49" transform="matrix(.59355936 -.80479021 .80479021 .59355936 45.19 288.18)"/><rect fill="#f2692c" height="22.54" opacity=".5" rx="6.71" width="85.25" x="150.84" y="185.16"/><rect fill="#f2692c" height="22.54" rx="6.71" width="85.25" x="148.52" y="182.55"/><path d="m159.7 198.24v-8.4h2.33c1.91 0 2.7 1.54 2.7 3s-.89 3.06-2.93 3.06h-.54v2.34zm2.15-3.84c.89 0 1.33-.72 1.33-1.54s-.46-1.54-1.34-1.54h-.58v3.07h.59z" fill="#fff"/><path d="m168.77 198.24-.28-1.32h-1.94l-.26 1.32h-1.63l1.99-8.4h1.78l1.99 8.4h-1.64zm-1.1-5.44c-.05-.23-.12-.72-.12-.72h-.02s-.07.49-.12.72l-.56 2.75h1.38l-.55-2.75z" fill="#fff"/><path d="m173.97 198.24h-1.57v-2.36l-2.03-6.03h1.75l.84 3.01c.12.44.22 1.06.22 1.06h.02c.01-.12.1-.61.22-1.06l.83-3.01h1.76l-2.04 6.11v2.29z" fill="#fff"/><path d="m180.17 198.24v-8.4h2.33c1.76 0 2.66.76 2.66 2.32 0 .72-.25 1.34-.84 1.7v.04c.68.32 1.12 1 1.12 1.76 0 1.43-.84 2.58-2.89 2.58h-2.37zm2.15-4.95c1 0 1.28-.49 1.28-1.08s-.3-.88-1.29-.88h-.58v1.96zm.35 3.47c1 0 1.28-.5 1.28-1.09s-.3-1.01-1.29-1.01h-.92v2.1h.94z" fill="#fff"/><path d="m186.56 194.04c0-2.3.7-4.32 2.89-4.32s2.89 2.01 2.89 4.32-.7 4.32-2.89 4.32-2.89-2.01-2.89-4.32zm4.22 0c0-1.75-.37-2.82-1.33-2.82s-1.33 1.07-1.33 2.82.38 2.82 1.33 2.82 1.33-1.07 1.33-2.82z" fill="#fff"/><path d="m193.3 194.04c0-2.3.7-4.32 2.89-4.32s2.89 2.01 2.89 4.32-.7 4.32-2.89 4.32-2.89-2.01-2.89-4.32zm4.22 0c0-1.75-.37-2.82-1.33-2.82s-1.33 1.07-1.33 2.82.38 2.82 1.33 2.82 1.33-1.07 1.33-2.82z" fill="#fff"/><path d="m204 198.24-1.37-3.49h-.05s-.22.41-.5.85v2.64h-1.56v-8.4h1.56v3.17h.02s.16-.35.28-.55l1.54-2.62h1.8l-2.13 3.37 2.1 5.03h-1.68z" fill="#fff"/><path d="m206.88 198.24v-8.4h1.56v8.4z" fill="#fff"/><path d="m214.12 198.24-2.15-4.71c-.1-.23-.2-.56-.2-.56h-.02s.01.36.01.62v4.65h-1.39v-8.4h1.49l2.11 4.59c.1.2.2.56.2.56h.02c0-.06-.01-.41-.01-.61v-4.55h1.39v8.4h-1.45z" fill="#fff"/><path d="m222.76 194.15c0 2.42-.78 4.21-2.79 4.21-2.31 0-2.95-2.13-2.95-4.32s.64-4.32 2.95-4.32c1.37 0 2.15.75 2.55 1.81l-1.35.84c-.2-.7-.56-1.15-1.2-1.15-1.07 0-1.39 1.31-1.39 2.82s.32 2.82 1.39 2.82c.92 0 1.13-.96 1.13-1.73h-.98v-1.5h2.65v.52z" fill="#fff"/><path d="m225.12 203.82 14.19 22.66c.43.68 1.51.4 1.68-.44l1.44-7.11.74-3.63c.05-.26.21-.5.44-.65l9.31-6.33c.71-.48.56-1.55-.24-1.68l-26.55-4.28c-.79-.13-1.42.8-1 1.47z" fill="#fff"/><path d="m252.29 225.01-11.5-7.78c-.32-.22-.39-.68-.14-1.03l2.74-3.92c.22-.32.63-.44.95-.28l12.42 6.08c.38.18.48.67.24 1.05l-3.66 5.63c-.24.37-.71.48-1.04.26z" fill="#fff"/><path d="m215.4 207.4c-.22 0-.42-.14-.48-.37-.07-.27.08-.54.35-.62l6.6-1.84c.27-.08.54.08.62.35.07.27-.08.54-.35.62l-6.6 1.84s-.09.02-.13.02z" fill="#fff"/><path d="m222.27 203.53c-.08 0-.17-.02-.24-.06l-5.98-3.35c-.24-.13-.33-.44-.19-.68.13-.24.44-.33.68-.19l5.98 3.35c.24.13.33.44.19.68-.09.16-.26.26-.44.26z" fill="#fff"/><path d="m226.77 214.66c-.24 0-.45-.17-.49-.41l-1.23-6.74c-.05-.27.13-.53.4-.58.26-.04.53.13.58.4l1.23 6.74c.05.27-.13.53-.4.58-.03 0-.06 0-.09 0z" fill="#fff"/><path d="m219.67 213.1c-.1 0-.2-.03-.28-.09-.23-.16-.29-.47-.13-.7l3.88-5.65c.16-.23.47-.29.7-.13s.29.47.13.7l-3.88 5.65c-.1.14-.25.22-.41.22z" fill="#fff"/><path d="m229.53 202.75c-.21 0-.41-.13-.48-.35-.08-.26.06-.54.32-.63l6.52-2.11c.27-.08.54.06.63.32.08.26-.06.54-.32.63l-6.52 2.11c-.05.02-.1.02-.15.02z" fill="#fff"/><path d="m235.44 207.89c-.08 0-.15-.02-.23-.05l-6.11-3.1c-.25-.12-.34-.43-.22-.67.13-.25.42-.34.67-.22l6.11 3.1c.25.12.34.43.22.67-.09.17-.26.27-.45.27z" fill="#fff"/><path d="m225.89 200.54c-.23 0-.44-.16-.49-.39l-1.51-6.68c-.06-.27.11-.54.38-.6.27-.07.54.11.6.38l1.51 6.68c.06.27-.11.54-.38.6-.04 0-.07.01-.11.01z" fill="#fff"/><path d="m227.9 200.92c-.09 0-.18-.02-.27-.08-.23-.15-.3-.46-.16-.69l3.64-5.8c.15-.23.46-.3.69-.16.23.15.3.46.16.69l-3.64 5.8c-.1.15-.26.23-.42.23z" fill="#fff"/></svg>