<svg xmlns="http://www.w3.org/2000/svg" id="b7c055ea-7d09-4386-a4f3-1f482275428d" data-name="Layer 1" width="33.5059" height="36.5935" viewBox="0 0 33.5059 36.5935"><path d="M33.5926,19.3865C31.1855,9.2723,24.6033,8.8716,22.71,8.28a3.6772,3.6772,0,0,1-2.8884-4.1326A6.4161,6.4161,0,0,1,20.735.6586,8.803,8.803,0,0,0,17.58.04l0-.0184c-.0644.0018-.1211.0067-.1838.0092-.0648-.0026-.1234-.0076-.19-.0095l-.0005.019A8.8036,8.8036,0,0,0,14.05.6589a6.4161,6.4161,0,0,1,.9137,3.4883A3.6772,3.6772,0,0,1,12.075,8.28c-1.8937.5921-8.4758.9928-10.8829,11.107S4.7846,33,8.7227,35.3963c3.3069,2.0121,6.4529,1.0085,8.6705.6523,2.2175.3564,5.3627,1.359,8.6688-.6526C30,33,36,29.5007,33.5926,19.3865Z" transform="translate(-0.6394 -0.0217)"></path></svg>