<svg xmlns="http://www.w3.org/2000/svg" id="b618cfea-1373-4e71-9eb4-7383db7a74dd" data-name="Layer 1" width="20.5328" height="42.3911" viewBox="0 0 20.5328 42.3911"><path d="M20.3311,13.0129c-1.6691-7.987-3.3548-8.5219-5.7946-9.2523s-2.44-1.2174-2.44-1.9479.9149-.974.9149-1.2174c0-.1948-.2033-.2435-.305-.2435H7.826c-.1016,0-.3049.0487-.3049.2435,0,.2434.9149.487.9149,1.2174s0,1.2174-2.44,1.9479S1.8707,5.0259.2017,13.0129,7.826,25.4306,5.9962,33.222c-.2019.86-2.4636,5.278-1.83,7.0611.4928,1.3862,1.5924,2.2035,4.5755,2.4083v.0265c.427.0155.8222.022,1.2033.0244.1022.0015.2154,0,.3212,0s.2189.0015.3211,0c.3811-.0024.7763-.0089,1.2033-.0244v-.0264c2.9832-.2049,4.0828-1.0222,4.5756-2.4084C17,38.5,14.7384,34.0816,14.5365,33.222,12.7067,25.4306,22,21,20.3311,13.0129Z" transform="translate(0 -0.3518)"></path></svg>