<svg xmlns="http://www.w3.org/2000/svg" id="b44af096-b965-4b51-aa32-e961e4657d6b" data-name="Layer 1" width="38.8249" height="39.3569" viewBox="0 0 38.8249 39.3569"><path d="M12.8964,28.5434v2.83H33.1791v-2.83c3.5453,0,4.5452-2.5,4.602-3.75,0,0,2.7187-16.294,0-20.794S10.5,0,8.124,4s-.1364,17.7942,0,20.794S11.1919,28.5434,12.8964,28.5434Z" transform="translate(-3.6758 -0.8093)"></path><path d="M41.7014,33.3637a5.66,5.66,0,0,0-2.3556-.4907H17.7633c-5.2379.1545-9.854.3439-11.9779.4357A1.7662,1.7662,0,0,0,4.13,34.5533c-.4407,1.4786-.909,3.9309.4144,4.9463,1.732,1.3288,29.5546.3033,35.8829.0519a1.7666,1.7666,0,0,0,1.6736-1.28C42.5008,36.8171,42.9,34.4541,41.7014,33.3637Z" transform="translate(-3.6758 -0.8093)"></path></svg>