<svg xmlns="http://www.w3.org/2000/svg" id="a050e0bd-2cd3-4eec-92de-5ba4d903b986" data-name="Layer 1" width="39.2266" height="38.2318" viewBox="0 0 39.2266 38.2318"><path d="M15,17H40.0554c-.0174-1.3642-.0551-2.7086-.1141-4H15Z" transform="translate(-0.8398 -0.2681)"></path><path d="M22,11V.2773C13.1447.3739,3.8128,1.1869,3,2c-.49.49-1.0867,4.1814-1.5287,9H22Z" transform="translate(-0.8398 -0.2681)"></path><path d="M38,2C36.749.749,30.7171.2805,24,.2681V11H39.83C39.5292,6.4884,38.9343,2.9343,38,2Z" transform="translate(-0.8398 -0.2681)"></path><path d="M3,37c1.8269.9133,8.7637,1.41,16,1.4887V20H.9131C.6467,28.0811,1.055,36.0275,3,37Z" transform="translate(-0.8398 -0.2681)"></path><path d="M21,19v6H34a1,1,0,0,1,1,1V37.8077A7.7331,7.7331,0,0,0,38,37c1.2949-1.036,2.0532-9.5833,2.0666-18Z" transform="translate(-0.8398 -0.2681)"></path><path d="M21,38.5c4.4148.0015,8.7767-.1517,12-.4595V27H21Z" transform="translate(-0.8398 -0.2681)"></path><path d="M13,13H1.3019c-.1248,1.6039-.2307,3.2923-.31,5H13Z" transform="translate(-0.8398 -0.2681)"></path></svg>