<svg xmlns="http://www.w3.org/2000/svg" id="a935e752-5eb7-4252-9b80-2fd12de78d24" data-name="Layer 1" width="21.8759" height="20.0518" viewBox="0 0 21.8759 20.0518"><path d="M18.3355,3.4062c-3.73-4.44-9.8325-2.8413-14.2727.8888s-5.5366,8.1787-1.8066,12.6189,12.4667,5.1995,16.9069,1.47S22.0655,7.8464,18.3355,3.4062ZM15.1717,14.5a.5.5,0,0,1-.5-.5c0-.6693-.7938-2.5-3.5-2.5s-3.5,1.8307-3.5,2.5a.5.5,0,0,1-1,0,3.9232,3.9232,0,0,1,3.8169-3.4648,2.3393,2.3393,0,1,1,1.5517.0227A3.8892,3.8892,0,0,1,15.6717,14,.5.5,0,0,1,15.1717,14.5Z" transform="translate(0 -0.7174)"></path><path d="M12.6359,8.3393a1.3393,1.3393,0,1,0-1.3393,1.3393A1.3393,1.3393,0,0,0,12.6359,8.3393Z" transform="translate(0 -0.7174)"></path></svg>