<svg xmlns="http://www.w3.org/2000/svg" id="f0f81b6f-59a6-4203-a5ce-1da61724b84d" data-name="Layer 1" width="21.4038" height="19.9816" viewBox="0 0 21.4038 19.9816"><path d="M21.3344,8.3391C19.24,2.9316,11.2175-.6108,5.81,1.4838S-.3424,10.517,1.7522,15.9245s8.3864,5.8669,13.7939,3.7722S23.429,13.7466,21.3344,8.3391ZM13.2907,14.268a3.0572,3.0572,0,0,1-1.788.792v.852a.519.519,0,0,1-.144.384.4642.4642,0,0,1-.36.144.5034.5034,0,0,1-.372-.144.5461.5461,0,0,1-.132-.384v-.828a5.82,5.82,0,0,1-1.392-.288,3.5331,3.5331,0,0,1-1.128-.648.56.56,0,0,1-.228-.48.5831.5831,0,0,1,.108-.36.3545.3545,0,0,1,.288-.156.7949.7949,0,0,1,.408.156,4.1189,4.1189,0,0,0,2.328.78,2.246,2.246,0,0,0,1.368-.36,1.1892,1.1892,0,0,0,.492-1.02.8181.8181,0,0,0-.264-.636,1.7419,1.7419,0,0,0-.648-.396,9.963,9.963,0,0,0-1.068-.312,11.65,11.65,0,0,1-1.464-.456,2.4832,2.4832,0,0,1-.972-.708,1.9355,1.9355,0,0,1-.396-1.272,2.1974,2.1974,0,0,1,.696-1.644,3.0958,3.0958,0,0,1,1.86-.816v-.84a.5461.5461,0,0,1,.132-.384.5034.5034,0,0,1,.372-.144.4642.4642,0,0,1,.36.144.519.519,0,0,1,.144.384v.84a3.84,3.84,0,0,1,1.164.3,3.2774,3.2774,0,0,1,.996.624.591.591,0,0,1,.24.48.5741.5741,0,0,1-.12.36.3545.3545,0,0,1-.288.156.7949.7949,0,0,1-.408-.156,4.3669,4.3669,0,0,0-.984-.588,2.8981,2.8981,0,0,0-1.104-.192,2.0888,2.0888,0,0,0-1.32.384,1.2536,1.2536,0,0,0-.492,1.044.9738.9738,0,0,0,.276.72,1.923,1.923,0,0,0,.684.432,11.4624,11.4624,0,0,0,1.116.312,9.7351,9.7351,0,0,1,1.416.444,2.3189,2.3189,0,0,1,.924.672,1.7907,1.7907,0,0,1,.384,1.212A2.1118,2.1118,0,0,1,13.2907,14.268Z" transform="translate(-0.6716 -0.8733)" style="fill-rule:evenodd"></path></svg>